<?xml version="1.0" encoding="UTF-8" standalone="no"?>
<svg
   id="Layer_1"
   data-name="Layer 1"
   viewBox="0 0 4259.18 432.36"
   version="1.1"
   sodipodi:docname="Cadgroup-Cadpro Modified.svg"
   inkscape:version="1.4.2 (f4327f4, 2025-05-13)"
   xmlns:inkscape="http://www.inkscape.org/namespaces/inkscape"
   xmlns:sodipodi="http://sodipodi.sourceforge.net/DTD/sodipodi-0.dtd"
   xmlns="http://www.w3.org/2000/svg"
   xmlns:svg="http://www.w3.org/2000/svg">
  <defs
     id="defs20" />
  <sodipodi:namedview
     id="namedview20"
     pagecolor="#ffffff"
     bordercolor="#000000"
     borderopacity="0.25"
     inkscape:showpageshadow="2"
     inkscape:pageopacity="0.0"
     inkscape:pagecheckerboard="0"
     inkscape:deskcolor="#d1d1d1"
     inkscape:zoom="0.40110301"
     inkscape:cx="2210.1554"
     inkscape:cy="315.38033"
     inkscape:window-width="2560"
     inkscape:window-height="1369"
     inkscape:window-x="2552"
     inkscape:window-y="-8"
     inkscape:window-maximized="1"
     inkscape:current-layer="Layer_1" />
  <circle
     cx="2517.99"
     cy="228.96001"
     r="55.669998"
     stroke="#000000"
     stroke-miterlimit="10"
     id="circle1" />
  <circle
     cx="2647.0901"
     cy="228.96001"
     r="55.669998"
     stroke="#000000"
     stroke-miterlimit="10"
     id="circle2" />
  <circle
     cx="2712.47"
     cy="348.79001"
     r="55.669998"
     stroke="#000000"
     stroke-miterlimit="10"
     id="circle3" />
  <circle
     cx="2578.71"
     cy="348.79001"
     r="55.669998"
     stroke="#000000"
     stroke-miterlimit="10"
     id="circle4" />
  <circle
     cx="2712.47"
     cy="107.44"
     r="55.669998"
     stroke="#000000"
     stroke-miterlimit="10"
     id="circle5" />
  <circle
     cx="2578.71"
     cy="107.44"
     r="55.669998"
     stroke="#000000"
     stroke-miterlimit="10"
     id="circle6" />
  <path
     stroke="#000000"
     stroke-miterlimit="10"
     d="m 3076.25,193.22 c -11.71,-10.81 -26.12,-17.11 -45.03,-17.11 -36.47,0 -54.93,26.57 -54.93,54.93 0,31.97 23.87,55.38 56.74,55.38 12.16,0 28.37,-3.6 43.23,-17.11 v 53.58 c -10.81,5.4 -27.92,12.16 -50.43,12.16 -30.62,0 -57.64,-11.71 -75.2,-28.37 -14.86,-13.96 -31.07,-38.27 -31.07,-74.75 0,-34.22 13.96,-61.69 33.77,-79.25 23.87,-21.16 51.33,-25.21 70.24,-25.21 20.26,0 36.92,4.05 52.68,11.71 v 54.03 z"
     id="path6" />
  <path
     stroke="#000000"
     stroke-miterlimit="10"
     d="m 3267.17,133.78 h 54.93 v 194.97 h -54.93 v -25.21 c -19.81,28.37 -45.93,31.52 -59.89,31.52 -59.89,0 -99.51,-46.83 -99.51,-104.01 0,-57.18 39.17,-103.57 96.81,-103.57 14.86,0 44.13,2.7 62.59,31.52 z m -102.66,97.26 c 0,31.07 22.51,55.38 54.04,55.38 31.53,0 54.03,-24.31 54.03,-55.38 0,-31.07 -22.51,-54.93 -54.03,-54.93 -31.52,0 -54.04,23.86 -54.04,54.93 z"
     id="path7" />
  <path
     stroke="#000000"
     stroke-miterlimit="10"
     d="m 3523.83,0.5 h 54.93 v 328.25 h -54.93 v -25.21 c -19.81,28.37 -45.93,31.52 -59.89,31.52 -59.89,0 -99.51,-46.83 -99.51,-104.01 0,-57.18 39.17,-103.57 96.81,-103.57 14.86,0 44.13,2.7 62.59,31.52 z m -102.66,230.54 c 0,31.07 22.51,55.38 54.04,55.38 31.53,0 54.03,-24.31 54.03,-55.38 0,-31.07 -22.51,-54.93 -54.03,-54.93 -31.52,0 -54.04,23.86 -54.04,54.93 z"
     id="path8" />
  <path
     stroke="#000000"
     stroke-miterlimit="10"
     d="M 3685.93,431.86 H 3631 V 133.78 h 54.93 V 159 c 8.56,-12.16 27.47,-31.52 63.49,-31.52 17.11,0 44.58,4.05 66.64,26.12 14.41,14.41 29.27,38.72 29.27,77.45 0,44.13 -19.36,67.99 -30.62,78.8 -14.86,13.96 -37.37,25.21 -66.19,25.21 -13.51,0 -40.98,-2.25 -62.59,-31.52 v 128.33 z m 13.06,-242.7 c -12.16,10.36 -18.46,23.87 -18.46,41.88 0,18.01 7.2,32.87 18.01,42.32 7.2,6.3 18.91,13.06 36.02,13.06 18.01,0 29.72,-7.2 36.92,-13.96 11.71,-10.81 17.11,-27.02 17.11,-41.43 0,-14.41 -5.85,-30.62 -16.66,-40.98 -9.91,-9.01 -24.32,-13.96 -37.37,-13.96 -14.41,0 -25.66,4.05 -35.57,13.06 z"
     id="path9" />
  <path
     stroke="#000000"
     stroke-miterlimit="10"
     d="m 3887.66,133.78 h 54.93 v 29.27 c 8.56,-16.66 20.26,-24.77 24.32,-27.02 8.55,-5.4 19.36,-8.55 32.42,-8.55 9.46,0 17.11,2.25 23.41,4.5 l -7.2,51.33 c -7.21,-4.95 -14.41,-7.2 -25.67,-7.2 -10.36,0 -25.66,2.25 -36.47,15.76 -10.36,13.06 -10.81,29.72 -10.81,43.22 v 93.66 h -54.93 z"
     id="path10" />
  <path
     stroke="#000000"
     stroke-miterlimit="10"
     d="m 4225.81,154.95 c 19.36,17.56 32.87,44.58 32.87,76.55 0,31.97 -13.51,58.54 -32.87,76.1 -16.66,15.31 -41.87,27.47 -78.8,27.47 -36.93,0 -62.14,-12.16 -78.8,-27.47 -19.36,-17.56 -32.87,-44.58 -32.87,-76.1 0,-31.52 13.51,-58.99 32.87,-76.55 16.66,-15.31 41.87,-27.47 78.8,-27.47 36.93,0 62.14,12.16 78.8,27.47 z m -23.86,76.54 c 0,-30.62 -23.42,-55.38 -54.93,-55.38 -31.51,0 -54.93,24.77 -54.93,55.38 0,30.61 22.97,54.93 54.93,54.93 31.96,0 54.93,-25.21 54.93,-54.93 z"
     id="path11" />
  <path
     stroke="#000000"
     stroke-miterlimit="10"
     d="m 632.18,288.83 c 4.31,7.03 7.06,13.81 8.23,20.34 -8.23,2.94 -16.66,5.07 -25.29,6.37 -8.63,1.31 -17.94,1.96 -27.94,1.96 -15.29,0 -29.07,-2.08 -41.32,-6.25 -12.25,-4.17 -22.6,-10.13 -31.02,-17.89 -8.43,-7.76 -14.9,-17.19 -19.41,-28.3 -4.51,-11.11 -6.76,-23.6 -6.76,-37.49 0,-13.89 2.25,-26.75 6.76,-38.11 4.51,-11.35 10.98,-21.03 19.41,-29.04 8.43,-8 18.72,-14.17 30.88,-18.5 12.15,-4.33 25.78,-6.49 40.88,-6.49 11.17,0 20.78,0.65 28.82,1.96 8.04,1.31 15.19,2.86 21.47,4.66 -0.39,3.76 -1.23,7.23 -2.5,10.41 -1.28,3.19 -2.79,6.58 -4.56,10.17 -2.94,-0.81 -5.78,-1.55 -8.53,-2.2 -2.75,-0.65 -5.69,-1.23 -8.82,-1.72 -3.14,-0.49 -6.62,-0.86 -10.44,-1.1 -3.82,-0.24 -8.19,-0.37 -13.09,-0.37 -21.37,0 -37.98,6.05 -49.84,18.13 -11.86,12.09 -17.79,29.49 -17.79,52.2 0,11.6 1.66,21.65 5,30.14 3.33,8.5 8.04,15.52 14.12,21.07 6.07,5.56 13.38,9.72 21.91,12.5 8.53,2.78 18.09,4.17 28.67,4.17 8.23,0 15.68,-0.57 22.35,-1.72 6.66,-1.14 12.94,-2.78 18.82,-4.9 z"
     id="path12" />
  <path
     stroke="#000000"
     stroke-miterlimit="10"
     d="m 793.33,273.88 h -80.28 l -14.41,40.68 c -2.55,0.33 -5.1,0.57 -7.64,0.74 -2.55,0.16 -5.1,0.24 -7.65,0.24 -2.75,0 -5.44,-0.08 -8.09,-0.24 -2.65,-0.17 -5.05,-0.41 -7.21,-0.74 l 68.81,-176.2 c 2.55,-0.33 5.29,-0.57 8.23,-0.74 2.94,-0.16 5.98,-0.24 9.12,-0.24 2.74,0 5.59,0.08 8.53,0.24 2.94,0.16 5.78,0.41 8.53,0.74 l 68.52,176.2 c -2.35,0.33 -5,0.57 -7.94,0.74 -2.94,0.16 -5.78,0.24 -8.53,0.24 -2.55,0 -5.15,-0.08 -7.79,-0.24 -2.65,-0.17 -5.15,-0.41 -7.5,-0.74 z m -72.34,-21.81 h 64.4 l -32.35,-89.94 z"
     id="path13" />
  <path
     stroke="#000000"
     stroke-miterlimit="10"
     d="m 873.9,138.36 c 6.66,-0.65 14.7,-1.26 24.11,-1.84 9.41,-0.57 18.62,-0.86 27.64,-0.86 37.05,0 64.74,7.84 83.07,23.52 18.33,15.68 27.49,38.23 27.49,67.64 0,29.41 -9.36,53.51 -28.08,68.37 -18.72,14.87 -46.61,22.3 -83.66,22.3 -9.22,0 -18.33,-0.29 -27.35,-0.86 -9.02,-0.57 -16.76,-1.27 -23.23,-2.08 v -176.2 z m 29.99,155.61 c 2.74,0.33 6.13,0.61 10.15,0.86 4.02,0.24 8.28,0.37 12.79,0.37 11.57,0 22.1,-1.1 31.61,-3.31 9.51,-2.21 17.69,-5.92 24.55,-11.15 6.86,-5.23 12.15,-12.29 15.88,-21.2 3.72,-8.9 5.59,-20.05 5.59,-33.45 0,-12.25 -1.87,-22.71 -5.59,-31.37 -3.73,-8.66 -8.97,-15.72 -15.73,-21.2 -6.76,-5.47 -14.85,-9.43 -24.26,-11.89 -9.41,-2.45 -19.8,-3.68 -31.17,-3.68 -3.73,0 -7.79,0.04 -12.2,0.12 -4.41,0.08 -8.28,0.37 -11.62,0.86 v 135.03 z"
     id="path14" />
  <path
     stroke="#000000"
     stroke-miterlimit="10"
     d="m 1200.02,223.4 c 2.35,-0.33 4.8,-0.57 7.35,-0.74 2.55,-0.16 5.1,-0.24 7.64,-0.24 2.54,0 5.1,0.08 7.65,0.24 2.55,0.16 4.9,0.41 7.06,0.74 v 86.01 c -4.12,1.47 -8.63,2.74 -13.53,3.8 -4.9,1.06 -10,1.88 -15.29,2.45 -5.29,0.57 -10.59,1.02 -15.88,1.35 -5.29,0.33 -10.29,0.49 -15,0.49 -15.69,0 -29.8,-2.04 -42.35,-6.13 -12.55,-4.08 -23.14,-10 -31.76,-17.77 -8.63,-7.76 -15.25,-17.19 -19.85,-28.3 -4.61,-11.11 -6.91,-23.69 -6.91,-37.74 0,-14.05 2.35,-26.75 7.06,-38.11 4.7,-11.35 11.42,-21.03 20.14,-29.04 8.72,-8 19.11,-14.17 31.17,-18.5 12.06,-4.33 25.44,-6.49 40.14,-6.49 11.17,0 20.88,0.61 29.11,1.84 8.23,1.22 15.68,2.9 22.35,5.02 -0.39,3.76 -1.23,7.23 -2.5,10.42 -1.28,3.19 -2.79,6.58 -4.56,10.17 -5.49,-1.47 -11.42,-2.78 -17.79,-3.92 -6.37,-1.14 -14.36,-1.72 -23.97,-1.72 -10.39,0 -19.85,1.55 -28.38,4.66 -8.53,3.1 -15.78,7.64 -21.76,13.6 -5.98,5.97 -10.64,13.32 -13.97,22.05 -3.34,8.74 -5,18.75 -5,30.02 0,11.27 1.71,21.61 5.15,30.02 3.43,8.42 8.28,15.44 14.56,21.07 6.27,5.64 13.67,9.8 22.2,12.5 8.53,2.7 17.98,4.04 28.38,4.04 6.27,0 11.76,-0.28 16.47,-0.86 4.7,-0.57 8.72,-1.26 12.06,-2.08 v -68.86 z"
     id="path15" />
  <path
     stroke="#000000"
     stroke-miterlimit="10"
     d="m 1277.06,138.12 c 4.31,-0.33 8.23,-0.65 11.76,-0.98 3.53,-0.33 7.01,-0.61 10.44,-0.86 3.43,-0.24 7.01,-0.45 10.73,-0.61 3.72,-0.16 7.84,-0.25 12.35,-0.25 10,0 19.9,0.82 29.7,2.45 9.8,1.63 18.53,4.5 26.17,8.58 7.65,4.09 13.87,9.6 18.67,16.54 4.8,6.95 7.2,15.73 7.2,26.34 0,6.37 -1.28,12.17 -3.82,17.4 -2.55,5.23 -5.78,9.89 -9.7,13.97 -3.92,4.09 -8.38,7.64 -13.38,10.66 -5,3.03 -9.85,5.51 -14.56,7.47 l -3.53,1.47 61.46,74.25 c -5.29,0.49 -11.27,0.74 -17.94,0.74 -5.29,0 -10.59,-0.24 -15.88,-0.74 l -67.64,-81.6 v -0.98 l 2.35,-0.49 c 5.29,-1.14 10.88,-2.7 16.76,-4.66 5.88,-1.96 11.32,-4.53 16.32,-7.72 5,-3.19 9.16,-7.02 12.5,-11.52 3.33,-4.49 5,-9.92 5,-16.3 0,-11.76 -4.17,-20.5 -12.5,-26.22 -8.33,-5.72 -19.56,-8.58 -33.67,-8.58 -3.34,0 -6.42,0.08 -9.26,0.25 -2.84,0.16 -6.03,0.41 -9.56,0.74 v 157.08 c -2.16,0.16 -4.56,0.33 -7.21,0.49 -2.65,0.16 -5.15,0.24 -7.5,0.24 -2.35,0 -4.9,-0.04 -7.65,-0.12 -2.75,-0.08 -5.29,-0.29 -7.65,-0.61 V 138.11 Z"
     id="path16" />
  <path
     stroke="#000000"
     stroke-miterlimit="10"
     d="m 1530.55,317.5 c -15.29,0 -28.53,-2.25 -39.7,-6.74 -11.17,-4.49 -20.44,-10.78 -27.79,-18.87 -7.35,-8.09 -12.84,-17.68 -16.47,-28.79 -3.63,-11.11 -5.44,-23.28 -5.44,-36.51 0,-13.23 1.81,-25.4 5.44,-36.51 3.62,-11.11 9.12,-20.71 16.47,-28.79 7.35,-8.09 16.61,-14.42 27.79,-18.99 11.17,-4.57 24.41,-6.86 39.7,-6.86 15.29,0 28.52,2.29 39.7,6.86 11.17,4.58 20.44,10.91 27.79,18.99 7.35,8.09 12.79,17.69 16.32,28.79 3.53,11.11 5.29,23.28 5.29,36.51 0,13.23 -1.76,25.41 -5.29,36.51 -3.53,11.11 -8.97,20.71 -16.32,28.79 -7.35,8.09 -16.61,14.38 -27.79,18.87 -11.17,4.49 -24.41,6.74 -39.7,6.74 z m 0,-21.57 c 9.8,0 18.28,-1.59 25.44,-4.78 7.15,-3.19 13.09,-7.8 17.79,-13.85 4.7,-6.04 8.23,-13.31 10.59,-21.81 2.35,-8.49 3.53,-18.13 3.53,-28.92 0,-10.79 -1.18,-20.22 -3.53,-28.79 -2.35,-8.58 -5.88,-15.84 -10.59,-21.81 -4.7,-5.96 -10.64,-10.54 -17.79,-13.72 -7.16,-3.19 -15.64,-4.78 -25.44,-4.78 -9.8,0 -18.28,1.59 -25.44,4.78 -7.16,3.19 -13.09,7.76 -17.79,13.72 -4.7,5.97 -8.23,13.23 -10.59,21.81 -2.36,8.58 -3.53,18.18 -3.53,28.79 0,10.61 1.18,20.42 3.53,28.92 2.35,8.5 5.88,15.77 10.59,21.81 4.71,6.05 10.63,10.66 17.79,13.85 7.15,3.19 15.63,4.78 25.44,4.78 z"
     id="path17" />
  <path
     stroke="#000000"
     stroke-miterlimit="10"
     d="m 1658.46,138.36 c 4.71,-0.49 9.8,-0.74 15.29,-0.74 5.49,0 10.19,0.24 14.7,0.74 v 99.98 c 0,10.13 0.78,18.79 2.35,25.98 1.57,7.19 4.12,13.03 7.65,17.52 3.53,4.5 8.18,7.8 13.97,9.92 5.78,2.13 12.89,3.19 21.32,3.19 8.43,0 15.48,-1.06 21.17,-3.19 5.68,-2.12 10.29,-5.43 13.82,-9.92 3.53,-4.49 6.07,-10.33 7.65,-17.52 1.57,-7.19 2.35,-15.84 2.35,-25.98 v -99.98 c 4.9,-0.49 9.9,-0.74 15,-0.74 5.49,0 10.59,0.24 15.29,0.74 v 104.39 c 0,11.76 -1.32,22.3 -3.97,31.61 -2.65,9.31 -6.96,17.15 -12.94,23.53 -5.98,6.37 -13.78,11.23 -23.38,14.58 -9.61,3.35 -21.27,5.02 -34.99,5.02 -13.72,0 -25.39,-1.68 -34.99,-5.02 -9.61,-3.35 -17.4,-8.21 -23.38,-14.58 -5.98,-6.37 -10.29,-14.21 -12.94,-23.53 -2.65,-9.31 -3.97,-19.85 -3.97,-31.61 z"
     id="path18" />
  <path
     stroke="#000000"
     stroke-miterlimit="10"
     d="m 1855.78,138.12 c 2.94,-0.33 6.42,-0.65 10.44,-0.98 4.02,-0.33 8.23,-0.61 12.65,-0.86 4.41,-0.24 8.82,-0.45 13.23,-0.61 4.41,-0.16 8.68,-0.25 12.79,-0.25 10.78,0 21.03,0.9 30.73,2.7 9.7,1.8 18.23,4.9 25.58,9.31 7.35,4.41 13.18,10.25 17.5,17.52 4.31,7.27 6.47,16.38 6.47,27.32 0,10.94 -2.31,20.95 -6.91,28.55 -4.61,7.6 -10.69,13.69 -18.23,18.26 -7.55,4.58 -16.13,7.8 -25.73,9.68 -9.61,1.88 -19.41,2.82 -29.41,2.82 -3.73,0 -7.01,-0.04 -9.85,-0.12 -2.84,-0.08 -5.93,-0.28 -9.26,-0.61 v 63.71 c -4.71,0.49 -9.7,0.74 -15,0.74 -2.35,0 -4.85,-0.04 -7.5,-0.12 -2.65,-0.08 -5.15,-0.29 -7.5,-0.61 V 138.13 Z m 30,90.91 c 3.13,0.33 5.88,0.57 8.23,0.74 2.35,0.16 5.78,0.24 10.29,0.24 6.07,0 12.1,-0.53 18.09,-1.59 5.98,-1.06 11.32,-2.98 16.03,-5.76 4.7,-2.78 8.48,-6.57 11.32,-11.4 2.84,-4.82 4.26,-11.06 4.26,-18.75 0,-6.7 -1.23,-12.33 -3.68,-16.91 -2.45,-4.57 -5.84,-8.25 -10.15,-11.03 -4.31,-2.78 -9.51,-4.74 -15.59,-5.88 -6.08,-1.14 -12.64,-1.72 -19.7,-1.72 -7.06,0 -13.63,0.24 -19.11,0.74 v 71.31 z"
     id="path19" />
  <path
     stroke="#000000"
     stroke-miterlimit="10"
     d="m 311.94,219.63 -56.61,-98.16 46.63,-80.9 H 125.11 l -0.39,0.05 h -0.88 l -0.44,0.05 h -0.44 l -0.39,0.05 -0.44,0.05 h -0.44 l -0.44,0.05 -0.39,0.05 -0.44,0.05 -0.44,0.05 -0.44,0.05 -0.39,0.05 -0.44,0.1 -0.44,0.05 -0.39,0.05 -0.44,0.1 -0.44,0.05 -0.39,0.1 -0.44,0.05 -0.44,0.1 -0.39,0.1 -0.44,0.1 -0.44,0.1 -0.39,0.1 -0.44,0.1 -0.39,0.1 -0.44,0.1 -0.39,0.1 -0.44,0.15 -0.39,0.1 -0.44,0.15 -0.39,0.1 -0.39,0.15 -0.44,0.15 -0.39,0.1 -0.39,0.15 -0.44,0.15 -0.39,0.15 -0.39,0.15 -0.44,0.15 -0.39,0.15 -0.39,0.15 -0.39,0.2 -0.39,0.15 -0.39,0.2 -0.39,0.15 -0.39,0.2 -0.39,0.15 -0.39,0.2 -0.39,0.2 -0.39,0.15 -0.39,0.2 -0.39,0.2 -0.39,0.2 -0.39,0.2 -0.39,0.2 -0.34,0.25 -0.39,0.2 -0.39,0.2 -0.34,0.25 -0.39,0.2 -0.34,0.2 -0.39,0.25 -0.34,0.25 -0.39,0.2 -0.34,0.25 -0.39,0.25 -0.34,0.25 -0.34,0.25 -0.39,0.25 -0.34,0.25 -0.34,0.25 -0.34,0.25 -0.34,0.25 -0.34,0.25 -0.34,0.29 -0.34,0.25 -0.34,0.25 -0.34,0.29 -0.34,0.25 -0.34,0.29 -0.29,0.29 -0.34,0.25 -0.34,0.29 -0.29,0.29 -0.34,0.29 -0.34,0.29 -0.29,0.29 -0.29,0.29 -0.34,0.29 -0.29,0.29 -0.29,0.29 -0.34,0.29 -0.29,0.34 -0.29,0.29 -0.29,0.29 -0.29,0.34 -0.29,0.29 -0.29,0.34 -0.29,0.29 -0.25,0.34 -0.29,0.34 -0.29,0.29 -0.29,0.34 -0.25,0.34 -0.29,0.34 -0.25,0.29 -0.29,0.34 -0.25,0.34 -0.25,0.34 -0.29,0.34 -0.25,0.39 -0.25,0.34 -0.25,0.34 -0.25,0.34 -0.25,0.34 -0.25,0.39 -0.25,0.34 -0.25,0.34 -0.2,0.39 -0.25,0.34 -0.25,0.39 -0.2,0.34 -0.25,0.39 -0.2,0.39 -72.57,125.29 -0.2,0.39 -0.25,0.39 -0.2,0.34 -0.2,0.39 -0.2,0.39 -0.2,0.39 -0.2,0.34 -0.2,0.39 -0.2,0.39 -0.2,0.39 -0.2,0.39 -0.15,0.39 -0.2,0.39 -0.15,0.39 -0.2,0.39 -0.15,0.39 -0.2,0.39 -0.15,0.39 -0.15,0.44 -0.15,0.39 -0.15,0.39 -0.15,0.39 -0.15,0.39 -0.15,0.44 -0.15,0.39 -0.15,0.39 -0.1,0.44 -0.15,0.39 -0.15,0.44 -0.1,0.39 -0.1,0.39 -0.15,0.44 -0.1,0.39 -0.1,0.44 -0.1,0.39 -0.15,0.44 -0.1,0.39 -0.05,0.44 -0.1,0.39 -0.1,0.44 -0.1,0.44 -0.1,0.39 -0.05,0.44 -0.1,0.44 -0.05,0.39 -0.05,0.44 -0.1,0.44 -0.05,0.39 -0.05,0.44 -0.05,0.44 -0.05,0.39 -0.05,0.44 -0.05,0.44 -0.05,0.44 -0.05,0.39 v 0.44 l -0.05,0.44 -0.05,0.44 v 0.84 l -0.05,0.44 v 3.88 l 0.05,0.44 v 0.39 l 0.05,0.44 v 0.44 l 0.05,0.44 0.05,0.39 v 0.44 l 0.05,0.44 0.05,0.44 0.05,0.39 0.05,0.44 0.05,0.44 0.1,0.39 0.05,0.44 0.05,0.44 0.1,0.39 0.05,0.44 0.1,0.44 0.05,0.39 0.1,0.44 0.1,0.39 0.1,0.44 0.1,0.44 0.1,0.39 0.1,0.44 0.1,0.39 0.1,0.44 0.1,0.39 0.15,0.44 0.1,0.39 0.1,0.44 0.15,0.39 0.1,0.39 0.15,0.44 0.15,0.39 0.15,0.39 0.1,0.44 0.15,0.39 0.15,0.39 0.15,0.39 0.2,0.44 0.15,0.39 0.15,0.39 0.15,0.39 0.2,0.39 0.15,0.39 0.2,0.39 0.15,0.39 0.2,0.39 0.2,0.39 0.15,0.39 0.2,0.39 0.2,0.39 0.2,0.39 0.2,0.39 0.2,0.34 0.2,0.39 0.2,0.39 0.25,0.34 v -1.38 l 0.05,-0.44 v -0.93 l 0.05,-0.49 0.05,-0.44 v -0.49 l 0.05,-0.44 0.05,-0.49 0.05,-0.44 0.05,-0.44 0.05,-0.49 0.05,-0.44 0.05,-0.49 0.05,-0.44 0.1,-0.44 0.05,-0.49 0.05,-0.44 0.1,-0.44 0.1,-0.49 0.05,-0.44 0.1,-0.44 0.1,-0.49 0.1,-0.44 0.1,-0.44 0.1,-0.49 0.1,-0.44 0.1,-0.44 0.1,-0.44 0.1,-0.44 0.15,-0.49 0.1,-0.44 0.15,-0.44 0.1,-0.44 0.15,-0.44 0.1,-0.44 0.15,-0.44 0.15,-0.44 0.15,-0.44 0.15,-0.44 0.15,-0.44 0.15,-0.44 0.15,-0.44 0.15,-0.44 0.2,-0.44 0.15,-0.44 0.15,-0.39 0.2,-0.44 0.15,-0.44 0.2,-0.44 0.2,-0.39 0.2,-0.44 0.15,-0.44 0.2,-0.39 0.2,-0.44 0.2,-0.44 0.2,-0.39 0.2,-0.44 0.25,-0.39 0.2,-0.44 0.2,-0.39 0.25,-0.39 0.2,-0.44 0.25,-0.39 0.2,-0.39 0.25,-0.44 0.2,-0.39 36.17,-62.67 0.25,-0.39 0.25,-0.39 0.2,-0.39 0.25,-0.39 0.25,-0.39 0.29,-0.39 0.25,-0.39 0.25,-0.39 0.25,-0.39 0.25,-0.39 0.29,-0.39 0.25,-0.39 0.29,-0.34 0.25,-0.39 0.29,-0.39 0.25,-0.34 0.29,-0.39 0.29,-0.34 0.29,-0.39 0.29,-0.34 0.29,-0.39 0.29,-0.34 0.29,-0.34 0.29,-0.39 0.29,-0.34 0.29,-0.34 0.29,-0.34 0.34,-0.34 0.29,-0.34 0.29,-0.34 0.34,-0.34 0.29,-0.34 0.34,-0.34 0.34,-0.34 0.29,-0.29 0.34,-0.34 0.34,-0.34 0.34,-0.29 0.34,-0.34 0.34,-0.29 0.29,-0.34 0.34,-0.29 0.39,-0.29 0.34,-0.34 0.34,-0.29 0.34,-0.29 0.34,-0.29 0.39,-0.29 0.34,-0.29 0.34,-0.29 0.39,-0.29 0.34,-0.29 0.39,-0.29 0.34,-0.25 0.39,-0.29 0.39,-0.29 0.34,-0.25 0.39,-0.29 0.39,-0.25 0.39,-0.25 0.34,-0.29 0.39,-0.25 0.39,-0.25 0.39,-0.25 0.39,-0.25 0.39,-0.25 0.39,-0.25 0.39,-0.25 0.44,-0.25 0.39,-0.25 0.39,-0.25 0.39,-0.2 0.44,-0.25 0.39,-0.2 0.39,-0.25 0.44,-0.2 0.39,-0.25 0.44,-0.2 0.39,-0.2 0.44,-0.2 0.39,-0.2 0.44,-0.2 0.39,-0.2 0.44,-0.2 0.44,-0.2 0.39,-0.2 0.44,-0.15 0.44,-0.2 0.44,-0.2 0.39,-0.15 0.44,-0.2 0.44,-0.15 0.44,-0.15 0.44,-0.15 0.44,-0.2 0.44,-0.15 0.44,-0.15 0.44,-0.15 0.44,-0.15 0.44,-0.1 0.44,-0.15 0.44,-0.15 0.44,-0.15 0.44,-0.1 0.44,-0.15 0.49,-0.1 0.44,-0.1 0.44,-0.15 0.44,-0.1 0.44,-0.1 0.49,-0.1 0.44,-0.1 0.44,-0.1 0.49,-0.1 0.44,-0.1 0.44,-0.05 0.44,-0.1 0.49,-0.1 0.44,-0.05 0.49,-0.1 0.44,-0.05 0.44,-0.05 0.49,-0.1 0.44,-0.05 0.49,-0.05 0.44,-0.05 0.44,-0.05 0.49,-0.05 0.44,-0.05 h 0.49 l 0.44,-0.05 0.49,-0.05 h 0.44 l 0.49,-0.05 h 1.38 l 0.44,-0.05 h 147.51 l -55.13,95.55 H 96.78 l 50.12,-86.95 h -41.72 l -0.44,0.05 h -1.33 l -0.39,0.05 h -0.44 l -0.44,0.05 h -0.44 l -0.39,0.05 -0.44,0.05 -0.44,0.05 h -0.44 l -0.44,0.05 -0.39,0.05 -0.44,0.1 -0.44,0.05 -0.39,0.05 -0.44,0.05 -0.44,0.1 -0.39,0.05 -0.44,0.1 -0.44,0.05 -0.39,0.1 -0.44,0.1 -0.44,0.05 -0.39,0.1 -0.44,0.1 -0.39,0.1 -0.44,0.1 -0.39,0.1 -0.44,0.15 -0.39,0.1 -0.44,0.1 -0.39,0.15 -0.44,0.1 -0.39,0.15 -0.44,0.1 -0.39,0.15 -0.39,0.15 -0.44,0.15 -0.39,0.1 -0.39,0.15 -0.44,0.15 -0.39,0.15 -0.39,0.2 -0.39,0.15 -0.39,0.15 -0.44,0.15 -0.39,0.2 -0.39,0.15 -0.39,0.2 -0.39,0.2 -0.39,0.15 -0.39,0.2 -0.39,0.2 -0.39,0.2 -0.34,0.2 -0.39,0.2 -0.39,0.2 -0.39,0.2 -0.39,0.2 -0.34,0.2 -0.39,0.2 -0.39,0.25 -0.34,0.2 -0.39,0.25 -0.34,0.2 -0.39,0.25 -0.34,0.25 -0.39,0.2 -0.34,0.25 -0.34,0.25 -0.39,0.25 -0.34,0.25 -0.34,0.25 -0.34,0.25 -0.34,0.25 -0.39,0.25 -0.34,0.29 -0.34,0.25 -0.34,0.25 -0.34,0.29 -0.29,0.25 -0.34,0.29 -0.34,0.25 -0.34,0.29 -0.29,0.29 -0.34,0.25 -0.34,0.29 -0.29,0.29 -0.34,0.29 -0.29,0.29 -0.34,0.29 -0.29,0.29 -0.29,0.29 -0.34,0.29 -0.29,0.34 -0.29,0.29 -0.29,0.29 -0.29,0.34 -0.29,0.29 -0.29,0.29 -0.29,0.34 -0.29,0.34 -0.29,0.29 -0.29,0.34 -0.25,0.34 -0.29,0.29 -0.25,0.34 -0.29,0.34 -0.29,0.34 -0.25,0.34 -0.25,0.34 -0.29,0.34 -0.25,0.34 -0.25,0.34 -0.25,0.34 -0.25,0.34 -0.25,0.34 -0.25,0.39 -0.25,0.34 -0.25,0.34 -0.25,0.39 -0.25,0.34 -0.2,0.39 -0.25,0.34 -0.2,0.39 -0.25,0.34 -0.2,0.39 -36.17,62.67 -0.2,0.34 -0.25,0.39 -0.2,0.39 -0.2,0.39 -0.2,0.34 -0.2,0.39 -0.2,0.39 -0.2,0.39 -0.2,0.39 -0.2,0.39 -0.15,0.39 -0.2,0.39 -0.2,0.39 -0.15,0.39 -0.2,0.39 -0.15,0.39 -0.2,0.39 -0.15,0.39 -0.15,0.39 -0.15,0.44 -0.15,0.39 -0.15,0.39 -0.15,0.39 -0.15,0.44 -0.15,0.39 -0.15,0.39 -0.1,0.44 -0.15,0.39 -0.15,0.44 -0.1,0.39 -0.1,0.44 -0.15,0.39 -0.1,0.44 -0.1,0.39 -0.1,0.44 -0.15,0.39 -0.1,0.44 -0.05,0.39 -0.1,0.44 -0.1,0.44 -0.1,0.39 -0.05,0.44 -0.1,0.44 -0.1,0.39 -0.05,0.44 -0.05,0.44 -0.1,0.39 -0.05,0.44 -0.05,0.44 -0.05,0.39 -0.05,0.44 -0.05,0.44 -0.05,0.44 -0.05,0.39 -0.05,0.44 v 0.44 l -0.05,0.44 v 0.44 L 16,243.54 v 0.44 l -0.05,0.44 v 3.44 L 16,248.3 v 0.44 l 0.05,0.44 v 0.44 l 0.05,0.39 v 0.44 l 0.05,0.44 0.05,0.44 0.05,0.39 0.05,0.44 0.05,0.44 0.05,0.44 0.05,0.39 0.05,0.44 0.1,0.44 0.05,0.39 0.05,0.44 0.1,0.44 0.1,0.39 0.05,0.44 0.1,0.44 0.1,0.39 0.1,0.44 0.05,0.44 0.1,0.39 0.15,0.44 0.1,0.39 0.1,0.44 0.1,0.39 0.15,0.44 0.1,0.39 0.1,0.44 0.15,0.39 0.15,0.39 0.1,0.44 0.15,0.39 0.15,0.44 0.15,0.39 0.15,0.39 0.15,0.39 0.15,0.44 0.15,0.39 0.15,0.39 0.15,0.39 0.2,0.39 0.15,0.44 0.2,0.39 0.15,0.39 0.2,0.39 0.2,0.39 0.15,0.39 0.2,0.39 0.2,0.34 0.2,0.39 0.2,0.39 0.2,0.39 0.2,0.39 0.2,0.39 0.2,0.34 0.25,0.39 0.2,0.39 41.33,71.61 0.2,0.34 0.25,0.39 0.2,0.34 0.25,0.39 0.25,0.34 0.2,0.39 0.25,0.34 0.25,0.34 0.25,0.39 0.25,0.34 0.25,0.34 0.25,0.34 0.25,0.39 0.25,0.34 0.25,0.34 0.29,0.34 0.25,0.34 0.29,0.34 0.25,0.34 0.29,0.29 0.25,0.34 0.29,0.34 0.29,0.34 0.25,0.29 0.29,0.34 0.29,0.29 0.29,0.34 0.29,0.29 0.29,0.34 0.29,0.29 0.29,0.34 0.29,0.29 0.29,0.29 0.34,0.29 0.29,0.29 0.29,0.29 0.34,0.29 0.29,0.29 0.34,0.29 0.29,0.29 0.34,0.29 0.34,0.29 0.29,0.25 0.34,0.29 0.34,0.29 0.34,0.25 0.34,0.29 0.29,0.25 0.34,0.29 0.34,0.25 0.34,0.25 0.39,0.25 0.34,0.25 0.34,0.29 0.34,0.25 0.34,0.25 0.39,0.2 0.34,0.25 0.34,0.25 0.39,0.25 0.34,0.25 0.39,0.2 0.34,0.25 0.39,0.2 0.34,0.25 0.39,0.2 0.39,0.2 0.34,0.25 0.39,0.2 0.39,0.2 0.39,0.2 0.39,0.2 0.34,0.2 0.39,0.2 0.39,0.2 0.39,0.15 0.39,0.2 0.39,0.2 0.39,0.15 0.39,0.2 0.44,0.15 0.39,0.15 0.39,0.2 0.39,0.15 0.39,0.15 0.39,0.15 0.44,0.15 0.39,0.15 0.39,0.15 0.44,0.15 0.39,0.15 0.39,0.1 0.44,0.15 0.39,0.1 0.44,0.15 0.39,0.1 0.44,0.15 0.39,0.1 0.44,0.1 0.39,0.1 0.44,0.1 0.39,0.1 0.44,0.1 0.39,0.1 0.44,0.1 0.44,0.1 0.39,0.05 0.44,0.1 0.44,0.05 0.39,0.1 0.44,0.05 0.44,0.1 0.39,0.05 0.44,0.05 0.44,0.05 0.44,0.05 0.39,0.05 0.44,0.05 0.44,0.05 h 0.44 l 0.39,0.05 0.44,0.05 h 0.44 l 0.44,0.05 h 0.84 l 0.44,0.05 h 74.89 l 0.44,-0.05 h 0.84 l 0.44,-0.05 h 0.44 l 0.44,-0.05 0.39,-0.05 h 0.44 l 0.44,-0.05 0.44,-0.05 0.39,-0.05 0.44,-0.05 0.44,-0.05 0.44,-0.05 0.39,-0.05 0.44,-0.1 0.44,-0.05 0.39,-0.1 0.44,-0.05 0.44,-0.1 0.39,-0.05 0.44,-0.1 0.44,-0.1 0.39,-0.1 0.44,-0.1 0.39,-0.1 0.44,-0.1 0.39,-0.1 0.44,-0.1 0.39,-0.1 0.44,-0.15 0.39,-0.1 0.44,-0.15 0.39,-0.1 0.44,-0.15 0.39,-0.1 0.39,-0.15 0.44,-0.15 0.39,-0.15 0.39,-0.15 0.44,-0.15 0.39,-0.15 0.39,-0.15 0.39,-0.15 0.39,-0.2 0.44,-0.15 0.39,-0.15 0.39,-0.2 0.39,-0.15 0.39,-0.2 0.39,-0.2 0.39,-0.15 0.39,-0.2 0.39,-0.2 0.34,-0.2 0.39,-0.2 0.39,-0.2 0.39,-0.2 0.39,-0.2 0.34,-0.25 0.39,-0.2 0.39,-0.2 0.34,-0.25 0.39,-0.2 0.34,-0.25 0.39,-0.2 0.34,-0.25 0.39,-0.25 0.34,-0.25 0.34,-0.25 0.39,-0.2 0.34,-0.25 0.34,-0.25 0.34,-0.29 0.34,-0.25 0.39,-0.25 0.34,-0.25 0.34,-0.25 0.34,-0.29 0.34,-0.25 0.29,-0.29 0.34,-0.25 0.34,-0.29 0.34,-0.29 0.29,-0.25 0.34,-0.29 0.34,-0.29 0.29,-0.29 0.34,-0.29 0.29,-0.29 0.34,-0.29 0.29,-0.29 0.29,-0.29 0.34,-0.29 0.29,-0.29 0.29,-0.29 0.29,-0.34 0.29,-0.29 0.29,-0.34 0.29,-0.29 0.29,-0.34 0.29,-0.29 0.29,-0.34 0.29,-0.29 0.25,-0.34 0.29,-0.34 0.25,-0.34 0.29,-0.29 0.25,-0.34 0.29,-0.34 0.25,-0.34 0.29,-0.34 0.25,-0.34 0.25,-0.34 0.25,-0.39 0.25,-0.34 0.25,-0.34 0.25,-0.34 0.25,-0.39 0.25,-0.34 0.25,-0.34 0.25,-0.39 0.2,-0.34 0.25,-0.39 0.2,-0.34 0.25,-0.39 0.2,-0.34 20.64,-35.73 -48.65,-89.55 52.14,-90.44 55.13,95.55 -71.79,124.45 -0.25,0.39 -0.25,0.44 -0.25,0.39 -0.2,0.39 -0.25,0.39 -0.29,0.39 -0.25,0.39 -0.25,0.39 -0.25,0.39 -0.25,0.39 -0.29,0.34 -0.25,0.39 -0.29,0.39 -0.25,0.39 -0.29,0.34 -0.29,0.39 -0.25,0.34 -0.29,0.39 -0.29,0.34 -0.29,0.39 -0.29,0.34 -0.29,0.39 -0.29,0.34 -0.29,0.34 -0.29,0.34 -0.29,0.39 -0.29,0.34 -0.34,0.34 -0.29,0.34 -0.34,0.34 -0.29,0.34 -0.34,0.34 -0.29,0.29 -0.34,0.34 -0.29,0.34 -0.34,0.34 -0.34,0.29 -0.34,0.34 -0.34,0.29 -0.34,0.34 -0.34,0.29 -0.34,0.34 -0.34,0.29 -0.34,0.29 -0.34,0.29 -0.34,0.34 -0.34,0.29 -0.39,0.29 -0.34,0.29 -0.34,0.29 -0.39,0.29 -0.34,0.25 -0.39,0.29 -0.34,0.29 -0.39,0.29 -0.39,0.25 -0.34,0.29 -0.39,0.25 -0.39,0.29 -0.39,0.25 -0.34,0.25 -0.39,0.29 -0.39,0.25 -0.39,0.25 -0.39,0.25 -0.39,0.25 -0.39,0.25 -0.44,0.25 -0.39,0.25 -0.39,0.2 -0.39,0.25 -0.39,0.25 -0.44,0.2 -0.39,0.25 -0.39,0.2 -0.44,0.25 -0.39,0.2 -0.44,0.2 -0.39,0.25 -0.44,0.2 -0.39,0.2 -0.44,0.2 -0.39,0.2 -0.44,0.2 -0.44,0.15 -0.39,0.2 -0.44,0.2 -0.44,0.2 -0.44,0.15 -0.39,0.2 -0.44,0.15 -0.44,0.15 -0.44,0.2 -0.44,0.15 -0.44,0.15 -0.44,0.15 -0.44,0.15 -0.44,0.15 -0.44,0.15 -0.44,0.15 -0.44,0.15 -0.44,0.1 -0.44,0.15 -0.44,0.15 -0.44,0.1 -0.49,0.15 -0.44,0.1 -0.44,0.1 -0.44,0.1 -0.44,0.15 -0.49,0.1 -0.44,0.1 -0.44,0.1 -0.49,0.05 -0.44,0.1 -0.44,0.1 -0.44,0.1 -0.49,0.05 -0.44,0.1 -0.49,0.05 -0.44,0.1 -0.44,0.05 -0.49,0.05 -0.44,0.05 -0.49,0.05 -0.44,0.05 -0.44,0.05 -0.49,0.05 -0.44,0.05 -0.49,0.05 h -0.44 l -0.49,0.05 -0.44,0.05 h -0.93 l -0.49,0.05 h -75.97 l -0.49,-0.05 h -0.93 l -0.44,-0.05 -0.49,-0.05 h -0.44 l -0.44,-0.05 -0.49,-0.05 -0.44,-0.05 -0.49,-0.05 -0.44,-0.05 -0.49,-0.05 -0.44,-0.05 -0.44,-0.05 -0.49,-0.05 -0.44,-0.1 -0.44,-0.05 -0.49,-0.1 -0.44,-0.05 -0.44,-0.1 -0.49,-0.1 -0.44,-0.1 -0.44,-0.05 -0.44,-0.1 -0.49,-0.1 -0.44,-0.1 -0.44,-0.15 -0.44,-0.1 -0.49,-0.1 -0.44,-0.1 -0.44,-0.15 -0.44,-0.1 -0.44,-0.15 -0.44,-0.1 -0.44,-0.15 -0.44,-0.15 -0.44,-0.15 -0.44,-0.15 -0.44,-0.1 -0.44,-0.15 -0.44,-0.2 -0.44,-0.15 -0.44,-0.15 -0.44,-0.15 -0.44,-0.2 -0.44,-0.15 -0.39,-0.15 -0.44,-0.2 -0.44,-0.2 -0.44,-0.15 -0.39,-0.2 -0.44,-0.2 -0.44,-0.2 -0.39,-0.2 -0.44,-0.2 -0.39,-0.2 -0.44,-0.2 -0.39,-0.2 -0.44,-0.2 -0.39,-0.25 -0.44,-0.2 -0.39,-0.25 -0.39,-0.2 -0.39,-0.25 -0.44,-0.2 0.25,0.34 0.2,0.39 0.25,0.34 0.25,0.39 0.2,0.34 0.25,0.34 0.25,0.39 0.25,0.34 0.25,0.34 0.25,0.34 0.25,0.39 0.25,0.34 0.25,0.34 0.29,0.34 0.25,0.34 0.25,0.34 0.29,0.34 0.25,0.29 0.29,0.34 0.25,0.34 0.29,0.34 0.29,0.29 0.25,0.34 0.29,0.34 0.29,0.29 0.29,0.34 0.29,0.29 0.29,0.29 0.29,0.34 0.29,0.29 0.29,0.29 0.34,0.29 0.29,0.34 0.29,0.29 0.34,0.29 0.29,0.29 0.29,0.29 0.34,0.25 0.29,0.29 0.34,0.29 0.34,0.29 0.29,0.25 0.34,0.29 0.34,0.29 0.34,0.25 0.34,0.29 0.34,0.25 0.29,0.25 0.34,0.29 0.39,0.25 0.34,0.25 0.34,0.25 0.34,0.25 0.34,0.25 0.34,0.25 0.39,0.25 0.34,0.25 0.34,0.25 0.39,0.2 0.34,0.25 0.39,0.25 0.34,0.2 0.39,0.25 0.34,0.2 0.39,0.2 0.39,0.25 0.34,0.2 0.39,0.2 0.39,0.2 0.34,0.2 0.39,0.2 0.39,0.2 0.39,0.2 0.39,0.2 0.39,0.15 0.39,0.2 0.39,0.2 0.39,0.15 0.39,0.2 0.39,0.15 0.39,0.15 0.39,0.2 0.39,0.15 0.44,0.15 0.39,0.15 0.39,0.15 0.39,0.15 0.44,0.15 0.39,0.15 0.39,0.1 0.44,0.15 0.39,0.15 0.39,0.1 0.44,0.15 0.39,0.1 0.44,0.1 0.39,0.15 0.44,0.1 0.39,0.1 0.44,0.1 0.39,0.1 0.44,0.1 0.39,0.1 0.44,0.05 0.44,0.1 0.39,0.1 0.44,0.05 0.39,0.1 0.44,0.05 0.44,0.1 0.39,0.05 0.44,0.05 0.44,0.05 0.39,0.1 0.44,0.05 h 0.44 l 0.44,0.05 0.39,0.05 0.44,0.05 0.44,0.05 h 0.44 l 0.39,0.05 h 0.44 l 0.44,0.05 H 272.9 l 0.44,-0.05 h 0.39 l 0.44,-0.05 h 0.44 l 0.44,-0.05 0.44,-0.05 0.39,-0.05 0.44,-0.05 0.44,-0.05 0.44,-0.05 0.39,-0.05 0.44,-0.05 0.44,-0.05 0.39,-0.05 0.44,-0.1 0.44,-0.05 0.39,-0.1 0.44,-0.05 0.44,-0.1 0.39,-0.1 0.44,-0.05 0.44,-0.1 0.39,-0.1 0.44,-0.1 0.39,-0.1 0.44,-0.1 0.39,-0.15 0.44,-0.1 0.39,-0.1 0.44,-0.15 0.39,-0.1 0.44,-0.15 0.39,-0.1 0.39,-0.15 0.44,-0.15 0.39,-0.15 0.39,-0.15 0.44,-0.1 0.39,-0.15 0.39,-0.2 0.39,-0.15 0.44,-0.15 0.39,-0.15 0.39,-0.2 0.39,-0.15 0.39,-0.15 0.39,-0.2 0.39,-0.2 0.39,-0.15 0.39,-0.2 0.39,-0.2 0.39,-0.2 0.39,-0.2 0.39,-0.2 0.34,-0.2 0.39,-0.2 0.39,-0.2 0.39,-0.2 0.34,-0.25 0.39,-0.2 0.39,-0.2 0.34,-0.25 0.39,-0.2 0.34,-0.25 0.39,-0.25 0.34,-0.2 0.34,-0.25 0.39,-0.25 0.34,-0.25 0.34,-0.25 0.34,-0.25 0.39,-0.25 0.34,-0.25 0.34,-0.25 0.34,-0.29 0.34,-0.25 0.34,-0.25 0.34,-0.29 0.34,-0.25 0.34,-0.29 0.29,-0.25 0.34,-0.29 0.34,-0.29 0.29,-0.29 0.34,-0.25 0.34,-0.29 0.29,-0.29 0.34,-0.29 0.29,-0.29 0.29,-0.29 0.34,-0.29 0.29,-0.34 0.29,-0.29 0.29,-0.29 0.29,-0.29 0.34,-0.34 0.29,-0.29 0.29,-0.34 0.25,-0.29 0.29,-0.34 0.29,-0.29 0.29,-0.34 0.29,-0.34 0.25,-0.29 0.29,-0.34 0.25,-0.34 0.29,-0.34 0.25,-0.34 0.29,-0.34 0.25,-0.34 0.25,-0.34 0.25,-0.34 0.29,-0.34 0.25,-0.34 0.25,-0.39 0.25,-0.34 0.25,-0.34 0.2,-0.34 0.25,-0.39 0.25,-0.34 0.25,-0.39 0.2,-0.34 0.25,-0.39 0.2,-0.34 0.25,-0.39 87.76,-152.17 h -93.31 z m -67.57,89.51 H 147.08 L 96.96,222.19 H 197.2 Z"
     id="path20" />
  <line
     stroke="#000"
     stroke-width="3"
     fill="none"
     stroke-miterlimit="10"
     x1="2333.81"
     y1="15.9"
     x2="2093.73"
     y2="427.17"
     id="line20" />
</svg>
