<?xml version="1.0" encoding="UTF-8" standalone="no"?>
<svg
   id="Layer_1"
   data-name="Layer 1"
   viewBox="0 0 4258.3104 431.35938"
   version="1.1"
   width="4258.3105"
   height="431.35938"
   xmlns="http://www.w3.org/2000/svg"
   xmlns:svg="http://www.w3.org/2000/svg">
  <defs
     id="defs20" />
  <path
     id="circle1"
     style="stroke:#000000;stroke-miterlimit:10"
     d="M 2573.2909,228.46001 A 55.669998,55.669998 0 0 1 2517.6209,284.13 55.669998,55.669998 0 0 1 2461.9509,228.46001 55.669998,55.669998 0 0 1 2517.6209,172.79001 55.669998,55.669998 0 0 1 2573.2909,228.46001 Z" />
  <path
     id="circle2"
     style="stroke:#000000;stroke-miterlimit:10"
     d="M 2702.391,228.46001 A 55.669998,55.669998 0 0 1 2646.721,284.13 55.669998,55.669998 0 0 1 2591.051,228.46001 55.669998,55.669998 0 0 1 2646.721,172.79001 55.669998,55.669998 0 0 1 2702.391,228.46001 Z" />
  <path
     id="circle3"
     style="stroke:#000000;stroke-miterlimit:10"
     d="M 2767.7709,348.29001 A 55.669998,55.669998 0 0 1 2712.1009,403.96001 55.669998,55.669998 0 0 1 2656.4309,348.29001 55.669998,55.669998 0 0 1 2712.1009,292.62001 55.669998,55.669998 0 0 1 2767.7709,348.29001 Z" />
  <path
     id="circle4"
     style="stroke:#000000;stroke-miterlimit:10"
     d="M 2634.0109,348.29001 A 55.669998,55.669998 0 0 1 2578.3409,403.96001 55.669998,55.669998 0 0 1 2522.6709,348.29001 55.669998,55.669998 0 0 1 2578.3409,292.62001 55.669998,55.669998 0 0 1 2634.0109,348.29001 Z" />
  <path
     id="circle5"
     style="stroke:#000000;stroke-miterlimit:10"
     d="M 2767.7709,106.94 A 55.669998,55.669998 0 0 1 2712.1009,162.61 55.669998,55.669998 0 0 1 2656.4309,106.94 55.669998,55.669998 0 0 1 2712.1009,51.270004 55.669998,55.669998 0 0 1 2767.7709,106.94 Z" />
  <path
     id="circle6"
     style="stroke:#000000;stroke-miterlimit:10"
     d="M 2634.0109,106.94 A 55.669998,55.669998 0 0 1 2578.3409,162.61 55.669998,55.669998 0 0 1 2522.6709,106.94 55.669998,55.669998 0 0 1 2578.3409,51.270004 55.669998,55.669998 0 0 1 2634.0109,106.94 Z" />
  <path
     d="M 3075.8809,192.72 C 3064.1709,181.91 3049.7609,175.61 3030.8509,175.61 2994.3809,175.61 2975.9209,202.18 2975.9209,230.54 2975.9209,262.51 2999.7909,285.92 3032.6609,285.92 3044.8209,285.92 3061.0309,282.32 3075.8909,268.81 V 322.39 C 3065.0809,327.79 3047.9709,334.55 3025.4609,334.55 2994.8409,334.55 2967.8209,322.84 2950.2609,306.18 2935.4009,292.22 2919.1909,267.91 2919.1909,231.43 2919.1909,197.21 2933.1509,169.74 2952.9609,152.18 2976.8309,131.02 3004.2909,126.97 3023.2009,126.97 3043.4609,126.97 3060.1209,131.02 3075.8809,138.68 V 192.71 Z"
     id="path6" />
  <path
     id="path7"
     d="M 3204.211,126.98047 C 3146.571,126.98047 3107.4004,173.37078 3107.4004,230.55078 3107.4004,287.73078 3147.0202,334.56055 3206.9102,334.56055 3220.8702,334.56055 3246.9908,331.40906 3266.8008,303.03906 V 328.25 H 3321.7305 V 133.2793 H 3266.8008 V 158.5 C 3248.3408,129.68 3219.071,126.98047 3204.211,126.98047 Z M 3218.1817,175.60938 C 3249.7017,175.60938 3272.211,199.46906 3272.211,230.53906 3272.211,261.60906 3249.7117,285.91992 3218.1817,285.91992 3186.6517,285.91992 3164.1407,261.60906 3164.1407,230.53906 3164.1407,199.46906 3186.6617,175.60938 3218.1817,175.60938 Z" />
  <path
     id="path27"
     d="M 3523.461,0 V 158.5 C 3505.001,129.68 3475.7311,126.98047 3460.8711,126.98047 3403.2311,126.98047 3364.0606,173.37078 3364.0606,230.55078 3364.0606,287.73078 3403.6804,334.56055 3463.5704,334.56055 3477.5304,334.56055 3503.651,331.40906 3523.461,303.03906 V 328.25 H 3578.3907 V 0 Z M 3474.8418,175.60938 C 3506.3618,175.60938 3528.8711,199.46906 3528.8711,230.53906 3528.8711,261.60906 3506.3718,285.91992 3474.8418,285.91992 3443.3118,285.91992 3420.8008,261.60906 3420.8008,230.53906 3420.8008,199.46906 3443.3218,175.60938 3474.8418,175.60938 Z" />
  <path
     id="path28"
     d="M 3749.0508,126.98047 C 3713.0308,126.98047 3694.1206,146.34 3685.5606,158.5 V 133.2793 H 3630.6309 V 431.35938 H 3685.5606 V 303.03906 C 3707.1706,332.30906 3734.6404,334.56055 3748.1504,334.56055 3776.9704,334.56055 3799.4818,323.30961 3814.3418,309.34961 3825.6018,298.53961 3844.961,274.68078 3844.961,230.55078 3844.961,191.82078 3830.1014,167.50961 3815.6914,153.09961 3793.6314,131.02961 3766.1608,126.98047 3749.0508,126.98047 Z M 3734.1914,175.58984 C 3747.2414,175.58984 3761.6506,180.54078 3771.5606,189.55078 3782.3706,199.91078 3788.2207,216.1193 3788.2207,230.5293 3788.2207,244.9393 3782.8214,261.15094 3771.1114,271.96094 3763.9114,278.72094 3752.2014,285.91992 3734.1914,285.91992 3717.0814,285.91992 3705.37,279.15938 3698.17,272.85938 3687.36,263.40937 3680.1602,248.54906 3680.1602,230.53906 3680.1602,212.52906 3686.4611,199.02016 3698.6211,188.66016 V 188.65016 C 3708.5311,179.64016 3719.7814,175.58961 3734.1914,175.58961 Z" />
  <path
     d="M 3887.2909,133.28 H 3942.2209 V 162.55 C 3950.7809,145.89 3962.4809,137.78 3966.5409,135.53 3975.0909,130.13 3985.9009,126.98 3998.9609,126.98 4008.4209,126.98 4016.0709,129.23 4022.3709,131.48 L 4015.1709,182.81 C 4007.9609,177.86 4000.7609,175.61 3989.5009,175.61 3979.1409,175.61 3963.8409,177.86 3953.0309,191.37 3942.6709,204.43 3942.2209,221.09 3942.2209,234.59 V 328.25 H 3887.2909 Z"
     id="path10" />
  <path
     id="path29"
     d="M 4146.6407,126.98047 C 4109.7107,126.98047 4084.5018,139.13922 4067.8418,154.44922 4048.4818,172.00922 4034.9707,199.48 4034.9707,231 4034.9707,262.52 4048.4818,289.53961 4067.8418,307.09961 4084.5018,322.40961 4109.7107,334.57031 4146.6407,334.57031 4183.5707,334.57031 4208.7814,322.40961 4225.4414,307.09961 4244.8014,289.53961 4258.3106,262.97 4258.3106,231 4258.3106,199.03 4244.8014,172.00922 4225.4414,154.44922 4208.7814,139.13922 4183.5707,126.98047 4146.6407,126.98047 Z M 4146.6507,175.60938 C 4178.1607,175.60938 4201.5804,200.37023 4201.5804,230.99023 4201.5804,260.71023 4178.6107,285.91992 4146.6507,285.91992 4114.6907,285.91992 4091.721,261.60023 4091.721,230.99023 4091.721,200.38023 4115.1407,175.60938 4146.6507,175.60938 Z" />
  <path
     d="M 631.81085,288.33 C 636.12085,295.36 638.87085,302.14 640.04085,308.67 631.81085,311.61 623.38085,313.74 614.75085,315.04 606.12085,316.35 596.81085,317 586.81085,317 571.52085,317 557.74085,314.92 545.49085,310.75 533.24085,306.58 522.89085,300.62 514.47086,292.86 506.04086,285.1 499.57085,275.67 495.06085,264.56 490.55086,253.45 488.30086,240.96 488.30086,227.07 488.30086,213.18 490.55086,200.32 495.06085,188.96 499.57085,177.61 506.04086,167.93 514.47086,159.92 522.90085,151.92 533.19085,145.75 545.35086,141.42 557.50085,137.09 571.13085,134.93 586.23086,134.93 597.40085,134.93 607.01085,135.58 615.05085,136.89 623.09086,138.2 630.24085,139.75 636.52085,141.55 636.13085,145.31 635.29085,148.78 634.02085,151.96 632.74085,155.15 631.23086,158.54 629.46086,162.13 626.52085,161.32 623.68085,160.58 620.93085,159.93 618.18085,159.28 615.24085,158.7 612.11086,158.21 608.97086,157.72 605.49085,157.35 601.67085,157.11 597.85086,156.87 593.48086,156.74 588.58086,156.74 567.21086,156.74 550.60086,162.79 538.74085,174.87 526.88085,186.96 520.95086,204.36 520.95086,227.07 520.95086,238.67 522.61086,248.72 525.95086,257.21 529.28085,265.71 533.99085,272.73 540.07086,278.28 546.14085,283.84 553.45086,288 561.98086,290.78 570.51085,293.56 580.07086,294.95 590.65085,294.95 598.88085,294.95 606.33086,294.38 613.00085,293.23 619.66085,292.09 625.94085,290.45 631.82086,288.33 Z"
     id="path12" />
  <path
     id="path30"
     d="M 753.8418,136.88086 C 750.70179,136.88086 747.6607,136.95916 744.72069,137.11914 741.7807,137.28914 739.04022,137.52937 736.49023,137.85938 L 667.68164,314.06055 C 669.84163,314.39055 672.24063,314.63078 674.89062,314.80078 677.54062,314.96078 680.23046,315.03906 682.98046,315.03906 685.53047,315.03906 688.08086,314.96076 690.63085,314.80078 693.17085,314.63078 695.72149,314.39055 698.27147,314.06055 L 712.68164,273.38086 H 792.96093 L 807.66016,314.06055 C 810.01015,314.39055 812.51015,314.63078 815.16016,314.80078 817.80016,314.96078 820.40116,315.03906 822.95116,315.03906 825.70116,315.03906 828.54047,314.96076 831.48046,314.80078 834.42047,314.63078 837.06992,314.39055 839.41991,314.06055 L 770.90039,137.85938 C 768.15039,137.52937 765.31109,137.27914 762.37108,137.11914 759.43109,136.95914 756.58179,136.88086 753.8418,136.88086 Z M 752.66991,161.63086 785.02147,251.57031 H 720.62108 Z" />
  <path
     id="path31"
     d="M 925.28125,135.16016 C 916.26125,135.16016 907.05062,135.44953 897.64062,136.01953 888.23063,136.59953 880.19124,137.20937 873.53125,137.85938 L 873.52125,137.84938 V 314.05055 C 879.99126,314.86055 887.72977,315.56063 896.74977,316.13063 905.76976,316.70063 914.88132,316.99 924.10132,316.99 961.15133,316.99 989.04148,309.55922 1007.7616,294.68922 1026.4816,279.82922 1035.8416,255.73008 1035.8416,226.32008 1035.8416,196.91008 1026.6814,174.35946 1008.3514,158.67946 990.02133,142.99946 962.33101,135.15993 925.28102,135.15993 Z M 927.3418,157.44922 C 938.7118,157.44922 949.10172,158.68086 958.51171,161.13086 967.92171,163.59086 976.01148,167.54953 982.77147,173.01953 989.53147,178.49953 994.76999,185.5607 998.5,194.2207 1002.22,202.8807 1004.0918,213.33984 1004.0918,225.58984 1004.0918,238.98984 1002.22,250.13906 998.5,259.03906 994.76999,267.94906 989.48108,275.01023 982.62108,280.24023 975.76108,285.47023 967.5803,289.18063 958.0703,291.39062 948.5603,293.60063 938.03093,294.69922 926.46093,294.69922 921.95093,294.69922 917.68992,294.57008 913.66991,294.33008 909.64991,294.08008 906.26148,293.8007 903.52147,293.4707 V 293.4607 158.42945 C 906.86148,157.93945 910.73063,157.65007 915.14062,157.57007 919.55062,157.49007 923.6118,157.44898 927.3418,157.44898 Z" />
  <path
     d="M 1199.6509,222.9 C 1202.0009,222.57 1204.4509,222.33 1207.0009,222.16 1209.5509,222 1212.1009,221.92 1214.6409,221.92 1217.1809,221.92 1219.7409,222 1222.2909,222.16 1224.8409,222.32 1227.1909,222.57 1229.3509,222.9 V 308.91 C 1225.2309,310.38 1220.7209,311.65 1215.8209,312.71 1210.9209,313.77 1205.8209,314.59 1200.5309,315.16 1195.2409,315.73 1189.9409,316.18 1184.6509,316.51 1179.3609,316.84 1174.3609,317 1169.6509,317 1153.9609,317 1139.8509,314.96 1127.3009,310.87 1114.7509,306.79 1104.1609,300.87 1095.5409,293.1 1086.9109,285.34 1080.2909,275.91 1075.6909,264.8 1071.0809,253.69 1068.7809,241.11 1068.7809,227.06 1068.7809,213.01 1071.1309,200.31 1075.8409,188.95 1080.5409,177.6 1087.2609,167.92 1095.9809,159.91 1104.7009,151.91 1115.0909,145.74 1127.1509,141.41 1139.2109,137.08 1152.5909,134.92 1167.2909,134.92 1178.4609,134.92 1188.1709,135.53 1196.4009,136.76 1204.6309,137.98 1212.0809,139.66 1218.7509,141.78 1218.3609,145.54 1217.5209,149.01 1216.2509,152.2 1214.9709,155.39 1213.4609,158.78 1211.6909,162.37 1206.2009,160.9 1200.2709,159.59 1193.9009,158.45 1187.5309,157.31 1179.5409,156.73 1169.9309,156.73 1159.5409,156.73 1150.0809,158.28 1141.5509,161.39 1133.0209,164.49 1125.7709,169.03 1119.7909,174.99 1113.8109,180.96 1109.1509,188.31 1105.8209,197.04 1102.4809,205.78 1100.8209,215.79 1100.8209,227.06 1100.8209,238.33 1102.5309,248.67 1105.9709,257.08 1109.4009,265.5 1114.2509,272.52 1120.5309,278.15 1126.8009,283.79 1134.2009,287.95 1142.7309,290.65 1151.2609,293.35 1160.7109,294.69 1171.1109,294.69 1177.3809,294.69 1182.8709,294.41 1187.5809,293.83 1192.2809,293.26 1196.3009,292.57 1199.6409,291.75 V 222.89 Z"
     id="path15" />
  <path
     d="M 1276.6909,137.62 C 1281.0009,137.29 1284.9209,136.97 1288.4509,136.64 1291.9809,136.31 1295.4609,136.03 1298.8909,135.78 1302.3209,135.54 1305.9009,135.33 1309.6209,135.17 1313.3409,135.01 1317.4609,134.92 1321.9709,134.92 1331.9709,134.92 1341.8709,135.74 1351.6709,137.37 1361.4709,139 1370.2009,141.87 1377.8409,145.95 1385.4909,150.04 1391.7109,155.55 1396.5109,162.49 1401.3109,169.44 1403.7109,178.22 1403.7109,188.83 1403.7109,195.2 1402.4309,201 1399.8909,206.23 1397.3409,211.46 1394.1109,216.12 1390.1909,220.2 1386.2709,224.29 1381.8109,227.84 1376.8109,230.86 1371.8109,233.89 1366.9609,236.37 1362.2509,238.33 L 1358.7209,239.8 1420.1809,314.05 C 1414.8909,314.54 1408.9109,314.79 1402.2409,314.79 1396.9509,314.79 1391.6509,314.55 1386.3609,314.05 L 1318.7209,232.45 V 231.47 L 1321.0709,230.98 C 1326.3609,229.84 1331.9509,228.28 1337.8309,226.32 1343.7109,224.36 1349.1509,221.79 1354.1509,218.6 1359.1509,215.41 1363.3109,211.58 1366.6509,207.08 1369.9809,202.59 1371.6509,197.16 1371.6509,190.78 1371.6509,179.02 1367.4809,170.28 1359.1509,164.56 1350.8209,158.84 1339.5909,155.98 1325.4809,155.98 1322.1409,155.98 1319.0609,156.06 1316.2209,156.23 1313.3809,156.39 1310.1909,156.64 1306.6609,156.97 V 314.05 C 1304.5009,314.21 1302.1009,314.38 1299.4509,314.54 1296.8009,314.7 1294.3009,314.78 1291.9509,314.78 1289.6009,314.78 1287.0509,314.74 1284.3009,314.66 1281.5509,314.58 1279.0109,314.37 1276.6509,314.05 V 137.61 Z"
     id="path16" />
  <path
     id="path32"
     d="M 1530.1817,134.93945 C 1514.8917,134.93945 1501.6505,137.23078 1490.4805,141.80078 1479.3005,146.37078 1470.0414,152.69906 1462.6914,160.78906 1455.3414,168.86906 1449.8407,178.47008 1446.2207,189.58008 1442.5907,200.69008 1440.7813,212.85984 1440.7813,226.08984 1440.7813,239.31984 1442.5907,251.48961 1446.2207,262.59961 1449.8507,273.70961 1455.3414,283.30063 1462.6914,291.39062 1470.0414,299.48063 1479.3105,305.76977 1490.4805,310.25977 1501.6505,314.74977 1514.8917,317 1530.1817,317 1545.4717,317 1558.7109,314.74977 1569.8809,310.25977 1581.0609,305.76977 1590.32,299.48062 1597.67,291.39062 1605.02,283.31063 1610.4603,273.70961 1613.9903,262.59961 1617.5203,251.49961 1619.2813,239.31984 1619.2813,226.08984 1619.2813,212.85984 1617.5203,200.69008 1613.9903,189.58008 1610.4603,178.48008 1605.02,168.87906 1597.67,160.78906 1590.32,152.70906 1581.0509,146.38078 1569.8809,141.80078 1558.7009,137.23078 1545.4717,134.93945 1530.1817,134.93945 Z M 1530.1817,156.9707 C 1539.9817,156.9707 1548.4611,158.56 1555.6211,161.75 1562.7711,164.93 1568.7102,169.5107 1573.4102,175.4707 1578.1202,181.4407 1581.65,188.6993 1584,197.2793 1586.35,205.8493 1587.5313,215.28031 1587.5313,226.07031 1587.5313,236.86031 1586.35,246.50023 1584,254.99023 1581.64,263.49023 1578.1102,270.76078 1573.4102,276.80078 1568.7102,282.85078 1562.7711,287.46039 1555.6211,290.65039 1548.4611,293.84039 1539.9817,295.42969 1530.1817,295.42969 1520.3717,295.42969 1511.8903,293.84039 1504.7403,290.65039 1497.5803,287.46039 1491.6612,282.85078 1486.9512,276.80078 1482.2412,270.76078 1478.7114,263.49023 1476.3614,254.99023 1474.0114,246.49023 1472.8301,236.68031 1472.8301,226.07031 1472.8301,215.46031 1474.0014,205.8593 1476.3614,197.2793 1478.7214,188.6993 1482.2512,181.4407 1486.9512,175.4707 1491.6512,169.5107 1497.5803,164.94 1504.7403,161.75 1511.9003,158.56 1520.3817,156.9707 1530.1817,156.9707 Z" />
  <path
     d="M 1658.0909,137.86 C 1662.8009,137.37 1667.8909,137.12 1673.3809,137.12 1678.8709,137.12 1683.5709,137.36 1688.0809,137.86 V 237.84 C 1688.0809,247.97 1688.8609,256.63 1690.4309,263.82 1692.0009,271.01 1694.5509,276.85 1698.0809,281.34 1701.6109,285.84 1706.2609,289.14 1712.0509,291.26 1717.8309,293.39 1724.9409,294.45 1733.3709,294.45 1741.8009,294.45 1748.8509,293.39 1754.5409,291.26 1760.2209,289.14 1764.8309,285.83 1768.3609,281.34 1771.8909,276.85 1774.4309,271.01 1776.0109,263.82 1777.5809,256.63 1778.3609,247.98 1778.3609,237.84 V 137.86 C 1783.2609,137.37 1788.2609,137.12 1793.3609,137.12 1798.8509,137.12 1803.9509,137.36 1808.6509,137.86 V 242.25 C 1808.6509,254.01 1807.3309,264.55 1804.6809,273.86 1802.0309,283.17 1797.7209,291.01 1791.7409,297.39 1785.7609,303.76 1777.9609,308.62 1768.3609,311.97 1758.7509,315.32 1747.0909,316.99 1733.3709,316.99 1719.6509,316.99 1707.9809,315.31 1698.3809,311.97 1688.7709,308.62 1680.9809,303.76 1675.0009,297.39 1669.0209,291.02 1664.7109,283.18 1662.0609,273.86 1659.4109,264.55 1658.0909,254.01 1658.0909,242.25 Z"
     id="path18" />
  <path
     id="path33"
     d="M 1904.5215,134.91992 C 1900.4115,134.91992 1896.1405,135.00992 1891.7305,135.16992 1887.3205,135.32992 1882.91,135.5393 1878.5,135.7793 1874.08,136.0293 1869.8716,136.31062 1865.8516,136.64062 1861.8316,136.97062 1858.3502,137.28914 1855.4102,137.61914 V 137.63084 314.07029 C 1857.7602,314.39029 1860.2602,314.59967 1862.9102,314.67967 1865.5602,314.75967 1868.0602,314.80076 1870.4102,314.80076 1875.7102,314.80076 1880.7002,314.55053 1885.4102,314.06053 V 250.34959 C 1888.7402,250.67959 1891.83,250.88092 1894.67,250.96092 1897.51,251.04092 1900.7915,251.08006 1904.5215,251.08006 1914.5215,251.08006 1924.3217,250.13975 1933.9317,248.25975 1943.5317,246.37975 1952.1102,243.16006 1959.6602,238.58006 1967.2002,234.01006 1973.2807,227.92029 1977.8907,220.32029 1982.4907,212.72029 1984.8008,202.70951 1984.8008,191.76951 1984.8008,180.82951 1982.6401,171.7192 1978.3301,164.4492 1974.0101,157.1792 1968.1801,151.33967 1960.8301,146.92967 1953.4801,142.51967 1944.95,139.41912 1935.25,137.61912 1925.55,135.81912 1915.3015,134.9199 1904.5215,134.9199 Z M 1904.5115,156.4707 C 1911.5715,156.4707 1918.1307,157.04945 1924.2107,158.18945 1930.2907,159.32945 1935.4905,161.29031 1939.8005,164.07031 1944.1105,166.85031 1947.5009,170.52961 1949.9509,175.09961 1952.4009,179.67961 1953.6306,185.30977 1953.6306,192.00977 1953.6306,199.69977 1952.2108,205.93977 1949.3708,210.75977 1946.5308,215.58977 1942.7505,219.38016 1938.0505,222.16016 1933.3405,224.94016 1928.0012,226.85992 1922.0212,227.91992 1916.0312,228.97992 1910.0014,229.50977 1903.9314,229.50977 1899.4214,229.50977 1895.9904,229.42957 1893.6404,229.26953 1891.2904,229.09953 1888.5399,228.8593 1885.4099,228.5293 L 1885.3999,228.5193 V 157.21071 C 1890.8799,156.71071 1897.4513,156.47047 1904.5113,156.47047 Z" />
  <path
     id="path34"
     d="M 124.74024,40.070312 124.35155,40.119142 H 123.47069 L 123.03125,40.169922 H 122.59179 L 122.20117,40.220702 121.76171,40.269532 H 121.3203 L 120.88085,40.320312 120.49024,40.369142 120.05078,40.419922 119.61132,40.470702 119.16992,40.519532 118.78125,40.570312 118.34179,40.669922 117.90039,40.720702 117.51171,40.769532 117.0703,40.869142 116.63085,40.919922 116.24024,41.019532 115.80078,41.070312 115.36132,41.169922 114.97069,41.269532 114.53125,41.369142 114.09179,41.470704 113.70117,41.570314 113.26171,41.669924 112.87108,41.769534 112.43164,41.869144 112.04102,41.970706 111.60155,42.119144 111.21093,42.220706 110.77147,42.369144 110.38085,42.470706 109.99024,42.619144 109.55078,42.769534 109.16016,42.869144 108.77147,43.019534 108.33007,43.169925 107.94141,43.320315 107.55078,43.470706 107.11132,43.619144 106.72069,43.769534 106.33007,43.919925 105.94141,44.119144 105.55078,44.269534 105.16016,44.470706 104.77147,44.619144 104.38085,44.820315 103.99024,44.970706 103.60155,45.169925 103.21093,45.369144 102.8203,45.519534 102.43164,45.720706 102.04102,45.919925 101.65039,46.119144 101.26171,46.320315 100.87108,46.519534 100.53125,46.769534 100.14063,46.970706 99.749995,47.169925 99.410152,47.419925 99.02148,47.619144 98.681636,47.820315 98.291011,48.070315 97.951167,48.320315 97.560543,48.519534 97.220699,48.769534 96.830074,49.019534 96.49023,49.269534 96.150386,49.519534 95.761714,49.769534 95.419917,50.019534 95.080074,50.269534 94.74023,50.519534 94.400386,50.769534 94.060543,51.019534 93.720699,51.31055 93.380855,51.56055 93.041011,51.81055 92.701167,52.099612 92.361324,52.349612 92.02148,52.640628 91.730464,52.929691 91.390621,53.179691 91.050777,53.470706 90.761714,53.759769 90.419917,54.050784 90.080074,54.339847 89.791011,54.630862 89.499996,54.919925 89.160152,55.210941 88.871089,55.5 88.580074,55.789062 88.24023,56.080078 87.951167,56.419922 87.660152,56.710938 87.371089,57 87.080074,57.339844 86.791011,57.630859 86.499996,57.970703 86.210933,58.259766 85.960933,58.599609 85.669917,58.939453 85.380855,59.230469 85.091793,59.570312 84.841793,59.910156 84.550777,60.25 84.300777,60.539062 84.011714,60.880859 83.761714,61.220703 83.511714,61.560547 83.220699,61.900391 82.970699,62.289062 82.720699,62.630859 82.470699,62.970703 82.220699,63.310547 81.970699,63.650391 81.720699,64.039062 81.470699,64.380859 81.220699,64.720703 81.02148,65.109375 80.77148,65.449219 80.52148,65.839844 80.320308,66.179688 80.070308,66.570312 79.871089,66.960938 7.3007769,192.25 7.1015581,192.64062 6.8515581,193.0293 6.6503862,193.36914 6.4511675,193.75977 6.2499956,194.15039 6.0507769,194.53906 5.8515581,194.88086 5.6503862,195.26953 5.4511675,195.66016 5.2499956,196.05078 5.0507769,196.43945 4.9003862,196.83008 4.7011675,197.2207 4.5507769,197.60938 4.3515581,198 4.2011675,198.39062 3.9999956,198.7793 3.8515581,199.16992 3.7011675,199.60938 3.5507769,200 3.4003862,200.39062 3.2499956,200.7793 3.1015581,201.16992 2.9511675,201.60938 2.8007769,202 2.6503862,202.39062 2.5507772,202.83008 2.4003865,203.2207 2.2499959,203.66016 2.1503869,204.05078 2.0507779,204.43945 1.9003872,204.88086 1.8007782,205.26953 1.7011692,205.71094 1.6015602,206.09961 1.4511696,206.53906 1.3515606,206.92969 1.3007796,207.36914 1.2011706,207.75977 1.1015616,208.19922 0.9999991,208.64062 0.9003901,209.0293 0.8515621,209.4707 0.7499996,209.91016 0.7011716,210.30078 0.6503906,210.74023 0.5507813,211.17969 0.5,211.57031 0.4511719,212.00977 0.4003906,212.44922 0.3515625,212.83984 0.3007813,213.2793 0.25,213.7207 0.2011719,214.16016 0.1503906,214.55078 V 214.99023 L 0.1015625,215.42969 0.0507813,215.86914 V 216.71094 L 0,217.15039 V 221.0293 L 0.0507813,221.4707 V 221.85938 L 0.1015625,222.30078 V 222.74023 L 0.1503906,223.17969 0.2011719,223.57031 V 224.00977 L 0.25,224.44922 0.3007813,224.89062 0.3515625,225.2793 0.4003906,225.7207 0.4511719,226.16016 0.5507813,226.55078 0.6015625,226.99023 0.6503906,227.42969 0.7499996,227.82031 0.8007806,228.25977 0.9003896,228.69922 0.9511706,229.08984 1.0507796,229.5293 1.1503886,229.91992 1.2499976,230.35938 1.3515601,230.80078 1.4511691,231.18945 1.5507781,231.63086 1.6503871,232.01953 1.7499961,232.46094 1.8515586,232.84961 1.9999961,233.28906 2.1015586,233.67969 2.2011676,234.11914 2.3515582,234.50977 2.4511672,234.90039 2.6015578,235.33984 2.7499953,235.73047 2.9003859,236.11914 2.9999949,236.56055 3.1503855,236.94922 3.3007762,237.33984 3.4511668,237.73047 3.6503855,238.16992 3.8007762,238.56055 3.9511668,238.94922 4.1015574,239.33984 4.3007762,239.73047 4.4511668,240.11914 4.6503855,240.50977 4.8007762,240.90039 4.9999949,241.28906 5.2011668,241.67969 5.3515574,242.07031 5.5507762,242.46094 5.7499949,242.84961 5.9511668,243.24023 6.1503855,243.63086 6.3515574,243.9707 6.5507762,244.35938 6.7499949,244.75 6.9999949,245.08984 V 243.71094 L 7.0507759,243.26953 V 242.33984 L 7.1015569,241.84961 7.1503849,241.41016 V 240.91992 L 7.2011659,240.48047 7.2499939,239.99023 7.3007749,239.55078 7.3515559,239.10938 7.4003839,238.61914 7.4511649,238.17969 7.4999929,237.68945 7.5507739,237.25 7.6503829,236.81055 7.7011639,236.32031 7.7499919,235.88086 7.8515544,235.43945 7.9511634,234.94922 7.9999914,234.50977 8.1015539,234.07031 8.2011629,233.58008 8.3007719,233.14062 8.4003809,232.69922 8.4999899,232.21094 8.6015524,231.76953 8.7011614,231.33008 8.8007704,230.89062 8.9003794,230.44922 9.0507701,229.96094 9.1503791,229.51953 9.3007698,229.08008 9.4003788,228.64062 9.5507695,228.19922 9.650376,227.75977 9.800767,227.32031 9.951157,226.88086 10.101548,226.43945 10.249986,226 10.400376,225.56055 10.550767,225.11914 10.701157,224.67969 10.851548,224.24023 11.050767,223.80078 11.201157,223.35938 11.351548,222.9707 11.550767,222.5293 11.701157,222.08984 11.900376,221.65039 12.101548,221.25977 12.300767,220.82031 12.451157,220.38086 12.650376,219.99023 12.851547,219.55078 13.050766,219.10938 13.249985,218.7207 13.451156,218.2793 13.701156,217.89062 13.900375,217.44922 14.101547,217.06055 14.351547,216.66992 14.550766,216.23047 14.800766,215.83984 14.999985,215.44922 15.249985,215.00977 15.451156,214.61914 51.621078,151.94922 51.871078,151.56055 52.121078,151.16992 52.320297,150.7793 52.570297,150.39062 52.820297,150 53.111313,149.60938 53.361313,149.2207 53.611313,148.83008 53.861313,148.43945 54.111313,148.05078 54.400375,147.66016 54.650375,147.26953 54.941391,146.92969 55.191391,146.53906 55.480453,146.15039 55.730453,145.81055 56.021469,145.41992 56.310532,145.08008 56.601547,144.68945 56.89061,144.34961 57.181625,143.96094 57.470688,143.61914 57.761703,143.2793 58.050766,142.89062 58.341782,142.55078 58.630852,142.21094 58.919914,141.86914 59.261711,141.5293 59.550774,141.18945 59.84179,140.84961 60.181633,140.50977 60.470696,140.16992 60.81054,139.83008 61.150383,139.49023 61.441399,139.19922 61.781243,138.85938 62.121086,138.51953 62.46093,138.23047 62.800774,137.89062 63.140618,137.59961 63.431633,137.25977 63.771477,136.9707 64.160149,136.67969 64.499993,136.33984 64.84179,136.05078 65.181633,135.75977 65.521477,135.4707 65.910149,135.17969 66.249993,134.89062 66.59179,134.59961 66.980461,134.31055 67.320305,134.01953 67.71093,133.73047 68.050774,133.48047 68.441399,133.18945 68.830071,132.90039 69.169914,132.65039 69.56054,132.35938 69.951164,132.10938 70.34179,131.85938 70.681633,131.57031 71.070305,131.32031 71.46093,131.07031 71.851555,130.82031 72.240227,130.57031 72.630852,130.32031 73.021477,130.07031 73.410149,129.82031 73.851555,129.57031 74.240227,129.32031 74.630852,129.07031 75.021477,128.86914 75.46093,128.61914 75.851555,128.41992 76.240227,128.16992 76.681633,127.9707 77.070305,127.7207 77.511711,127.51953 77.900383,127.32031 78.34179,127.11914 78.730461,126.91992 79.169914,126.7207 79.56054,126.51953 79.999993,126.32031 80.441399,126.11914 80.830071,125.91992 81.271477,125.76953 81.71093,125.57031 82.150383,125.36914 82.541008,125.2207 82.980461,125.01953 83.419914,124.86914 83.861321,124.7207 84.300774,124.57031 84.740227,124.36914 85.181633,124.2207 85.621086,124.07031 86.06054,123.91992 86.499993,123.76953 86.941399,123.66993 87.380852,123.51954 87.820305,123.36915 88.261711,123.22071 88.701164,123.11915 89.140618,122.97071 89.630855,122.86914 90.070308,122.76954 90.511714,122.61915 90.951167,122.51955 91.390621,122.41995 91.880855,122.32035 92.320308,122.22075 92.761714,122.11919 93.249996,122.01959 93.691402,121.91999 94.130855,121.86919 94.570308,121.76959 95.060543,121.66999 95.499996,121.61919 95.99023,121.51959 96.431636,121.47079 96.871089,121.41999 97.361324,121.32039 97.800777,121.26959 98.291011,121.22079 98.730464,121.16999 99.169917,121.11919 99.660155,121.07039 100.10155,121.01959 H 100.59179 L 101.03125,120.97079 101.52147,120.91999 H 101.96093 L 102.45117,120.86919 H 103.83007 L 104.27147,120.82039 H 251.78124 L 196.65038,216.36922 H 96.410152 L 146.53124,129.42 H 104.81054 L 104.37108,129.4708 H 103.04102 L 102.65039,129.5196 H 102.21093 L 101.77147,129.5704 H 101.33007 L 100.94141,129.6192 100.5,129.67 100.06054,129.7208 H 99.621089 L 99.181636,129.7696 98.791011,129.8204 98.351558,129.92 97.910152,129.9708 97.52148,130.0196 97.080074,130.0704 96.640621,130.17 96.249996,130.2208 95.810543,130.3204 95.371089,130.3692 94.980464,130.47076 94.541011,130.57036 94.101558,130.61916 93.710933,130.72072 93.27148,130.82032 92.880855,130.91992 92.441402,131.01952 92.050777,131.11912 91.611324,131.26951 91.220699,131.36911 90.781246,131.47067 90.390621,131.61911 89.951167,131.72067 89.560543,131.86911 89.121089,131.97067 88.730464,132.11911 88.341793,132.2695 87.900386,132.41989 87.511714,132.51949 87.121089,132.66988 86.681636,132.82027 86.291011,132.97066 85.900386,133.16988 85.511714,133.32027 85.121089,133.47066 84.681636,133.6191 84.291011,133.82027 83.900386,133.97066 83.511714,134.16988 83.121089,134.3691 82.730464,134.51949 82.341793,134.72066 81.951167,134.91988 81.560543,135.1191 81.220699,135.32027 80.830074,135.51949 80.441402,135.72066 80.050777,135.91988 79.660152,136.1191 79.320308,136.32027 78.931636,136.51949 78.541011,136.76949 78.201167,136.97066 77.810543,137.22066 77.470699,137.41988 77.080074,137.66988 76.74023,137.91988 76.351558,138.1191 76.011714,138.3691 75.669917,138.6191 75.281246,138.8691 74.941402,139.1191 74.601558,139.3691 74.261714,139.6191 73.919917,139.8691 73.531246,140.1191 73.191402,140.41012 72.851558,140.66012 72.511714,140.91012 72.169917,141.19918 71.880855,141.44918 71.541011,141.74019 71.201167,141.99019 70.861324,142.27926 70.570308,142.57027 70.230464,142.82027 69.890621,143.10934 69.601558,143.40035 69.261714,143.68941 68.970699,143.98043 68.630855,144.26953 68.341793,144.56055 68.050777,144.84961 67.710933,145.14062 67.419917,145.48047 67.130855,145.76953 66.841793,146.06055 66.550777,146.40039 66.261714,146.68945 65.970699,146.98047 65.681636,147.32031 65.390621,147.66016 65.101558,147.94922 64.810543,148.28906 64.560543,148.63086 64.27148,148.91992 64.02148,149.25977 63.730464,149.59961 63.441402,149.93945 63.191402,150.2793 62.941402,150.61914 62.650386,150.96094 62.400386,151.30078 62.150386,151.64062 61.900386,151.98047 61.650386,152.32031 61.400386,152.66016 61.150386,153.05078 60.900386,153.39062 60.650386,153.73047 60.400386,154.11914 60.150386,154.46094 59.951167,154.84961 59.701167,155.18945 59.499996,155.58008 59.249996,155.91992 59.050777,156.31055 22.880855,218.98047 22.681636,219.32031 22.431636,219.71094 22.230464,220.09961 22.031246,220.49023 21.830074,220.83008 21.630855,221.2207 21.431636,221.60938 21.230464,222 21.031246,222.39062 20.830074,222.7793 20.681636,223.16992 20.480464,223.56055 20.281246,223.94922 20.130855,224.33984 19.931636,224.73047 19.781246,225.11914 19.580074,225.50977 19.431636,225.90039 19.281246,226.28906 19.130855,226.73047 18.980464,227.11914 18.830074,227.50977 18.681636,227.90039 18.531246,228.33984 18.380855,228.73047 18.230464,229.11914 18.130854,229.56055 17.980463,229.94922 17.830073,230.39062 17.730463,230.7793 17.630853,231.2207 17.480462,231.60938 17.380852,232.05078 17.281242,232.43945 17.181632,232.88086 17.031242,233.26953 16.931632,233.71094 16.880852,234.09961 16.781242,234.53906 16.681632,234.98047 16.58007,235.36914 16.53124,235.81055 16.43163,236.25 16.330068,236.64062 16.281238,237.08008 16.230458,237.51953 16.130848,237.91016 16.080068,238.34961 16.031238,238.78906 15.980458,239.17969 15.931628,239.61914 15.880848,240.06055 15.830068,240.5 15.781238,240.89062 15.730458,241.33008 V 241.76953 L 15.681628,242.21094 V 242.65039 L 15.630855,243.03906 V 243.48047 L 15.580075,243.91992 V 247.35938 L 15.630855,247.80078 V 248.24023 L 15.681635,248.67969 V 249.11914 L 15.730465,249.50977 V 249.94922 L 15.781245,250.39062 15.830075,250.83008 15.880855,251.2207 15.931635,251.66016 15.980465,252.09961 16.031245,252.53906 16.080075,252.92969 16.130855,253.36914 16.230465,253.81055 16.281245,254.19922 16.330075,254.64062 16.431637,255.08008 16.531247,255.4707 16.580077,255.91016 16.681639,256.34961 16.781249,256.74023 16.880859,257.17969 16.931639,257.61914 17.031249,258.00977 17.181639,258.44922 17.281249,258.83984 17.380859,259.2793 17.480469,259.66992 17.630855,260.10938 17.730464,260.5 17.830074,260.93945 17.980464,261.33008 18.130855,261.7207 18.230465,262.16016 18.380856,262.55078 18.531247,262.99023 18.681637,263.38086 18.830075,263.76953 18.980465,264.16016 19.130856,264.59961 19.281247,264.99023 19.431637,265.38086 19.580075,265.76953 19.781247,266.16016 19.931637,266.59961 20.130856,266.99023 20.281247,267.38086 20.480465,267.76953 20.681637,268.16016 20.830075,268.55078 21.031247,268.93945 21.230465,269.2793 21.431637,269.66992 21.630856,270.06055 21.830075,270.44922 22.031247,270.83984 22.230465,271.23047 22.431637,271.57031 22.681637,271.96094 22.880856,272.34961 64.210934,343.96094 64.410153,344.30078 64.660153,344.68945 64.861325,345.0293 65.111325,345.41992 65.361325,345.75977 65.560544,346.15039 65.810544,346.49023 66.060544,346.83008 66.310544,347.2207 66.560544,347.56055 66.810544,347.90039 67.060544,348.24023 67.310544,348.63086 67.560544,348.9707 67.810544,349.31055 68.101559,349.65039 68.351559,349.99023 68.640622,350.33008 68.890622,350.66992 69.181637,350.96094 69.431637,351.30078 69.7207,351.64062 70.011715,351.98047 70.261715,352.26953 70.550778,352.60938 70.841794,352.90039 71.130856,353.24023 71.419918,353.5293 71.710934,353.86914 71.999997,354.16016 72.291012,354.5 72.580075,354.78906 72.87109,355.08008 73.210934,355.36914 73.499997,355.66016 73.791012,355.94922 74.130856,356.24023 74.419918,356.5293 74.761715,356.82031 75.050778,357.10938 75.390622,357.40039 75.730465,357.68945 76.021481,357.93945 76.361325,358.23047 76.701168,358.51953 77.041012,358.76953 77.380856,359.06055 77.669918,359.31055 78.011715,359.59961 78.351559,359.84961 78.691403,360.09961 79.080075,360.34961 79.419918,360.59961 79.761715,360.89062 80.101559,361.14062 80.441403,361.39062 80.830075,361.58984 81.169918,361.83984 81.511715,362.08984 81.900387,362.33984 82.240231,362.58984 82.630856,362.78906 82.9707,363.03906 83.361325,363.24023 83.701168,363.49023 84.091794,363.68945 84.480465,363.89062 84.820309,364.14062 85.210934,364.33984 85.601559,364.53906 85.990231,364.74023 86.380856,364.93945 86.7207,365.14062 87.111325,365.33984 87.499997,365.53906 87.890622,365.68945 88.281247,365.89062 88.669918,366.08984 89.060544,366.24023 89.451168,366.43945 89.890622,366.58984 90.281247,366.74023 90.669918,366.93945 91.060544,367.08984 91.451168,367.24023 91.841794,367.39062 92.281247,367.53906 92.669918,367.68945 93.060544,367.83984 93.499997,367.99023 93.890622,368.14062 94.281247,368.24022 94.7207,368.39061 95.111325,368.49021 95.550778,368.6406 95.941403,368.7402 96.380856,368.89059 96.771481,368.99019 97.210934,369.08979 97.601559,369.18939 98.041012,369.28899 98.431637,369.39055 98.87109,369.49015 99.261715,369.58975 99.701165,369.68935 100.14063,369.78895 100.53125,369.83975 100.97069,369.93935 101.41016,369.99015 101.80078,370.08975 102.24024,370.14055 102.68164,370.24015 103.0703,370.28895 103.51171,370.33975 103.95117,370.39055 104.39063,370.43935 104.78125,370.49015 105.22069,370.53895 105.66016,370.58975 H 106.10155 L 106.49024,370.64055 106.93164,370.68935 H 107.37108 L 107.81054,370.74015 H 108.65039 L 109.09179,370.78895 H 183.98046 L 184.41991,370.74015 H 185.26171 L 185.70116,370.68935 H 186.14062 L 186.58007,370.64055 186.97069,370.58975 H 187.41015 L 187.85155,370.53895 188.29101,370.49015 188.68163,370.43935 189.12108,370.39055 189.56054,370.33975 189.99999,370.28895 190.39062,370.24015 190.83007,370.14055 191.27147,370.08975 191.66015,369.99015 192.10155,369.93935 192.54101,369.83975 192.93163,369.78895 193.37108,369.68935 193.81054,369.58975 194.20116,369.49015 194.64062,369.39055 195.03124,369.28899 195.47069,369.18939 195.86132,369.08979 196.30077,368.99019 196.6914,368.89059 197.13085,368.7402 197.52147,368.6406 197.96093,368.49021 198.35155,368.39061 198.79101,368.24022 199.18163,368.14062 199.5703,367.99023 200.01171,367.83984 200.40038,367.68945 200.79101,367.53906 201.23046,367.39062 201.62108,367.24023 202.01171,367.08984 202.40038,366.93945 202.79101,366.74023 203.23046,366.58984 203.62108,366.43945 204.01171,366.24023 204.40038,366.08984 204.79101,365.89062 205.18163,365.68945 205.5703,365.53906 205.96093,365.33984 206.35155,365.14062 206.6914,364.93945 207.08007,364.74023 207.47069,364.53906 207.86132,364.33984 208.24999,364.14062 208.59179,363.89062 208.98046,363.68945 209.37108,363.49023 209.71093,363.24023 210.10155,363.03906 210.4414,362.78906 210.83007,362.58984 211.16991,362.33984 211.56054,362.08984 211.90038,361.83984 212.24023,361.58984 212.63085,361.39062 212.97069,361.14062 213.31054,360.89062 213.65038,360.59961 213.99023,360.34961 214.38085,360.09961 214.72069,359.84961 215.06054,359.59961 215.40038,359.31055 215.74023,359.06055 216.03124,358.76953 216.37108,358.51953 216.71093,358.23047 217.05077,357.93945 217.34179,357.68945 217.68163,357.40039 218.02147,357.10938 218.31054,356.82031 218.65038,356.5293 218.9414,356.24023 219.28124,355.94922 219.5703,355.66016 219.86132,355.36914 220.20116,355.08008 220.49023,354.78906 220.78124,354.5 221.0703,354.16016 221.36132,353.86914 221.65038,353.5293 221.9414,353.24023 222.23046,352.90039 222.52147,352.60938 222.81054,352.26953 223.10155,351.98047 223.35155,351.64062 223.64062,351.30078 223.89062,350.96094 224.18163,350.66992 224.43163,350.33008 224.72069,349.99023 224.97069,349.65039 225.26171,349.31055 225.51171,348.9707 225.76171,348.63086 226.01171,348.24023 226.26171,347.90039 226.51171,347.56055 226.76171,347.2207 227.01171,346.83008 227.26171,346.49023 227.51171,346.15039 227.76171,345.75977 227.96093,345.41992 228.21093,345.0293 228.41015,344.68945 228.66015,344.30078 228.86132,343.96094 249.49999,308.23047 200.85155,218.67969 252.99023,128.24023 308.12108,223.78906 236.33007,348.24023 236.08007,348.63086 235.83007,349.07031 235.58007,349.46094 235.38085,349.84961 235.13085,350.24023 234.84179,350.63086 234.59179,351.01953 234.34179,351.41016 234.09179,351.80078 233.84179,352.18945 233.55077,352.5293 233.30077,352.91992 233.01171,353.31055 232.76171,353.69922 232.47069,354.03906 232.18163,354.42969 231.93163,354.76953 231.64062,355.16016 231.35155,355.5 231.06054,355.89062 230.77147,356.23047 230.48046,356.61914 230.1914,356.96094 229.90038,357.30078 229.61132,357.64062 229.3203,358.0293 229.03124,358.36914 228.6914,358.71094 228.40038,359.05078 228.06054,359.39062 227.77147,359.73047 227.43163,360.07031 227.14062,360.35938 226.80077,360.69922 226.51171,361.03906 226.16991,361.38086 225.83007,361.66992 225.49023,362.00977 225.15038,362.30078 224.81054,362.64062 224.47069,362.92969 224.13085,363.26953 223.79101,363.56055 223.45116,363.84961 223.11132,364.14062 222.77147,364.48047 222.43163,364.76953 222.04101,365.06055 221.70116,365.34961 221.36132,365.64062 220.97069,365.92969 220.63085,366.17969 220.24023,366.4707 219.90038,366.75977 219.51171,367.05078 219.12108,367.30078 218.78124,367.58984 218.39062,367.83984 217.99999,368.13086 217.61132,368.38086 217.27147,368.63086 216.88085,368.91992 216.49023,369.16992 216.10155,369.41992 215.71093,369.66992 215.3203,369.91992 214.93163,370.16992 214.49023,370.41992 214.10155,370.66992 213.71093,370.86914 213.3203,371.11914 212.93163,371.36914 212.49023,371.57031 212.10155,371.82031 211.71093,372.01953 211.27147,372.26953 210.88085,372.4707 210.4414,372.66992 210.05077,372.91992 209.61132,373.11914 209.22069,373.32031 208.78124,373.51953 208.39062,373.7207 207.95116,373.91992 207.51171,374.07031 207.12108,374.26953 206.68163,374.4707 206.24023,374.66992 205.80077,374.82031 205.41015,375.01953 204.97069,375.16992 204.53124,375.32031 204.09179,375.51953 203.65038,375.66992 203.21093,375.82031 202.77147,375.9707 202.33007,376.11914 201.89062,376.26953 201.45116,376.41992 201.01171,376.57031 200.5703,376.7207 200.13085,376.8203 199.6914,376.97069 199.24999,377.11913 198.81054,377.22069 198.3203,377.36913 197.88085,377.47069 197.4414,377.57029 196.99999,377.66989 196.56054,377.82028 196.0703,377.91988 195.63085,378.01948 195.1914,378.11908 194.70116,378.16988 194.26171,378.26948 193.8203,378.36908 193.38085,378.47064 192.89062,378.51944 192.45116,378.61904 191.96093,378.66984 191.52147,378.76944 191.08007,378.82024 190.59179,378.86904 190.15038,378.91984 189.66015,378.97064 189.22069,379.01944 188.78124,379.07024 188.29101,379.11904 187.85155,379.16984 187.36132,379.22064 H 186.91991 L 186.43163,379.26944 185.99023,379.32024 H 185.06054 L 184.5703,379.36904 H 108.60155 L 108.11132,379.32024 H 107.18164 L 106.74024,379.26944 106.25,379.22064 H 105.81054 L 105.37108,379.16984 104.88085,379.11904 104.44141,379.07024 103.95117,379.01944 103.51171,378.97064 103.02147,378.91984 102.58007,378.86904 102.14063,378.82024 101.65039,378.76944 101.21093,378.66984 100.77147,378.61904 100.28125,378.51944 99.841795,378.47064 99.400386,378.36908 98.910152,378.26948 98.470699,378.16988 98.031246,378.11908 97.591793,378.01948 97.101558,377.91988 96.660152,377.82028 96.220699,377.66989 95.781246,377.57029 95.291011,377.47069 94.851558,377.36913 94.410152,377.22069 93.970699,377.11913 93.531246,376.97069 93.091793,376.86913 92.650386,376.72069 92.210933,376.5703 91.77148,376.41991 91.330074,376.26952 90.890621,376.16992 90.451167,376.01953 90.011714,375.82031 89.570308,375.66992 89.130855,375.51953 88.691402,375.36914 88.249996,375.16992 87.810543,375.01953 87.419917,374.86914 86.980464,374.66992 86.541011,374.4707 86.101558,374.32031 85.710933,374.11914 85.27148,373.91992 84.830074,373.7207 84.441402,373.51953 83.999996,373.32031 83.611324,373.11914 83.169917,372.91992 82.781246,372.7207 82.341793,372.51953 81.951167,372.26953 81.511714,372.07031 81.121089,371.82031 80.730464,371.61914 80.341793,371.36914 79.900386,371.16992 80.150386,371.50977 80.351558,371.90039 80.601558,372.24023 80.851558,372.63086 81.050777,372.9707 81.300777,373.31055 81.550777,373.69922 81.800777,374.03906 82.050777,374.38086 82.300777,374.7207 82.550777,375.10938 82.800777,375.44922 83.050777,375.78906 83.341793,376.13086 83.591793,376.4707 83.841793,376.81055 84.130855,377.15039 84.380855,377.43945 84.669917,377.7793 84.919917,378.11914 85.210933,378.46094 85.499996,378.75 85.749996,379.08984 86.041011,379.42969 86.330074,379.7207 86.621089,380.06055 86.910152,380.34961 87.201167,380.64062 87.49023,380.98047 87.781246,381.26953 88.070308,381.56055 88.410152,381.84961 88.701167,382.18945 88.99023,382.48047 89.330074,382.76953 89.621089,383.06055 89.910152,383.34961 90.249996,383.59961 90.541011,383.89062 90.880855,384.17969 91.220699,384.4707 91.511714,384.7207 91.851558,385.00977 92.191402,385.30078 92.531246,385.55078 92.871089,385.83984 93.210933,386.08984 93.499996,386.33984 93.841793,386.63086 94.230464,386.88086 94.570308,387.13086 94.910152,387.38086 95.249996,387.63086 95.591793,387.88086 95.931636,388.13086 96.320308,388.38086 96.660152,388.63086 96.999996,388.88086 97.390621,389.08008 97.730464,389.33008 98.121089,389.58008 98.460933,389.7793 98.851558,390.0293 99.191402,390.23047 99.580074,390.42969 99.970695,390.67969 100.31054,390.88086 100.70117,391.08008 101.09179,391.2793 101.43164,391.48047 101.8203,391.67969 102.21093,391.88086 102.60155,392.08008 102.99024,392.2793 103.38085,392.42969 103.77147,392.63086 104.16016,392.83008 104.55078,392.98047 104.94141,393.17969 105.33007,393.33008 105.72069,393.48047 106.11132,393.67969 106.5,393.83008 106.94141,393.98047 107.33007,394.13086 107.72069,394.2793 108.11132,394.42969 108.55078,394.58008 108.94141,394.73047 109.33007,394.83007 109.77147,394.98046 110.16016,395.13085 110.55078,395.23045 110.99024,395.38084 111.38085,395.48044 111.8203,395.58004 112.21093,395.73043 112.65039,395.83003 113.04102,395.92963 113.48046,396.02923 113.87108,396.13079 114.31054,396.23039 114.70117,396.32999 115.14063,396.38079 115.58007,396.48039 115.97069,396.57999 116.41016,396.63079 116.80078,396.73039 117.24024,396.77919 117.68164,396.88075 118.0703,396.92955 118.51171,396.98035 118.95117,397.02915 119.34179,397.13071 119.78125,397.17951 H 120.22069 L 120.66016,397.23031 121.05078,397.27911 121.49024,397.32991 121.93164,397.38071 H 122.37108 L 122.76171,397.42951 H 123.20117 L 123.64063,397.48031 H 272.53125 L 272.97069,397.42951 H 273.36133 L 273.80077,397.38071 H 274.24023 L 274.68163,397.32991 275.12108,397.27911 275.51171,397.23031 275.95116,397.17951 276.39062,397.13071 276.83008,397.07991 277.22069,397.02911 277.66015,396.98031 278.10156,396.92951 278.49023,396.88071 278.93163,396.77915 279.37108,396.73035 279.76171,396.63075 280.20116,396.57995 280.64062,396.48035 281.03125,396.38075 281.47069,396.32995 281.91015,396.23035 282.30077,396.13075 282.74023,396.02919 283.13085,395.92959 283.57031,395.82999 283.96093,395.6796 284.40038,395.58 284.79102,395.4804 285.23046,395.33001 285.62108,395.23041 286.06054,395.08002 286.45116,394.98042 286.84179,394.83003 287.28125,394.67964 287.66991,394.52925 288.06054,394.38081 288.5,394.27925 288.89062,394.13081 289.28125,393.92964 289.66991,393.77925 290.11133,393.63081 290.5,393.48042 290.89062,393.27925 291.28125,393.13081 291.66991,392.98042 292.06054,392.77925 292.45116,392.58003 292.84179,392.42964 293.23046,392.23042 293.62108,392.02925 294.01171,391.83003 294.40038,391.63081 294.79102,391.42964 295.13085,391.23042 295.52147,391.02925 295.91015,390.83003 296.30077,390.63081 296.64062,390.38081 297.03125,390.17964 297.41991,389.98042 297.76171,389.73042 298.15038,389.52925 298.49023,389.27925 298.88085,389.02925 299.22069,388.83003 299.56054,388.58003 299.95116,388.33003 300.29102,388.08003 300.63085,387.83003 300.97069,387.58003 301.36133,387.33003 301.70116,387.08003 302.04102,386.83003 302.38085,386.53901 302.72069,386.28901 303.06054,386.03901 303.40038,385.74995 303.74023,385.49995 304.08008,385.21089 304.37108,384.96089 304.71093,384.66987 305.05077,384.38081 305.34179,384.08979 305.68163,383.83979 306.02147,383.55073 306.31054,383.25972 306.65038,382.97065 306.9414,382.67964 307.23046,382.39057 307.57031,382.09956 307.86133,381.75972 308.15038,381.47065 308.4414,381.17964 308.73046,380.89057 309.07031,380.55073 309.36133,380.25972 309.65038,379.91987 309.90038,379.63081 310.1914,379.28901 310.48046,378.99995 310.77147,378.66011 311.06054,378.32026 311.31054,378.02925 311.60156,377.6894 311.85156,377.34956 312.14062,377.00972 312.39062,376.66987 312.68163,376.33003 312.93163,375.99018 313.18163,375.65034 313.43163,375.3105 313.72069,374.97065 313.97069,374.63081 314.22069,374.24018 314.47069,373.90034 314.72069,373.5605 314.91991,373.22065 315.16991,372.83003 315.41991,372.49018 315.66991,372.09956 315.87108,371.75972 316.12108,371.36909 316.32031,371.02925 316.57031,370.64057 404.33008,218.47065 H 311.18944 L 254.96093,120.97065 301.59179,40.070262 Z M 96.591793,221.68945 H 196.83007 L 243.99999,308.64062 H 146.71093 Z" />
  <path
     id="line20"
     style="fill:none;stroke:#000000;stroke-width:3;stroke-miterlimit:10"
     d="M 2333.441,15.4 2093.3609,426.67001" />
</svg>
