<?xml version="1.0" encoding="UTF-8" standalone="no"?>
<svg
   id="Layer_1"
   data-name="Layer 1"
   viewBox="0 0 18136913 186502.55"
   version="1.1"
   width="18136914"
   height="186502.55"
   xmlns="http://www.w3.org/2000/svg"
   xmlns:svg="http://www.w3.org/2000/svg">
  <defs
     id="defs20" />
  <circle
     cx="945.75348"
     cy="12.780018"
     r="55.669998"
     stroke="#000000"
     stroke-miterlimit="10"
     id="circle1" />
  <circle
     cx="1074.8535"
     cy="12.780018"
     r="55.669998"
     stroke="#000000"
     stroke-miterlimit="10"
     id="circle2" />
  <circle
     cx="1140.2334"
     cy="132.61002"
     r="55.669998"
     stroke="#000000"
     stroke-miterlimit="10"
     id="circle3" />
  <circle
     cx="1006.4734"
     cy="132.61002"
     r="55.669998"
     stroke="#000000"
     stroke-miterlimit="10"
     id="circle4" />
  <path
     d="m 1504.0135,-22.959989 c -11.71,-10.81 -26.12,-17.11 -45.03,-17.11 -36.47,0 -54.93,26.57 -54.93,54.93 0,31.97 23.87,55.38 56.74,55.38 12.16,0 28.37,-3.6 43.23,-17.11 v 53.579999 c -10.81,5.4 -27.92,12.16 -50.43,12.16 -30.62,0 -57.64,-11.71 -75.2,-28.369999 -14.86,-13.96 -31.07,-38.27 -31.07,-74.75 0,-34.22 13.96,-61.69 33.77,-79.25 23.87,-21.16 51.33,-25.21 70.24,-25.21 20.26,0 36.92,4.05 52.68,11.71 v 54.03 z"
     id="path6" />
  <path
     id="path7"
     d="m 1632.3436,-88.699519 c -57.64,0 -96.8106,46.39031 -96.8106,103.57031 0,57.18 39.6198,104.009769 99.5098,104.009769 13.96,0 40.0806,-3.15149 59.8906,-31.521489 v 25.210939 h 54.9297 V -82.400689 h -54.9297 v 25.2207 c -18.46,-28.82 -47.7298,-31.51953 -62.5898,-31.51953 z m 13.9707,48.62891 c 31.52,0 54.0293,23.85968 54.0293,54.92968 0,31.07 -22.4993,55.38086 -54.0293,55.38086 -31.53,0 -54.041,-24.31086 -54.041,-55.38086 0,-31.07 22.521,-54.92968 54.041,-54.92968 z" />
  <path
     id="path27"
     d="m 1951.5936,-215.67999 v 158.500001 c -18.46,-28.82 -47.7299,-31.51953 -62.5899,-31.51953 -57.64,0 -96.8105,46.39031 -96.8105,103.57031 0,57.18 39.6198,104.009769 99.5098,104.009769 13.96,0 40.0806,-3.15149 59.8906,-31.521489 v 25.210939 h 54.9297 v -328.25 z m -48.6192,175.609381 c 31.52,0 54.0293,23.85968 54.0293,54.92968 0,31.07 -22.4993,55.38086 -54.0293,55.38086 -31.53,0 -54.041,-24.31086 -54.041,-55.38086 0,-31.07 22.521,-54.92968 54.041,-54.92968 z" />
  <path
     id="path28"
     d="m 2177.1834,-88.699519 c -36.02,0 -54.9302,19.35953 -63.4902,31.51953 v -25.2207 h -54.9297 V 215.67939 h 54.9297 V 87.359071 c 21.61,29.269999 49.0798,31.521489 62.5898,31.521489 28.82,0 51.3314,-11.25094 66.1914,-25.210939 11.26,-10.81 30.6192,-34.66883 30.6192,-78.79883 0,-38.73 -14.8596,-63.04117 -29.2696,-77.45117 -22.06,-22.07 -49.5306,-26.11914 -66.6406,-26.11914 z m -14.8594,48.60937 c 13.05,0 27.4592,4.95094 37.3692,13.96094 10.81,10.36 16.6601,26.56851995 16.6601,40.97852 0,14.41 -5.3993,30.62164 -17.1093,41.43164 -7.2,6.76 -18.91,13.95898 -36.92,13.95898 -17.11,0 -28.8214,-6.76054 -36.0214,-13.06054 -10.81,-9.45001 -18.0098,-24.31032 -18.0098,-42.32032 0,-18.0100001 6.3009,-31.5189 18.4609,-41.8789 v -0.01 c 9.91,-9.01 21.1603,-13.06055 35.5703,-13.06055 z" />
  <path
     d="m 2315.4235,-82.399989 h 54.93 v 29.27 c 8.56,-16.66 20.26,-24.77 24.32,-27.02 8.55,-5.4 19.36,-8.55 32.42,-8.55 9.46,0 17.11,2.25 23.41,4.5 l -7.2,51.33 c -7.21,-4.95 -14.41,-7.2 -25.67,-7.2 -10.36,0 -25.66,2.25 -36.47,15.76 -10.36,13.06 -10.81,29.7199999 -10.81,43.22 v 93.659999 h -54.93 z"
     id="path10" />
  <path
     id="path29"
     d="m 2574.7733,-88.699519 c -36.93,0 -62.1389,12.15875 -78.7989,27.46875 -19.36,17.56 -32.8711,45.03078 -32.8711,76.55078 0,31.52 13.5111,58.53961 32.8711,76.09961 16.66,15.309999 41.8689,27.470699 78.7989,27.470699 36.93,0 62.1407,-12.1607 78.8007,-27.470699 19.36,-17.56 32.8692,-44.12961 32.8692,-76.09961 0,-31.97 -13.5092,-58.99078 -32.8692,-76.55078 -16.66,-15.31 -41.8707,-27.46875 -78.8007,-27.46875 z m 0.01,48.62891 c 31.51,0 54.9297,24.76085 54.9297,55.38085 0,29.72 -22.9697,54.92969 -54.9297,54.92969 -31.96,0 -54.9297,-24.31969 -54.9297,-54.92969 0,-30.61 23.4197,-55.38085 54.9297,-55.38085 z" />
  <path
     id="path32"
     d="m -41.685737,-80.740539 c -15.29,0 -28.5312,2.29133 -39.7012,6.86133 -11.18,4.57 -20.439103,10.89828 -27.789103,18.98828 -7.35,8.08 -12.8507,17.68102 -16.4707,28.79102 -3.63,11.11 -5.4394,23.2797599 -5.4394,36.50976 0,13.23 1.8094,25.39977 5.4394,36.50977 3.63,11.11 9.1207,20.70102 16.4707,28.79101 7.35,8.09001 16.619103,14.37915 27.789103,18.86915 11.17,4.49 24.4112,6.740229 39.7012,6.740229 15.29,0 28.5292,-2.250229 39.6992001,-6.740229 11.18,-4.49 20.4390999,-10.77915 27.7890999,-18.86915 7.35,-8.07999 12.7903,-17.68101 16.3203,-28.79101 3.53,-11.1 5.291,-23.27977 5.291,-36.50977 0,-13.2300001 -1.761,-25.39976 -5.291,-36.50976 -3.53,-11.1 -8.9703,-20.70102 -16.3203,-28.79102 -7.35,-8.08 -16.6190999,-14.40828 -27.7890999,-18.98828 -11.1800001,-4.57 -24.4092001,-6.86133 -39.6992001,-6.86133 z m 0,22.03125 c 9.8,0 18.2794,1.5893 25.4394,4.7793 7.1500001,3.18 13.0891001,7.7607 17.7891001,13.7207 4.71,5.97 8.2398,13.2286 10.5897999,21.8086 2.35,8.5699999 3.5313,18.00100995 3.5313,28.79101 0,10.79 -1.1813,20.42992 -3.5313,28.91992 -2.3599999,8.5 -5.8897999,15.77055 -10.5897999,21.81055 -4.7,6.05 -10.6391,10.65961 -17.7891001,13.84961 -7.16,3.19 -15.6394,4.7793 -25.4394,4.7793 -9.81,0 -18.2914,-1.5893 -25.4414,-4.7793 -7.16,-3.19 -13.0791,-7.79961 -17.7891,-13.84961 -4.71,-6.04 -8.2398,-13.31055 -10.5898,-21.81055 -2.35,-8.5 -3.5313,-18.30992 -3.5313,-28.91992 0,-10.61000005 1.1713,-20.2110101 3.5313,-28.79101 2.36,-8.58 5.8898,-15.8386 10.5898,-21.8086 4.7,-5.96 10.6291,-10.5307 17.7891,-13.7207 7.16,-3.19 15.6414,-4.7793 25.4414,-4.7793 z" />
  <path
     d="m 86.223463,-77.819989 c 4.71,-0.49 9.8,-0.74 15.289997,-0.74 5.49,0 10.19,0.24 14.7,0.74 v 99.98 c 0,10.13 0.78,18.79 2.35,25.98 1.57,7.19 4.12,13.03 7.65,17.52 3.53,4.5 8.18,7.8 13.97,9.92 5.78,2.13 12.89,3.19 21.32,3.19 8.43,0 15.48,-1.06 21.17,-3.19 5.68,-2.12 10.29,-5.43 13.82,-9.92 3.53,-4.49 6.07,-10.33 7.65,-17.52 1.57,-7.19 2.35,-15.84 2.35,-25.98 v -99.98 c 4.9,-0.49 9.9,-0.74 15,-0.74 5.49,0 10.59,0.24 15.29,0.74 v 104.39 c 0,11.76 -1.32,22.3 -3.97,31.61 -2.65,9.31 -6.96,17.15 -12.94,23.53 -5.98,6.37 -13.78,11.23 -23.38,14.58 -9.61,3.35 -21.27,5.019999 -34.99,5.019999 -13.72,0 -25.39,-1.679999 -34.99,-5.019999 -9.61,-3.35 -17.4,-8.21 -23.38,-14.58 -5.979997,-6.37 -10.289997,-14.21 -12.939997,-23.53 -2.65,-9.31 -3.97,-19.85 -3.97,-31.61 z"
     id="path18" />
  <path
     id="path33"
     d="m 332.65406,-80.760069 c -4.11,0 -8.381,0.09 -12.791,0.25 -4.41,0.16 -8.8205,0.36938 -13.2305,0.60938 -4.42,0.25 -8.6284,0.53132 -12.6484,0.86132 -4.02,0.33 -7.5014,0.64852 -10.4414,0.97852 v 0.0117 176.43945 c 2.35,0.32 4.85,0.52938 7.5,0.60938 2.65,0.08 5.15,0.12109 7.5,0.12109 5.3,0 10.29,-0.25023 15,-0.74023 v -63.71094 c 3.33,0.33 6.4198,0.53133 9.2598,0.61133 2.84,0.08 6.1215,0.11914 9.8515,0.11914 10,0 19.8002,-0.94031 29.4102,-2.82031 9.6,-1.88 18.1785,-5.09969 25.7285,-9.67969 7.54,-4.57 13.6205,-10.65977 18.2305,-18.2597701 4.6,-7.6 6.9101,-17.6107799 6.9101,-28.5507799 0,-10.94 -2.1607,-20.05031 -6.4707,-27.32031 -4.32,-7.27 -10.15,-13.10953 -17.5,-17.51953 -7.35,-4.41 -15.8801,-7.51055 -25.5801,-9.31055 -9.7,-1.8 -19.9485,-2.69922 -30.7285,-2.69922 z m -0.01,21.55078 c 7.06,0 13.6192,0.57875 19.6992,1.71875 6.08,1.14 11.2798,3.10086 15.5898,5.88086 4.31,2.78 7.7004,6.4593 10.1504,11.0293 2.45,4.58 3.6797,10.21016 3.6797,16.91016 0,7.69 -1.4198,13.9299999 -4.2598,18.7499999 -2.84,4.83000005 -6.6203,8.62039 -11.3203,11.40039 -4.71,2.78 -10.0493,4.6997601 -16.0293,5.7597601 -5.99,1.06 -12.0198,1.58985 -18.0898,1.58985 -4.51,0 -7.941,-0.0802 -10.291,-0.24024 -2.35,-0.17 -5.1005,-0.41023 -8.2305,-0.74023 l -0.01,-0.01 v -71.30859 c 5.48,-0.5 12.0514,-0.74024 19.1114,-0.74024 z" />
  <line
     stroke="#000000"
     stroke-width="3"
     fill="none"
     stroke-miterlimit="10"
     x1="761.57355"
     y1="-200.27998"
     x2="521.49347"
     y2="210.99002"
     id="line20" />
</svg>
