<?xml version="1.0" encoding="UTF-8" standalone="no"?>
<svg
   id="Layer_1"
   data-name="Layer 1"
   viewBox="0 0 18136913 186502.55"
   version="1.1"
   width="18136914"
   height="186502.55"
   xmlns="http://www.w3.org/2000/svg"
   xmlns:svg="http://www.w3.org/2000/svg">
  <defs
     id="defs20" />
  <g
     id="g35"
     transform="translate(-1572.2365,-216.17999)">
    <circle
       cx="2517.99"
       cy="228.96001"
       r="55.669998"
       stroke="#000000"
       stroke-miterlimit="10"
       id="circle1" />
    <circle
       cx="2647.0901"
       cy="228.96001"
       r="55.669998"
       stroke="#000000"
       stroke-miterlimit="10"
       id="circle2" />
    <circle
       cx="2712.47"
       cy="348.79001"
       r="55.669998"
       stroke="#000000"
       stroke-miterlimit="10"
       id="circle3" />
    <circle
       cx="2578.71"
       cy="348.79001"
       r="55.669998"
       stroke="#000000"
       stroke-miterlimit="10"
       id="circle4" />
    <circle
       cx="2712.47"
       cy="107.44"
       r="55.669998"
       stroke="#000000"
       stroke-miterlimit="10"
       id="circle5" />
    <circle
       cx="2578.71"
       cy="107.44"
       r="55.669998"
       stroke="#000000"
       stroke-miterlimit="10"
       id="circle6" />
  </g>
  <g
     id="g34"
     transform="translate(-1572.2365,-216.17999)">
    <path
       d="m 3076.25,193.22 c -11.71,-10.81 -26.12,-17.11 -45.03,-17.11 -36.47,0 -54.93,26.57 -54.93,54.93 0,31.97 23.87,55.38 56.74,55.38 12.16,0 28.37,-3.6 43.23,-17.11 v 53.58 c -10.81,5.4 -27.92,12.16 -50.43,12.16 -30.62,0 -57.64,-11.71 -75.2,-28.37 -14.86,-13.96 -31.07,-38.27 -31.07,-74.75 0,-34.22 13.96,-61.69 33.77,-79.25 23.87,-21.16 51.33,-25.21 70.24,-25.21 20.26,0 36.92,4.05 52.68,11.71 v 54.03 z"
       id="path6" />
    <path
       id="path7"
       d="m 3204.5801,127.48047 c -57.64,0 -96.8106,46.39031 -96.8106,103.57031 0,57.18 39.6198,104.00977 99.5098,104.00977 13.96,0 40.0806,-3.15149 59.8906,-31.52149 V 328.75 h 54.9297 V 133.7793 h -54.9297 V 159 c -18.46,-28.82 -47.7298,-31.51953 -62.5898,-31.51953 z m 13.9707,48.62891 c 31.52,0 54.0293,23.85968 54.0293,54.92968 0,31.07 -22.4993,55.38086 -54.0293,55.38086 -31.53,0 -54.041,-24.31086 -54.041,-55.38086 0,-31.07 22.521,-54.92968 54.041,-54.92968 z" />
    <path
       id="path27"
       d="M 3523.8301,0.5 V 159 c -18.46,-28.82 -47.7299,-31.51953 -62.5899,-31.51953 -57.64,0 -96.8105,46.39031 -96.8105,103.57031 0,57.18 39.6198,104.00977 99.5098,104.00977 13.96,0 40.0806,-3.15149 59.8906,-31.52149 V 328.75 h 54.9297 V 0.5 Z m -48.6192,175.60938 c 31.52,0 54.0293,23.85968 54.0293,54.92968 0,31.07 -22.4993,55.38086 -54.0293,55.38086 -31.53,0 -54.041,-24.31086 -54.041,-55.38086 0,-31.07 22.521,-54.92968 54.041,-54.92968 z" />
    <path
       id="path28"
       d="m 3749.4199,127.48047 c -36.02,0 -54.9302,19.35953 -63.4902,31.51953 V 133.7793 H 3631 v 298.08008 h 54.9297 V 303.53906 c 21.61,29.27 49.0798,31.52149 62.5898,31.52149 28.82,0 51.3314,-11.25094 66.1914,-25.21094 11.26,-10.81 30.6192,-34.66883 30.6192,-78.79883 0,-38.73 -14.8596,-63.04117 -29.2696,-77.45117 -22.06,-22.07 -49.5306,-26.11914 -66.6406,-26.11914 z m -14.8594,48.60937 c 13.05,0 27.4592,4.95094 37.3692,13.96094 10.81,10.36 16.6601,26.56852 16.6601,40.97852 0,14.41 -5.3993,30.62164 -17.1093,41.43164 -7.2,6.76 -18.91,13.95898 -36.92,13.95898 -17.11,0 -28.8214,-6.76054 -36.0214,-13.06054 -10.81,-9.45001 -18.0098,-24.31032 -18.0098,-42.32032 0,-18.01 6.3009,-31.5189 18.4609,-41.8789 v -0.01 c 9.91,-9.01 21.1603,-13.06055 35.5703,-13.06055 z" />
    <path
       d="m 3887.66,133.78 h 54.93 v 29.27 c 8.56,-16.66 20.26,-24.77 24.32,-27.02 8.55,-5.4 19.36,-8.55 32.42,-8.55 9.46,0 17.11,2.25 23.41,4.5 l -7.2,51.33 c -7.21,-4.95 -14.41,-7.2 -25.67,-7.2 -10.36,0 -25.66,2.25 -36.47,15.76 -10.36,13.06 -10.81,29.72 -10.81,43.22 v 93.66 h -54.93 z"
       id="path10" />
    <path
       id="path29"
       d="m 4147.0098,127.48047 c -36.93,0 -62.1389,12.15875 -78.7989,27.46875 -19.36,17.56 -32.8711,45.03078 -32.8711,76.55078 0,31.52 13.5111,58.53961 32.8711,76.09961 16.66,15.31 41.8689,27.4707 78.7989,27.4707 36.93,0 62.1407,-12.1607 78.8007,-27.4707 19.36,-17.56 32.8692,-44.12961 32.8692,-76.09961 0,-31.97 -13.5092,-58.99078 -32.8692,-76.55078 -16.66,-15.31 -41.8707,-27.46875 -78.8007,-27.46875 z m 0.01,48.62891 c 31.51,0 54.9297,24.76085 54.9297,55.38085 0,29.72 -22.9697,54.92969 -54.9297,54.92969 -31.96,0 -54.9297,-24.31969 -54.9297,-54.92969 0,-30.61 23.4197,-55.38085 54.9297,-55.38085 z" />
  </g>
  <g
     id="g36"
     transform="translate(-1572.2365,-216.17999)">
    <path
       d="m 632.18,288.83 c 4.31,7.03 7.06,13.81 8.23,20.34 -8.23,2.94 -16.66,5.07 -25.29,6.37 -8.63,1.31 -17.94,1.96 -27.94,1.96 -15.29,0 -29.07,-2.08 -41.32,-6.25 -12.25,-4.17 -22.6,-10.13 -31.02,-17.89 -8.43,-7.76 -14.9,-17.19 -19.41,-28.3 -4.51,-11.11 -6.76,-23.6 -6.76,-37.49 0,-13.89 2.25,-26.75 6.76,-38.11 4.51,-11.35 10.98,-21.03 19.41,-29.04 8.43,-8 18.72,-14.17 30.88,-18.5 12.15,-4.33 25.78,-6.49 40.88,-6.49 11.17,0 20.78,0.65 28.82,1.96 8.04,1.31 15.19,2.86 21.47,4.66 -0.39,3.76 -1.23,7.23 -2.5,10.41 -1.28,3.19 -2.79,6.58 -4.56,10.17 -2.94,-0.81 -5.78,-1.55 -8.53,-2.2 -2.75,-0.65 -5.69,-1.23 -8.82,-1.72 -3.14,-0.49 -6.62,-0.86 -10.44,-1.1 -3.82,-0.24 -8.19,-0.37 -13.09,-0.37 -21.37,0 -37.98,6.05 -49.84,18.13 -11.86,12.09 -17.79,29.49 -17.79,52.2 0,11.6 1.66,21.65 5,30.14 3.33,8.5 8.04,15.52 14.12,21.07 6.07,5.56 13.38,9.72 21.91,12.5 8.53,2.78 18.09,4.17 28.67,4.17 8.23,0 15.68,-0.57 22.35,-1.72 6.66,-1.14 12.94,-2.78 18.82,-4.9 z"
       id="path12" />
    <path
       id="path30"
       d="m 754.21094,137.38086 c -3.14,0 -6.1811,0.0783 -9.1211,0.23828 -2.94,0.17 -5.68047,0.41023 -8.23046,0.74024 l -68.8086,176.20117 c 2.16,0.33 4.55899,0.57023 7.20899,0.74023 2.65,0.16 5.33984,0.23828 8.08984,0.23828 2.55,0 5.10039,-0.0783 7.65039,-0.23828 2.54,-0.17 5.09063,-0.41023 7.64062,-0.74023 l 14.41016,-40.67969 h 80.2793 l 14.69922,40.67969 c 2.35,0.33 4.85,0.57023 7.5,0.74023 2.64,0.16 5.24101,0.23828 7.79101,0.23828 2.75,0 5.5893,-0.0783 8.5293,-0.23828 2.94,-0.17 5.58945,-0.41023 7.93945,-0.74023 L 771.26953,138.35938 c -2.75,-0.33001 -5.5893,-0.58024 -8.5293,-0.74024 -2.94,-0.16 -5.78929,-0.23828 -8.52929,-0.23828 z m -1.17188,24.75 32.35156,89.93945 h -64.40039 z" />
    <path
       id="path31"
       d="m 925.65039,135.66016 c -9.02,0 -18.23062,0.28937 -27.64062,0.85937 -9.41,0.58 -17.44938,1.18984 -24.10938,1.83985 l -0.01,-0.01 v 176.20117 c 6.47001,0.81 14.20852,1.51008 23.22852,2.08008 9.02,0.57 18.13156,0.85937 27.35156,0.85937 37.05,0 64.94016,-7.43078 83.66023,-22.30078 18.72,-14.86 28.08,-38.95914 28.08,-68.36914 0,-29.41 -9.1602,-51.96062 -27.4902,-67.64062 -18.33003,-15.68 -46.02034,-23.51953 -83.07034,-23.51953 z m 2.06055,22.28906 c 11.37,0 21.75992,1.23164 31.16992,3.68164 9.41,2.46 17.49977,6.41867 24.25976,11.88867 6.76,5.48 11.99852,12.54117 15.72852,21.20117 3.71996,8.66 5.59176,19.11914 5.59176,31.36914 0,13.4 -1.8718,24.54922 -5.59176,33.44922 -3.73,8.91 -9.01891,15.97117 -15.87891,21.20117 -6.86,5.23 -15.04078,8.9404 -24.55078,11.15039 -9.51,2.21001 -20.03937,3.3086 -31.60937,3.3086 -4.51,0 -8.77102,-0.12914 -12.79102,-0.36914 -4.02,-0.25 -7.40843,-0.52938 -10.14844,-0.85938 v -0.01 -135.03125 c 3.34,-0.49 7.20915,-0.77938 11.61915,-0.85938 4.41,-0.08 8.47117,-0.12109 12.20117,-0.12109 z" />
    <path
       d="m 1200.02,223.4 c 2.35,-0.33 4.8,-0.57 7.35,-0.74 2.55,-0.16 5.1,-0.24 7.64,-0.24 2.54,0 5.1,0.08 7.65,0.24 2.55,0.16 4.9,0.41 7.06,0.74 v 86.01 c -4.12,1.47 -8.63,2.74 -13.53,3.8 -4.9,1.06 -10,1.88 -15.29,2.45 -5.29,0.57 -10.59,1.02 -15.88,1.35 -5.29,0.33 -10.29,0.49 -15,0.49 -15.69,0 -29.8,-2.04 -42.35,-6.13 -12.55,-4.08 -23.14,-10 -31.76,-17.77 -8.63,-7.76 -15.25,-17.19 -19.85,-28.3 -4.61,-11.11 -6.91,-23.69 -6.91,-37.74 0,-14.05 2.35,-26.75 7.06,-38.11 4.7,-11.35 11.42,-21.03 20.14,-29.04 8.72,-8 19.11,-14.17 31.17,-18.5 12.06,-4.33 25.44,-6.49 40.14,-6.49 11.17,0 20.88,0.61 29.11,1.84 8.23,1.22 15.68,2.9 22.35,5.02 -0.39,3.76 -1.23,7.23 -2.5,10.42 -1.28,3.19 -2.79,6.58 -4.56,10.17 -5.49,-1.47 -11.42,-2.78 -17.79,-3.92 -6.37,-1.14 -14.36,-1.72 -23.97,-1.72 -10.39,0 -19.85,1.55 -28.38,4.66 -8.53,3.1 -15.78,7.64 -21.76,13.6 -5.98,5.97 -10.64,13.32 -13.97,22.05 -3.34,8.74 -5,18.75 -5,30.02 0,11.27 1.71,21.61 5.15,30.02 3.43,8.42 8.28,15.44 14.56,21.07 6.27,5.64 13.67,9.8 22.2,12.5 8.53,2.7 17.98,4.04 28.38,4.04 6.27,0 11.76,-0.28 16.47,-0.86 4.7,-0.57 8.72,-1.26 12.06,-2.08 v -68.86 z"
       id="path15" />
    <path
       d="m 1277.06,138.12 c 4.31,-0.33 8.23,-0.65 11.76,-0.98 3.53,-0.33 7.01,-0.61 10.44,-0.86 3.43,-0.24 7.01,-0.45 10.73,-0.61 3.72,-0.16 7.84,-0.25 12.35,-0.25 10,0 19.9,0.82 29.7,2.45 9.8,1.63 18.53,4.5 26.17,8.58 7.65,4.09 13.87,9.6 18.67,16.54 4.8,6.95 7.2,15.73 7.2,26.34 0,6.37 -1.28,12.17 -3.82,17.4 -2.55,5.23 -5.78,9.89 -9.7,13.97 -3.92,4.09 -8.38,7.64 -13.38,10.66 -5,3.03 -9.85,5.51 -14.56,7.47 l -3.53,1.47 61.46,74.25 c -5.29,0.49 -11.27,0.74 -17.94,0.74 -5.29,0 -10.59,-0.24 -15.88,-0.74 l -67.64,-81.6 v -0.98 l 2.35,-0.49 c 5.29,-1.14 10.88,-2.7 16.76,-4.66 5.88,-1.96 11.32,-4.53 16.32,-7.72 5,-3.19 9.16,-7.02 12.5,-11.52 3.33,-4.49 5,-9.92 5,-16.3 0,-11.76 -4.17,-20.5 -12.5,-26.22 -8.33,-5.72 -19.56,-8.58 -33.67,-8.58 -3.34,0 -6.42,0.08 -9.26,0.25 -2.84,0.16 -6.03,0.41 -9.56,0.74 v 157.08 c -2.16,0.16 -4.56,0.33 -7.21,0.49 -2.65,0.16 -5.15,0.24 -7.5,0.24 -2.35,0 -4.9,-0.04 -7.65,-0.12 -2.75,-0.08 -5.29,-0.29 -7.65,-0.61 V 138.11 Z"
       id="path16" />
    <path
       id="path32"
       d="m 1530.5508,135.43945 c -15.29,0 -28.5312,2.29133 -39.7012,6.86133 -11.18,4.57 -20.4391,10.89828 -27.7891,18.98828 -7.35,8.08 -12.8507,17.68102 -16.4707,28.79102 -3.63,11.11 -5.4394,23.27976 -5.4394,36.50976 0,13.23 1.8094,25.39977 5.4394,36.50977 3.63,11.11 9.1207,20.70102 16.4707,28.79101 7.35,8.09001 16.6191,14.37915 27.7891,18.86915 11.17,4.49 24.4112,6.74023 39.7012,6.74023 15.29,0 28.5292,-2.25023 39.6992,-6.74023 11.18,-4.49 20.4391,-10.77915 27.7891,-18.86915 7.35,-8.07999 12.7903,-17.68101 16.3203,-28.79101 3.53,-11.1 5.291,-23.27977 5.291,-36.50977 0,-13.23 -1.761,-25.39976 -5.291,-36.50976 -3.53,-11.1 -8.9703,-20.70102 -16.3203,-28.79102 -7.35,-8.08 -16.6191,-14.40828 -27.7891,-18.98828 -11.18,-4.57 -24.4092,-6.86133 -39.6992,-6.86133 z m 0,22.03125 c 9.8,0 18.2794,1.5893 25.4394,4.7793 7.15,3.18 13.0891,7.7607 17.7891,13.7207 4.71,5.97 8.2398,13.2286 10.5898,21.8086 2.35,8.57 3.5313,18.00101 3.5313,28.79101 0,10.79 -1.1813,20.42992 -3.5313,28.91992 -2.36,8.5 -5.8898,15.77055 -10.5898,21.81055 -4.7,6.05 -10.6391,10.65961 -17.7891,13.84961 -7.16,3.19 -15.6394,4.7793 -25.4394,4.7793 -9.81,0 -18.2914,-1.5893 -25.4414,-4.7793 -7.16,-3.19 -13.0791,-7.79961 -17.7891,-13.84961 -4.71,-6.04 -8.2398,-13.31055 -10.5898,-21.81055 -2.35,-8.5 -3.5313,-18.30992 -3.5313,-28.91992 0,-10.61 1.1713,-20.21101 3.5313,-28.79101 2.36,-8.58 5.8898,-15.8386 10.5898,-21.8086 4.7,-5.96 10.6291,-10.5307 17.7891,-13.7207 7.16,-3.19 15.6414,-4.7793 25.4414,-4.7793 z" />
    <path
       d="m 1658.46,138.36 c 4.71,-0.49 9.8,-0.74 15.29,-0.74 5.49,0 10.19,0.24 14.7,0.74 v 99.98 c 0,10.13 0.78,18.79 2.35,25.98 1.57,7.19 4.12,13.03 7.65,17.52 3.53,4.5 8.18,7.8 13.97,9.92 5.78,2.13 12.89,3.19 21.32,3.19 8.43,0 15.48,-1.06 21.17,-3.19 5.68,-2.12 10.29,-5.43 13.82,-9.92 3.53,-4.49 6.07,-10.33 7.65,-17.52 1.57,-7.19 2.35,-15.84 2.35,-25.98 v -99.98 c 4.9,-0.49 9.9,-0.74 15,-0.74 5.49,0 10.59,0.24 15.29,0.74 v 104.39 c 0,11.76 -1.32,22.3 -3.97,31.61 -2.65,9.31 -6.96,17.15 -12.94,23.53 -5.98,6.37 -13.78,11.23 -23.38,14.58 -9.61,3.35 -21.27,5.02 -34.99,5.02 -13.72,0 -25.39,-1.68 -34.99,-5.02 -9.61,-3.35 -17.4,-8.21 -23.38,-14.58 -5.98,-6.37 -10.29,-14.21 -12.94,-23.53 -2.65,-9.31 -3.97,-19.85 -3.97,-31.61 z"
       id="path18" />
    <path
       id="path33"
       d="m 1904.8906,135.41992 c -4.11,0 -8.381,0.09 -12.791,0.25 -4.41,0.16 -8.8205,0.36938 -13.2305,0.60938 -4.42,0.25 -8.6284,0.53132 -12.6484,0.86132 -4.02,0.33 -7.5014,0.64852 -10.4414,0.97852 v 0.0117 176.43945 c 2.35,0.32 4.85,0.52938 7.5,0.60938 2.65,0.08 5.15,0.12109 7.5,0.12109 5.3,0 10.29,-0.25023 15,-0.74023 v -63.71094 c 3.33,0.33 6.4198,0.53133 9.2598,0.61133 2.84,0.08 6.1215,0.11914 9.8515,0.11914 10,0 19.8002,-0.94031 29.4102,-2.82031 9.6,-1.88 18.1785,-5.09969 25.7285,-9.67969 7.54,-4.57 13.6205,-10.65977 18.2305,-18.25977 4.6,-7.6 6.9101,-17.61078 6.9101,-28.55078 0,-10.94 -2.1607,-20.05031 -6.4707,-27.32031 -4.32,-7.27 -10.15,-13.10953 -17.5,-17.51953 -7.35,-4.41 -15.8801,-7.51055 -25.5801,-9.31055 -9.7,-1.8 -19.9485,-2.69922 -30.7285,-2.69922 z m -0.01,21.55078 c 7.06,0 13.6192,0.57875 19.6992,1.71875 6.08,1.14 11.2798,3.10086 15.5898,5.88086 4.31,2.78 7.7004,6.4593 10.1504,11.0293 2.45,4.58 3.6797,10.21016 3.6797,16.91016 0,7.69 -1.4198,13.93 -4.2598,18.75 -2.84,4.83 -6.6203,8.62039 -11.3203,11.40039 -4.71,2.78 -10.0493,4.69976 -16.0293,5.75976 -5.99,1.06 -12.0198,1.58985 -18.0898,1.58985 -4.51,0 -7.941,-0.0802 -10.291,-0.24024 -2.35,-0.17 -5.1005,-0.41023 -8.2305,-0.74023 l -0.01,-0.01 v -71.30859 c 5.48,-0.5 12.0514,-0.74024 19.1114,-0.74024 z" />
  </g>
  <line
     stroke="#000000"
     stroke-width="3"
     fill="none"
     stroke-miterlimit="10"
     x1="761.57355"
     y1="-200.27998"
     x2="521.49347"
     y2="210.99002"
     id="line20" />
</svg>
