<?xml version="1.0" encoding="UTF-8"?>
<svg id="Layer_1" data-name="Layer 1" xmlns="http://www.w3.org/2000/svg" viewBox="0 0 4259.18 432.36">
  <g>
    <g>
      <circle cx="2517.99" cy="228.96" r="55.67" stroke="#000" stroke-miterlimit="10"/>
      <circle cx="2647.09" cy="228.96" r="55.67" stroke="#000" stroke-miterlimit="10"/>
      <circle cx="2712.47" cy="348.79" r="55.67" stroke="#000" stroke-miterlimit="10"/>
      <circle cx="2578.71" cy="348.79" r="55.67" stroke="#000" stroke-miterlimit="10"/>
      <circle cx="2712.47" cy="107.44" r="55.67" stroke="#000" stroke-miterlimit="10"/>
      <circle cx="2578.71" cy="107.44" r="55.67" stroke="#000" stroke-miterlimit="10"/>
    </g>
    <g>
      <path stroke="#000" stroke-miterlimit="10" d="M3076.25,193.22c-11.71-10.81-26.12-17.11-45.03-17.11-36.47,0-54.93,26.57-54.93,54.93,0,31.97,23.87,55.38,56.74,55.38,12.16,0,28.37-3.6,43.23-17.11v53.58c-10.81,5.4-27.92,12.16-50.43,12.16-30.62,0-57.64-11.71-75.2-28.37-14.86-13.96-31.07-38.27-31.07-74.75,0-34.22,13.96-61.69,33.77-79.25,23.87-21.16,51.33-25.21,70.24-25.21,20.26,0,36.92,4.05,52.68,11.71v54.03Z"/>
      <path stroke="#000" stroke-miterlimit="10" d="M3267.17,133.78h54.93v194.97h-54.93v-25.21c-19.81,28.37-45.93,31.52-59.89,31.52-59.89,0-99.51-46.83-99.51-104.01s39.17-103.57,96.81-103.57c14.86,0,44.13,2.7,62.59,31.52v-25.22ZM3164.51,231.04c0,31.07,22.51,55.38,54.04,55.38s54.03-24.31,54.03-55.38-22.51-54.93-54.03-54.93-54.04,23.86-54.04,54.93Z"/>
      <path stroke="#000" stroke-miterlimit="10" d="M3523.83.5h54.93v328.25h-54.93v-25.21c-19.81,28.37-45.93,31.52-59.89,31.52-59.89,0-99.51-46.83-99.51-104.01s39.17-103.57,96.81-103.57c14.86,0,44.13,2.7,62.59,31.52V.5ZM3421.17,231.04c0,31.07,22.51,55.38,54.04,55.38s54.03-24.31,54.03-55.38-22.51-54.93-54.03-54.93-54.04,23.86-54.04,54.93Z"/>
      <path stroke="#000" stroke-miterlimit="10" d="M3685.93,431.86h-54.93V133.78h54.93v25.22c8.56-12.16,27.47-31.52,63.49-31.52,17.11,0,44.58,4.05,66.64,26.12,14.41,14.41,29.27,38.72,29.27,77.45,0,44.13-19.36,67.99-30.62,78.8-14.86,13.96-37.37,25.21-66.19,25.21-13.51,0-40.98-2.25-62.59-31.52v128.33ZM3698.99,189.16c-12.16,10.36-18.46,23.87-18.46,41.88s7.2,32.87,18.01,42.32c7.2,6.3,18.91,13.06,36.02,13.06,18.01,0,29.72-7.2,36.92-13.96,11.71-10.81,17.11-27.02,17.11-41.43s-5.85-30.62-16.66-40.98c-9.91-9.01-24.32-13.96-37.37-13.96-14.41,0-25.66,4.05-35.57,13.06Z"/>
      <path stroke="#000" stroke-miterlimit="10" d="M3887.66,133.78h54.93v29.27c8.56-16.66,20.26-24.77,24.32-27.02,8.55-5.4,19.36-8.55,32.42-8.55,9.46,0,17.11,2.25,23.41,4.5l-7.2,51.33c-7.21-4.95-14.41-7.2-25.67-7.2-10.36,0-25.66,2.25-36.47,15.76-10.36,13.06-10.81,29.72-10.81,43.22v93.66h-54.93v-194.97Z"/>
      <path stroke="#000" stroke-miterlimit="10" d="M4225.81,154.95c19.36,17.56,32.87,44.58,32.87,76.55s-13.51,58.54-32.87,76.1c-16.66,15.31-41.87,27.47-78.8,27.47s-62.14-12.16-78.8-27.47c-19.36-17.56-32.87-44.58-32.87-76.1s13.51-58.99,32.87-76.55c16.66-15.31,41.87-27.47,78.8-27.47s62.14,12.16,78.8,27.47ZM4201.95,231.49c0-30.62-23.42-55.38-54.93-55.38s-54.93,24.77-54.93,55.38,22.97,54.93,54.93,54.93,54.93-25.21,54.93-54.93Z"/>
    </g>
  </g>
  <g>
    <g>
      <path stroke="#000" stroke-miterlimit="10" d="M632.18,288.83c4.31,7.03,7.06,13.81,8.23,20.34-8.23,2.94-16.66,5.07-25.29,6.37-8.63,1.31-17.94,1.96-27.94,1.96-15.29,0-29.07-2.08-41.32-6.25-12.25-4.17-22.6-10.13-31.02-17.89-8.43-7.76-14.9-17.19-19.41-28.3-4.51-11.11-6.76-23.6-6.76-37.49s2.25-26.75,6.76-38.11c4.51-11.35,10.98-21.03,19.41-29.04,8.43-8,18.72-14.17,30.88-18.5,12.15-4.33,25.78-6.49,40.88-6.49,11.17,0,20.78.65,28.82,1.96,8.04,1.31,15.19,2.86,21.47,4.66-.39,3.76-1.23,7.23-2.5,10.41-1.28,3.19-2.79,6.58-4.56,10.17-2.94-.81-5.78-1.55-8.53-2.2-2.75-.65-5.69-1.23-8.82-1.72-3.14-.49-6.62-.86-10.44-1.1-3.82-.24-8.19-.37-13.09-.37-21.37,0-37.98,6.05-49.84,18.13-11.86,12.09-17.79,29.49-17.79,52.2,0,11.6,1.66,21.65,5,30.14,3.33,8.5,8.04,15.52,14.12,21.07,6.07,5.56,13.38,9.72,21.91,12.5,8.53,2.78,18.09,4.17,28.67,4.17,8.23,0,15.68-.57,22.35-1.72,6.66-1.14,12.94-2.78,18.82-4.9Z"/>
      <path stroke="#000" stroke-miterlimit="10" d="M793.33,273.88h-80.28l-14.41,40.68c-2.55.33-5.1.57-7.64.74-2.55.16-5.1.24-7.65.24-2.75,0-5.44-.08-8.09-.24-2.65-.17-5.05-.41-7.21-.74l68.81-176.2c2.55-.33,5.29-.57,8.23-.74,2.94-.16,5.98-.24,9.12-.24,2.74,0,5.59.08,8.53.24,2.94.16,5.78.41,8.53.74l68.52,176.2c-2.35.33-5,.57-7.94.74-2.94.16-5.78.24-8.53.24-2.55,0-5.15-.08-7.79-.24-2.65-.17-5.15-.41-7.5-.74l-14.7-40.68ZM720.99,252.07h64.4l-32.35-89.94-32.05,89.94Z"/>
      <path stroke="#000" stroke-miterlimit="10" d="M873.9,138.36c6.66-.65,14.7-1.26,24.11-1.84,9.41-.57,18.62-.86,27.64-.86,37.05,0,64.74,7.84,83.07,23.52,18.33,15.68,27.49,38.23,27.49,67.64s-9.36,53.51-28.08,68.37c-18.72,14.87-46.61,22.3-83.66,22.3-9.22,0-18.33-.29-27.35-.86-9.02-.57-16.76-1.27-23.23-2.08v-176.2ZM903.89,293.97c2.74.33,6.13.61,10.15.86,4.02.24,8.28.37,12.79.37,11.57,0,22.1-1.1,31.61-3.31,9.51-2.21,17.69-5.92,24.55-11.15,6.86-5.23,12.15-12.29,15.88-21.2,3.72-8.9,5.59-20.05,5.59-33.45,0-12.25-1.87-22.71-5.59-31.37-3.73-8.66-8.97-15.72-15.73-21.2-6.76-5.47-14.85-9.43-24.26-11.89-9.41-2.45-19.8-3.68-31.17-3.68-3.73,0-7.79.04-12.2.12-4.41.08-8.28.37-11.62.86v135.03Z"/>
      <path stroke="#000" stroke-miterlimit="10" d="M1200.02,223.4c2.35-.33,4.8-.57,7.35-.74,2.55-.16,5.1-.24,7.64-.24s5.1.08,7.65.24c2.55.16,4.9.41,7.06.74v86.01c-4.12,1.47-8.63,2.74-13.53,3.8-4.9,1.06-10,1.88-15.29,2.45-5.29.57-10.59,1.02-15.88,1.35-5.29.33-10.29.49-15,.49-15.69,0-29.8-2.04-42.35-6.13-12.55-4.08-23.14-10-31.76-17.77-8.63-7.76-15.25-17.19-19.85-28.3-4.61-11.11-6.91-23.69-6.91-37.74s2.35-26.75,7.06-38.11c4.7-11.35,11.42-21.03,20.14-29.04,8.72-8,19.11-14.17,31.17-18.5,12.06-4.33,25.44-6.49,40.14-6.49,11.17,0,20.88.61,29.11,1.84,8.23,1.22,15.68,2.9,22.35,5.02-.39,3.76-1.23,7.23-2.5,10.42-1.28,3.19-2.79,6.58-4.56,10.17-5.49-1.47-11.42-2.78-17.79-3.92-6.37-1.14-14.36-1.72-23.97-1.72-10.39,0-19.85,1.55-28.38,4.66-8.53,3.1-15.78,7.64-21.76,13.6-5.98,5.97-10.64,13.32-13.97,22.05-3.34,8.74-5,18.75-5,30.02s1.71,21.61,5.15,30.02c3.43,8.42,8.28,15.44,14.56,21.07,6.27,5.64,13.67,9.8,22.2,12.5,8.53,2.7,17.98,4.04,28.38,4.04,6.27,0,11.76-.28,16.47-.86,4.7-.57,8.72-1.26,12.06-2.08v-68.86Z"/>
      <path stroke="#000" stroke-miterlimit="10" d="M1277.06,138.12c4.31-.33,8.23-.65,11.76-.98,3.53-.33,7.01-.61,10.44-.86,3.43-.24,7.01-.45,10.73-.61,3.72-.16,7.84-.25,12.35-.25,10,0,19.9.82,29.7,2.45,9.8,1.63,18.53,4.5,26.17,8.58,7.65,4.09,13.87,9.6,18.67,16.54,4.8,6.95,7.2,15.73,7.2,26.34,0,6.37-1.28,12.17-3.82,17.4-2.55,5.23-5.78,9.89-9.7,13.97-3.92,4.09-8.38,7.64-13.38,10.66-5,3.03-9.85,5.51-14.56,7.47l-3.53,1.47,61.46,74.25c-5.29.49-11.27.74-17.94.74-5.29,0-10.59-.24-15.88-.74l-67.64-81.6v-.98l2.35-.49c5.29-1.14,10.88-2.7,16.76-4.66,5.88-1.96,11.32-4.53,16.32-7.72,5-3.19,9.16-7.02,12.5-11.52,3.33-4.49,5-9.92,5-16.3,0-11.76-4.17-20.5-12.5-26.22-8.33-5.72-19.56-8.58-33.67-8.58-3.34,0-6.42.08-9.26.25-2.84.16-6.03.41-9.56.74v157.08c-2.16.16-4.56.33-7.21.49-2.65.16-5.15.24-7.5.24s-4.9-.04-7.65-.12c-2.75-.08-5.29-.29-7.65-.61v-176.44Z"/>
      <path stroke="#000" stroke-miterlimit="10" d="M1530.55,317.5c-15.29,0-28.53-2.25-39.7-6.74-11.17-4.49-20.44-10.78-27.79-18.87-7.35-8.09-12.84-17.68-16.47-28.79-3.63-11.11-5.44-23.28-5.44-36.51s1.81-25.4,5.44-36.51c3.62-11.11,9.12-20.71,16.47-28.79,7.35-8.09,16.61-14.42,27.79-18.99,11.17-4.57,24.41-6.86,39.7-6.86s28.52,2.29,39.7,6.86c11.17,4.58,20.44,10.91,27.79,18.99,7.35,8.09,12.79,17.69,16.32,28.79,3.53,11.11,5.29,23.28,5.29,36.51s-1.76,25.41-5.29,36.51c-3.53,11.11-8.97,20.71-16.32,28.79-7.35,8.09-16.61,14.38-27.79,18.87-11.17,4.49-24.41,6.74-39.7,6.74ZM1530.55,295.93c9.8,0,18.28-1.59,25.44-4.78,7.15-3.19,13.09-7.8,17.79-13.85,4.7-6.04,8.23-13.31,10.59-21.81,2.35-8.49,3.53-18.13,3.53-28.92s-1.18-20.22-3.53-28.79c-2.35-8.58-5.88-15.84-10.59-21.81-4.7-5.96-10.64-10.54-17.79-13.72-7.16-3.19-15.64-4.78-25.44-4.78s-18.28,1.59-25.44,4.78c-7.16,3.19-13.09,7.76-17.79,13.72-4.7,5.97-8.23,13.23-10.59,21.81s-3.53,18.18-3.53,28.79,1.18,20.42,3.53,28.92c2.35,8.5,5.88,15.77,10.59,21.81,4.71,6.05,10.63,10.66,17.79,13.85,7.15,3.19,15.63,4.78,25.44,4.78Z"/>
      <path stroke="#000" stroke-miterlimit="10" d="M1658.46,138.36c4.71-.49,9.8-.74,15.29-.74s10.19.24,14.7.74v99.98c0,10.13.78,18.79,2.35,25.98,1.57,7.19,4.12,13.03,7.65,17.52,3.53,4.5,8.18,7.8,13.97,9.92,5.78,2.13,12.89,3.19,21.32,3.19s15.48-1.06,21.17-3.19c5.68-2.12,10.29-5.43,13.82-9.92,3.53-4.49,6.07-10.33,7.65-17.52,1.57-7.19,2.35-15.84,2.35-25.98v-99.98c4.9-.49,9.9-.74,15-.74,5.49,0,10.59.24,15.29.74v104.39c0,11.76-1.32,22.3-3.97,31.61-2.65,9.31-6.96,17.15-12.94,23.53-5.98,6.37-13.78,11.23-23.38,14.58-9.61,3.35-21.27,5.02-34.99,5.02s-25.39-1.68-34.99-5.02c-9.61-3.35-17.4-8.21-23.38-14.58-5.98-6.37-10.29-14.21-12.94-23.53-2.65-9.31-3.97-19.85-3.97-31.61v-104.39Z"/>
      <path stroke="#000" stroke-miterlimit="10" d="M1855.78,138.12c2.94-.33,6.42-.65,10.44-.98,4.02-.33,8.23-.61,12.65-.86,4.41-.24,8.82-.45,13.23-.61,4.41-.16,8.68-.25,12.79-.25,10.78,0,21.03.9,30.73,2.7,9.7,1.8,18.23,4.9,25.58,9.31,7.35,4.41,13.18,10.25,17.5,17.52,4.31,7.27,6.47,16.38,6.47,27.32s-2.31,20.95-6.91,28.55c-4.61,7.6-10.69,13.69-18.23,18.26-7.55,4.58-16.13,7.8-25.73,9.68-9.61,1.88-19.41,2.82-29.41,2.82-3.73,0-7.01-.04-9.85-.12-2.84-.08-5.93-.28-9.26-.61v63.71c-4.71.49-9.7.74-15,.74-2.35,0-4.85-.04-7.5-.12-2.65-.08-5.15-.29-7.5-.61v-176.44ZM1885.78,229.03c3.13.33,5.88.57,8.23.74,2.35.16,5.78.24,10.29.24,6.07,0,12.1-.53,18.09-1.59,5.98-1.06,11.32-2.98,16.03-5.76,4.7-2.78,8.48-6.57,11.32-11.4,2.84-4.82,4.26-11.06,4.26-18.75,0-6.7-1.23-12.33-3.68-16.91-2.45-4.57-5.84-8.25-10.15-11.03-4.31-2.78-9.51-4.74-15.59-5.88-6.08-1.14-12.64-1.72-19.7-1.72s-13.63.24-19.11.74v71.31Z"/>
    </g>
    <path stroke="#000" stroke-miterlimit="10" d="M311.94,219.63l-56.61-98.16,46.63-80.9H125.11l-.39.05h-.88l-.44.05h-.44l-.39.05-.44.05h-.44l-.44.05-.39.05-.44.05-.44.05-.44.05-.39.05-.44.1-.44.05-.39.05-.44.1-.44.05-.39.1-.44.05-.44.1-.39.1-.44.1-.44.1-.39.1-.44.1-.39.1-.44.1-.39.1-.44.15-.39.1-.44.15-.39.1-.39.15-.44.15-.39.1-.39.15-.44.15-.39.15-.39.15-.44.15-.39.15-.39.15-.39.2-.39.15-.39.2-.39.15-.39.2-.39.15-.39.2-.39.2-.39.15-.39.2-.39.2-.39.2-.39.2-.39.2-.34.25-.39.2-.39.2-.34.25-.39.2-.34.2-.39.25-.34.25-.39.2-.34.25-.39.25-.34.25-.34.25-.39.25-.34.25-.34.25-.34.25-.34.25-.34.25-.34.29-.34.25-.34.25-.34.29-.34.25-.34.29-.29.29-.34.25-.34.29-.29.29-.34.29-.34.29-.29.29-.29.29-.34.29-.29.29-.29.29-.34.29-.29.34-.29.29-.29.29-.29.34-.29.29-.29.34-.29.29-.25.34-.29.34-.29.29-.29.34-.25.34-.29.34-.25.29-.29.34-.25.34-.25.34-.29.34-.25.39-.25.34-.25.34-.25.34-.25.34-.25.39-.25.34-.25.34-.2.39-.25.34-.25.39-.2.34-.25.39-.2.39L7.67,192.75l-.2.39-.25.39-.2.34-.2.39-.2.39-.2.39-.2.34-.2.39-.2.39-.2.39-.2.39-.15.39-.2.39-.15.39-.2.39-.15.39-.2.39-.15.39-.15.44-.15.39-.15.39-.15.39-.15.39-.15.44-.15.39-.15.39-.1.44-.15.39-.15.44-.1.39-.1.39-.15.44-.1.39-.1.44-.1.39-.15.44-.1.39-.05.44-.1.39-.1.44-.1.44-.1.39-.05.44-.1.44-.05.39-.05.44-.1.44-.05.39-.05.44-.05.44-.05.39-.05.44-.05.44-.05.44-.05.39v.44l-.05.44-.05.44v.84l-.05.44v3.88l.05.44v.39l.05.44v.44l.05.44.05.39v.44l.05.44.05.44.05.39.05.44.05.44.1.39.05.44.05.44.1.39.05.44.1.44.05.39.1.44.1.39.1.44.1.44.1.39.1.44.1.39.1.44.1.39.15.44.1.39.1.44.15.39.1.39.15.44.15.39.15.39.1.44.15.39.15.39.15.39.2.44.15.39.15.39.15.39.2.39.15.39.2.39.15.39.2.39.2.39.15.39.2.39.2.39.2.39.2.39.2.34.2.39.2.39.25.34v-1.38l.05-.44v-.93l.05-.49.05-.44v-.49l.05-.44.05-.49.05-.44.05-.44.05-.49.05-.44.05-.49.05-.44.1-.44.05-.49.05-.44.1-.44.1-.49.05-.44.1-.44.1-.49.1-.44.1-.44.1-.49.1-.44.1-.44.1-.44.1-.44.15-.49.1-.44.15-.44.1-.44.15-.44.1-.44.15-.44.15-.44.15-.44.15-.44.15-.44.15-.44.15-.44.15-.44.2-.44.15-.44.15-.39.2-.44.15-.44.2-.44.2-.39.2-.44.15-.44.2-.39.2-.44.2-.44.2-.39.2-.44.25-.39.2-.44.2-.39.25-.39.2-.44.25-.39.2-.39.25-.44.2-.39,36.17-62.67.25-.39.25-.39.2-.39.25-.39.25-.39.29-.39.25-.39.25-.39.25-.39.25-.39.29-.39.25-.39.29-.34.25-.39.29-.39.25-.34.29-.39.29-.34.29-.39.29-.34.29-.39.29-.34.29-.34.29-.39.29-.34.29-.34.29-.34.34-.34.29-.34.29-.34.34-.34.29-.34.34-.34.34-.34.29-.29.34-.34.34-.34.34-.29.34-.34.34-.29.29-.34.34-.29.39-.29.34-.34.34-.29.34-.29.34-.29.39-.29.34-.29.34-.29.39-.29.34-.29.39-.29.34-.25.39-.29.39-.29.34-.25.39-.29.39-.25.39-.25.34-.29.39-.25.39-.25.39-.25.39-.25.39-.25.39-.25.39-.25.44-.25.39-.25.39-.25.39-.2.44-.25.39-.2.39-.25.44-.2.39-.25.44-.2.39-.2.44-.2.39-.2.44-.2.39-.2.44-.2.44-.2.39-.2.44-.15.44-.2.44-.2.39-.15.44-.2.44-.15.44-.15.44-.15.44-.2.44-.15.44-.15.44-.15.44-.15.44-.1.44-.15.44-.15.44-.15.44-.1.44-.15.49-.1.44-.1.44-.15.44-.1.44-.1.49-.1.44-.1.44-.1.49-.1.44-.1.44-.05.44-.1.49-.1.44-.05.49-.1.44-.05.44-.05.49-.1.44-.05.49-.05.44-.05.44-.05.49-.05.44-.05h.49l.44-.05.49-.05h.44l.49-.05h1.38l.44-.05h147.51l-55.13,95.55h-100.24l50.12-86.95h-41.72l-.44.05h-1.33l-.39.05h-.44l-.44.05h-.44l-.39.05-.44.05-.44.05h-.44l-.44.05-.39.05-.44.1-.44.05-.39.05-.44.05-.44.1-.39.05-.44.1-.44.05-.39.1-.44.1-.44.05-.39.1-.44.1-.39.1-.44.1-.39.1-.44.15-.39.1-.44.1-.39.15-.44.1-.39.15-.44.1-.39.15-.39.15-.44.15-.39.1-.39.15-.44.15-.39.15-.39.2-.39.15-.39.15-.44.15-.39.2-.39.15-.39.2-.39.2-.39.15-.39.2-.39.2-.39.2-.34.2-.39.2-.39.2-.39.2-.39.2-.34.2-.39.2-.39.25-.34.2-.39.25-.34.2-.39.25-.34.25-.39.2-.34.25-.34.25-.39.25-.34.25-.34.25-.34.25-.34.25-.39.25-.34.29-.34.25-.34.25-.34.29-.29.25-.34.29-.34.25-.34.29-.29.29-.34.25-.34.29-.29.29-.34.29-.29.29-.34.29-.29.29-.29.29-.34.29-.29.34-.29.29-.29.29-.29.34-.29.29-.29.29-.29.34-.29.34-.29.29-.29.34-.25.34-.29.29-.25.34-.29.34-.29.34-.25.34-.25.34-.29.34-.25.34-.25.34-.25.34-.25.34-.25.34-.25.39-.25.34-.25.34-.25.39-.25.34-.2.39-.25.34-.2.39-.25.34-.2.39-36.17,62.67-.2.34-.25.39-.2.39-.2.39-.2.34-.2.39-.2.39-.2.39-.2.39-.2.39-.15.39-.2.39-.2.39-.15.39-.2.39-.15.39-.2.39-.15.39-.15.39-.15.44-.15.39-.15.39-.15.39-.15.44-.15.39-.15.39-.1.44-.15.39-.15.44-.1.39-.1.44-.15.39-.1.44-.1.39-.1.44-.15.39-.1.44-.05.39-.1.44-.1.44-.1.39-.05.44-.1.44-.1.39-.05.44-.05.44-.1.39-.05.44-.05.44-.05.39-.05.44-.05.44-.05.44-.05.39-.05.44v.44l-.05.44v.44l-.05.39v.44l-.05.44v3.44l.05.44v.44l.05.44v.44l.05.39v.44l.05.44.05.44.05.39.05.44.05.44.05.44.05.39.05.44.1.44.05.39.05.44.1.44.1.39.05.44.1.44.1.39.1.44.05.44.1.39.15.44.1.39.1.44.1.39.15.44.1.39.1.44.15.39.15.39.1.44.15.39.15.44.15.39.15.39.15.39.15.44.15.39.15.39.15.39.2.39.15.44.2.39.15.39.2.39.2.39.15.39.2.39.2.34.2.39.2.39.2.39.2.39.2.39.2.34.25.39.2.39,41.33,71.61.2.34.25.39.2.34.25.39.25.34.2.39.25.34.25.34.25.39.25.34.25.34.25.34.25.39.25.34.25.34.29.34.25.34.29.34.25.34.29.29.25.34.29.34.29.34.25.29.29.34.29.29.29.34.29.29.29.34.29.29.29.34.29.29.29.29.34.29.29.29.29.29.34.29.29.29.34.29.29.29.34.29.34.29.29.25.34.29.34.29.34.25.34.29.29.25.34.29.34.25.34.25.39.25.34.25.34.29.34.25.34.25.39.2.34.25.34.25.39.25.34.25.39.2.34.25.39.2.34.25.39.2.39.2.34.25.39.2.39.2.39.2.39.2.34.2.39.2.39.2.39.15.39.2.39.2.39.15.39.2.44.15.39.15.39.2.39.15.39.15.39.15.44.15.39.15.39.15.44.15.39.15.39.1.44.15.39.1.44.15.39.1.44.15.39.1.44.1.39.1.44.1.39.1.44.1.39.1.44.1.44.1.39.05.44.1.44.05.39.1.44.05.44.1.39.05.44.05.44.05.44.05.39.05.44.05.44.05h.44l.39.05.44.05h.44l.44.05h.84l.44.05h74.89l.44-.05h.84l.44-.05h.44l.44-.05.39-.05h.44l.44-.05.44-.05.39-.05.44-.05.44-.05.44-.05.39-.05.44-.1.44-.05.39-.1.44-.05.44-.1.39-.05.44-.1.44-.1.39-.1.44-.1.39-.1.44-.1.39-.1.44-.1.39-.1.44-.15.39-.1.44-.15.39-.1.44-.15.39-.1.39-.15.44-.15.39-.15.39-.15.44-.15.39-.15.39-.15.39-.15.39-.2.44-.15.39-.15.39-.2.39-.15.39-.2.39-.2.39-.15.39-.2.39-.2.34-.2.39-.2.39-.2.39-.2.39-.2.34-.25.39-.2.39-.2.34-.25.39-.2.34-.25.39-.2.34-.25.39-.25.34-.25.34-.25.39-.2.34-.25.34-.25.34-.29.34-.25.39-.25.34-.25.34-.25.34-.29.34-.25.29-.29.34-.25.34-.29.34-.29.29-.25.34-.29.34-.29.29-.29.34-.29.29-.29.34-.29.29-.29.29-.29.34-.29.29-.29.29-.29.29-.34.29-.29.29-.34.29-.29.29-.34.29-.29.29-.34.29-.29.25-.34.29-.34.25-.34.29-.29.25-.34.29-.34.25-.34.29-.34.25-.34.25-.34.25-.39.25-.34.25-.34.25-.34.25-.39.25-.34.25-.34.25-.39.2-.34.25-.39.2-.34.25-.39.2-.34,20.64-35.73-48.65-89.55,52.14-90.44,55.13,95.55-71.79,124.45-.25.39-.25.44-.25.39-.2.39-.25.39-.29.39-.25.39-.25.39-.25.39-.25.39-.29.34-.25.39-.29.39-.25.39-.29.34-.29.39-.25.34-.29.39-.29.34-.29.39-.29.34-.29.39-.29.34-.29.34-.29.34-.29.39-.29.34-.34.34-.29.34-.34.34-.29.34-.34.34-.29.29-.34.34-.29.34-.34.34-.34.29-.34.34-.34.29-.34.34-.34.29-.34.34-.34.29-.34.29-.34.29-.34.34-.34.29-.39.29-.34.29-.34.29-.39.29-.34.25-.39.29-.34.29-.39.29-.39.25-.34.29-.39.25-.39.29-.39.25-.34.25-.39.29-.39.25-.39.25-.39.25-.39.25-.39.25-.44.25-.39.25-.39.2-.39.25-.39.25-.44.2-.39.25-.39.2-.44.25-.39.2-.44.2-.39.25-.44.2-.39.2-.44.2-.39.2-.44.2-.44.15-.39.2-.44.2-.44.2-.44.15-.39.2-.44.15-.44.15-.44.2-.44.15-.44.15-.44.15-.44.15-.44.15-.44.15-.44.15-.44.15-.44.1-.44.15-.44.15-.44.1-.49.15-.44.1-.44.1-.44.1-.44.15-.49.1-.44.1-.44.1-.49.05-.44.1-.44.1-.44.1-.49.05-.44.1-.49.05-.44.1-.44.05-.49.05-.44.05-.49.05-.44.05-.44.05-.49.05-.44.05-.49.05h-.44l-.49.05-.44.05h-.93l-.49.05h-75.97l-.49-.05h-.93l-.44-.05-.49-.05h-.44l-.44-.05-.49-.05-.44-.05-.49-.05-.44-.05-.49-.05-.44-.05-.44-.05-.49-.05-.44-.1-.44-.05-.49-.1-.44-.05-.44-.1-.49-.1-.44-.1-.44-.05-.44-.1-.49-.1-.44-.1-.44-.15-.44-.1-.49-.1-.44-.1-.44-.15-.44-.1-.44-.15-.44-.1-.44-.15-.44-.15-.44-.15-.44-.15-.44-.1-.44-.15-.44-.2-.44-.15-.44-.15-.44-.15-.44-.2-.44-.15-.39-.15-.44-.2-.44-.2-.44-.15-.39-.2-.44-.2-.44-.2-.39-.2-.44-.2-.39-.2-.44-.2-.39-.2-.44-.2-.39-.25-.44-.2-.39-.25-.39-.2-.39-.25-.44-.2.25.34.2.39.25.34.25.39.2.34.25.34.25.39.25.34.25.34.25.34.25.39.25.34.25.34.29.34.25.34.25.34.29.34.25.29.29.34.25.34.29.34.29.29.25.34.29.34.29.29.29.34.29.29.29.29.29.34.29.29.29.29.34.29.29.34.29.29.34.29.29.29.29.29.34.25.29.29.34.29.34.29.29.25.34.29.34.29.34.25.34.29.34.25.29.25.34.29.39.25.34.25.34.25.34.25.34.25.34.25.39.25.34.25.34.25.39.2.34.25.39.25.34.2.39.25.34.2.39.2.39.25.34.2.39.2.39.2.34.2.39.2.39.2.39.2.39.2.39.15.39.2.39.2.39.15.39.2.39.15.39.15.39.2.39.15.44.15.39.15.39.15.39.15.44.15.39.15.39.1.44.15.39.15.39.1.44.15.39.1.44.1.39.15.44.1.39.1.44.1.39.1.44.1.39.1.44.05.44.1.39.1.44.05.39.1.44.05.44.1.39.05.44.05.44.05.39.1.44.05h.44l.44.05.39.05.44.05.44.05h.44l.39.05h.44l.44.05h148.89l.44-.05h.39l.44-.05h.44l.44-.05.44-.05.39-.05.44-.05.44-.05.44-.05.39-.05.44-.05.44-.05.39-.05.44-.1.44-.05.39-.1.44-.05.44-.1.39-.1.44-.05.44-.1.39-.1.44-.1.39-.1.44-.1.39-.15.44-.1.39-.1.44-.15.39-.1.44-.15.39-.1.39-.15.44-.15.39-.15.39-.15.44-.1.39-.15.39-.2.39-.15.44-.15.39-.15.39-.2.39-.15.39-.15.39-.2.39-.2.39-.15.39-.2.39-.2.39-.2.39-.2.39-.2.34-.2.39-.2.39-.2.39-.2.34-.25.39-.2.39-.2.34-.25.39-.2.34-.25.39-.25.34-.2.34-.25.39-.25.34-.25.34-.25.34-.25.39-.25.34-.25.34-.25.34-.29.34-.25.34-.25.34-.29.34-.25.34-.29.29-.25.34-.29.34-.29.29-.29.34-.25.34-.29.29-.29.34-.29.29-.29.29-.29.34-.29.29-.34.29-.29.29-.29.29-.29.34-.34.29-.29.29-.34.25-.29.29-.34.29-.29.29-.34.29-.34.25-.29.29-.34.25-.34.29-.34.25-.34.29-.34.25-.34.25-.34.25-.34.29-.34.25-.34.25-.39.25-.34.25-.34.2-.34.25-.39.25-.34.25-.39.2-.34.25-.39.2-.34.25-.39,87.76-152.17h-93.31ZM244.37,309.14h-97.29l-50.12-86.95h100.24l47.17,86.95Z"/>
  </g>
  <line stroke="#000" stroke-width="3" fill="none" stroke-miterlimit="10" x1="2333.81" y1="15.9" x2="2093.73" y2="427.17"/>
</svg>
