<?xml version="1.0" encoding="UTF-8" standalone="no"?>
<!-- Created with Inkscape (http://www.inkscape.org/) -->

<svg
   version="1.1"
   id="svg1"
   width="540.45734"
   height="57.842133"
   viewBox="0 0 540.45734 57.842133"
   xmlns="http://www.w3.org/2000/svg"
   xmlns:svg="http://www.w3.org/2000/svg">
  <path
     id="path69"
     d="M 297.3125 0.3828125 L 265.70898 56.144531 L 268.0293 57.460938 L 299.63086 1.6953125 L 297.3125 0.3828125 z M 439.78711 0.41992188 L 439.78711 21.365234 C 437.34711 17.557234 433.48158 17.199219 431.51758 17.199219 C 423.90158 17.199219 418.72266 23.268766 418.72266 30.884766 C 418.72266 38.440765 423.95838 44.630859 431.87305 44.630859 C 433.71705 44.630859 437.16978 44.212844 439.78711 40.464844 L 439.78711 43.796875 L 447.04688 43.796875 L 447.04688 0.41992188 L 439.78711 0.41992188 z M 314.89258 7.1933594 C 310.82991 7.1933594 307.53711 10.488115 307.53711 14.550781 C 307.53711 18.613448 310.82991 21.908203 314.89258 21.908203 C 318.95658 21.908203 322.25 18.613448 322.25 14.550781 C 322.25 10.488115 318.95658 7.1933594 314.89258 7.1933594 z M 332.56836 7.1933594 C 328.50569 7.1933594 325.21289 10.488115 325.21289 14.550781 C 325.21289 18.613448 328.50569 21.908203 332.56836 21.908203 C 336.63236 21.908203 339.92578 18.613448 339.92578 14.550781 C 339.92578 10.488115 336.63236 7.1933594 332.56836 7.1933594 z M 20.029297 7.2285156 L 19.976562 7.2363281 L 19.919922 7.2363281 L 19.861328 7.2363281 L 19.802734 7.2421875 L 19.744141 7.2421875 L 19.691406 7.2480469 L 19.632812 7.2558594 L 19.574219 7.2558594 L 19.517578 7.2617188 L 19.464844 7.2695312 L 19.40625 7.2734375 L 19.347656 7.28125 L 19.289062 7.2871094 L 19.236328 7.2949219 L 19.177734 7.3066406 L 19.119141 7.3144531 L 19.068359 7.3203125 L 19.009766 7.3320312 L 18.951172 7.3398438 L 18.900391 7.3535156 L 18.841797 7.359375 L 18.783203 7.3730469 L 18.730469 7.3847656 L 18.671875 7.3984375 L 18.615234 7.4121094 L 18.5625 7.4238281 L 18.503906 7.4375 L 18.451172 7.4492188 L 18.392578 7.4628906 L 18.341797 7.4746094 L 18.283203 7.4960938 L 18.230469 7.5097656 L 18.171875 7.5273438 L 18.119141 7.5410156 L 18.068359 7.5605469 L 18.009766 7.5800781 L 17.958984 7.59375 L 17.90625 7.6132812 L 17.847656 7.6308594 L 17.794922 7.6523438 L 17.744141 7.671875 L 17.685547 7.6894531 L 17.632812 7.7109375 L 17.580078 7.7285156 L 17.529297 7.7558594 L 17.476562 7.7753906 L 17.425781 7.8007812 L 17.373047 7.8203125 L 17.320312 7.8457031 L 17.269531 7.8652344 L 17.21875 7.890625 L 17.166016 7.9179688 L 17.115234 7.9375 L 17.0625 7.9628906 L 17.009766 7.9882812 L 16.958984 8.015625 L 16.90625 8.0410156 L 16.853516 8.0683594 L 16.808594 8.0996094 L 16.757812 8.1269531 L 16.705078 8.1523438 L 16.660156 8.1835938 L 16.607422 8.2109375 L 16.5625 8.2363281 L 16.509766 8.2695312 L 16.464844 8.3007812 L 16.412109 8.328125 L 16.367188 8.359375 L 16.316406 8.390625 L 16.269531 8.4238281 L 16.222656 8.4570312 L 16.171875 8.4882812 L 16.126953 8.5214844 L 16.080078 8.5546875 L 16.035156 8.5859375 L 15.990234 8.6191406 L 15.945312 8.6523438 L 15.900391 8.6894531 L 15.853516 8.7226562 L 15.808594 8.7558594 L 15.763672 8.7949219 L 15.71875 8.828125 L 15.671875 8.8652344 L 15.632812 8.9042969 L 15.587891 8.9375 L 15.542969 8.9765625 L 15.503906 9.015625 L 15.458984 9.0546875 L 15.412109 9.09375 L 15.373047 9.1328125 L 15.333984 9.171875 L 15.289062 9.2109375 L 15.25 9.2480469 L 15.210938 9.2890625 L 15.166016 9.328125 L 15.126953 9.3730469 L 15.087891 9.4121094 L 15.048828 9.4492188 L 15.009766 9.4960938 L 14.970703 9.5351562 L 14.931641 9.5800781 L 14.892578 9.6191406 L 14.861328 9.6640625 L 14.820312 9.7109375 L 14.783203 9.7480469 L 14.744141 9.7949219 L 14.710938 9.8398438 L 14.671875 9.8867188 L 14.638672 9.9238281 L 14.601562 9.9707031 L 14.568359 10.015625 L 14.535156 10.060547 L 14.496094 10.105469 L 14.464844 10.158203 L 14.431641 10.203125 L 14.400391 10.25 L 14.367188 10.294922 L 14.333984 10.339844 L 14.302734 10.392578 L 14.269531 10.4375 L 14.236328 10.484375 L 14.210938 10.535156 L 14.177734 10.580078 L 14.146484 10.632812 L 14.121094 10.677734 L 14.087891 10.730469 L 14.0625 10.78125 L 4.5097656 27.337891 L 4.484375 27.390625 L 4.4511719 27.441406 L 4.4257812 27.488281 L 4.4003906 27.539062 L 4.375 27.591797 L 4.3476562 27.642578 L 4.3222656 27.689453 L 4.2949219 27.740234 L 4.2695312 27.792969 L 4.2441406 27.845703 L 4.21875 27.896484 L 4.1992188 27.949219 L 4.1738281 28 L 4.1523438 28.052734 L 4.1269531 28.105469 L 4.1074219 28.15625 L 4.0800781 28.208984 L 4.0625 28.261719 L 4.0429688 28.320312 L 4.0234375 28.371094 L 4.0039062 28.423828 L 3.984375 28.474609 L 3.9648438 28.527344 L 3.9453125 28.585938 L 3.9257812 28.638672 L 3.90625 28.689453 L 3.8925781 28.748047 L 3.875 28.798828 L 3.8535156 28.857422 L 3.8417969 28.910156 L 3.828125 28.962891 L 3.8085938 29.021484 L 3.7949219 29.072266 L 3.7832031 29.130859 L 3.7695312 29.183594 L 3.75 29.242188 L 3.7363281 29.294922 L 3.7304688 29.353516 L 3.71875 29.404297 L 3.7050781 29.462891 L 3.6914062 29.521484 L 3.6777344 29.572266 L 3.6738281 29.630859 L 3.6601562 29.689453 L 3.6523438 29.742188 L 3.6464844 29.800781 L 3.6328125 29.859375 L 3.6269531 29.910156 L 3.6210938 29.96875 L 3.6152344 30.027344 L 3.6074219 30.080078 L 3.6015625 30.138672 L 3.59375 30.197266 L 3.5878906 30.255859 L 3.5800781 30.306641 L 3.5800781 30.365234 L 3.5742188 30.423828 L 3.5683594 30.482422 L 3.5683594 30.533203 L 3.5683594 30.59375 L 3.5625 30.652344 L 3.5625 30.710938 L 3.5625 30.761719 L 3.5625 30.820312 L 3.5625 30.878906 L 3.5625 30.9375 L 3.5625 30.988281 L 3.5625 31.046875 L 3.5625 31.105469 L 3.5625 31.164062 L 3.5683594 31.222656 L 3.5683594 31.273438 L 3.5742188 31.332031 L 3.5742188 31.390625 L 3.5800781 31.449219 L 3.5878906 31.501953 L 3.5878906 31.560547 L 3.59375 31.619141 L 3.6015625 31.677734 L 3.6074219 31.728516 L 3.6152344 31.787109 L 3.6210938 31.845703 L 3.6328125 31.898438 L 3.6386719 31.957031 L 3.6464844 32.015625 L 3.6601562 32.068359 L 3.6660156 32.126953 L 3.6777344 32.183594 L 3.6855469 32.236328 L 3.6992188 32.294922 L 3.7109375 32.345703 L 3.7246094 32.404297 L 3.7363281 32.462891 L 3.75 32.515625 L 3.7636719 32.574219 L 3.7753906 32.626953 L 3.7890625 32.685547 L 3.8027344 32.736328 L 3.8222656 32.794922 L 3.8339844 32.845703 L 3.8476562 32.904297 L 3.8671875 32.957031 L 3.8789062 33.009766 L 3.9003906 33.068359 L 3.9199219 33.119141 L 3.9375 33.171875 L 3.9511719 33.230469 L 3.9707031 33.28125 L 3.9902344 33.333984 L 4.0097656 33.386719 L 4.0351562 33.445312 L 4.0546875 33.496094 L 4.0742188 33.548828 L 4.09375 33.599609 L 4.1210938 33.652344 L 4.1386719 33.703125 L 4.1660156 33.755859 L 4.1855469 33.806641 L 4.2109375 33.859375 L 4.2363281 33.912109 L 4.2578125 33.962891 L 4.2832031 34.015625 L 4.3085938 34.068359 L 4.3339844 34.119141 L 4.3613281 34.171875 L 4.3867188 34.216797 L 4.4121094 34.269531 L 4.4375 34.320312 L 4.4707031 34.365234 L 4.4707031 34.306641 L 4.4707031 34.244141 L 4.4707031 34.185547 L 4.4765625 34.126953 L 4.4765625 34.060547 L 4.4765625 34.003906 L 4.484375 33.9375 L 4.4902344 33.878906 L 4.4902344 33.814453 L 4.4960938 33.755859 L 4.5039062 33.691406 L 4.5097656 33.632812 L 4.5175781 33.574219 L 4.5234375 33.509766 L 4.5292969 33.449219 L 4.5351562 33.386719 L 4.5429688 33.328125 L 4.5546875 33.269531 L 4.5625 33.203125 L 4.5683594 33.144531 L 4.5800781 33.087891 L 4.59375 33.021484 L 4.6015625 32.962891 L 4.6152344 32.904297 L 4.6269531 32.839844 L 4.6386719 32.78125 L 4.6523438 32.722656 L 4.6660156 32.658203 L 4.6777344 32.599609 L 4.6914062 32.541016 L 4.7050781 32.484375 L 4.71875 32.423828 L 4.7363281 32.359375 L 4.75 32.300781 L 4.7695312 32.242188 L 4.7832031 32.183594 L 4.8027344 32.126953 L 4.8164062 32.068359 L 4.8339844 32.009766 L 4.8535156 31.949219 L 4.875 31.890625 L 4.8925781 31.832031 L 4.9121094 31.775391 L 4.9316406 31.716797 L 4.9511719 31.658203 L 4.9707031 31.599609 L 4.9960938 31.541016 L 5.0175781 31.482422 L 5.0351562 31.429688 L 5.0625 31.373047 L 5.0800781 31.314453 L 5.1074219 31.255859 L 5.1328125 31.203125 L 5.1601562 31.144531 L 5.1777344 31.085938 L 5.2050781 31.033203 L 5.2304688 30.974609 L 5.2578125 30.917969 L 5.2832031 30.865234 L 5.3085938 30.806641 L 5.3417969 30.755859 L 5.3671875 30.697266 L 5.3925781 30.644531 L 5.4257812 30.59375 L 5.4511719 30.533203 L 5.484375 30.482422 L 5.5097656 30.429688 L 5.5429688 30.371094 L 5.5683594 30.320312 L 10.347656 22.039062 L 10.378906 21.986328 L 10.412109 21.933594 L 10.4375 21.882812 L 10.470703 21.830078 L 10.503906 21.777344 L 10.542969 21.726562 L 10.574219 21.673828 L 10.607422 21.623047 L 10.638672 21.572266 L 10.673828 21.519531 L 10.710938 21.466797 L 10.744141 21.416016 L 10.783203 21.371094 L 10.816406 21.318359 L 10.853516 21.265625 L 10.886719 21.21875 L 10.925781 21.167969 L 10.964844 21.123047 L 11.003906 21.070312 L 11.042969 21.025391 L 11.080078 20.972656 L 11.121094 20.927734 L 11.160156 20.882812 L 11.199219 20.830078 L 11.236328 20.785156 L 11.275391 20.740234 L 11.316406 20.693359 L 11.361328 20.648438 L 11.400391 20.603516 L 11.4375 20.558594 L 11.484375 20.511719 L 11.521484 20.466797 L 11.568359 20.419922 L 11.615234 20.375 L 11.652344 20.335938 L 11.699219 20.291016 L 11.744141 20.246094 L 11.789062 20.207031 L 11.833984 20.160156 L 11.878906 20.123047 L 11.919922 20.076172 L 11.964844 20.039062 L 12.017578 20 L 12.0625 19.955078 L 12.107422 19.914062 L 12.152344 19.875 L 12.199219 19.835938 L 12.25 19.798828 L 12.294922 19.757812 L 12.341797 19.71875 L 12.392578 19.681641 L 12.4375 19.642578 L 12.490234 19.601562 L 12.535156 19.570312 L 12.587891 19.53125 L 12.638672 19.492188 L 12.685547 19.458984 L 12.736328 19.419922 L 12.789062 19.388672 L 12.841797 19.355469 L 12.886719 19.316406 L 12.9375 19.285156 L 12.990234 19.251953 L 13.042969 19.21875 L 13.09375 19.1875 L 13.146484 19.154297 L 13.199219 19.123047 L 13.25 19.089844 L 13.308594 19.056641 L 13.361328 19.025391 L 13.412109 18.992188 L 13.464844 18.966797 L 13.521484 18.933594 L 13.574219 18.908203 L 13.626953 18.875 L 13.685547 18.849609 L 13.736328 18.816406 L 13.794922 18.791016 L 13.847656 18.765625 L 13.90625 18.740234 L 13.958984 18.712891 L 14.017578 18.6875 L 14.068359 18.660156 L 14.126953 18.634766 L 14.185547 18.609375 L 14.236328 18.583984 L 14.294922 18.5625 L 14.353516 18.539062 L 14.412109 18.511719 L 14.464844 18.492188 L 14.521484 18.466797 L 14.580078 18.445312 L 14.638672 18.427734 L 14.699219 18.408203 L 14.757812 18.382812 L 14.816406 18.361328 L 14.873047 18.341797 L 14.931641 18.324219 L 14.990234 18.302734 L 15.048828 18.291016 L 15.107422 18.271484 L 15.166016 18.251953 L 15.222656 18.232422 L 15.283203 18.21875 L 15.341797 18.199219 L 15.40625 18.1875 L 15.464844 18.173828 L 15.521484 18.154297 L 15.580078 18.140625 L 15.638672 18.128906 L 15.705078 18.115234 L 15.763672 18.101562 L 15.820312 18.087891 L 15.886719 18.076172 L 15.945312 18.0625 L 16.003906 18.056641 L 16.0625 18.042969 L 16.126953 18.03125 L 16.185547 18.025391 L 16.25 18.011719 L 16.308594 18.003906 L 16.367188 17.998047 L 16.431641 17.984375 L 16.490234 17.978516 L 16.554688 17.972656 L 16.615234 17.966797 L 16.671875 17.958984 L 16.736328 17.953125 L 16.794922 17.945312 L 16.861328 17.945312 L 16.919922 17.939453 L 16.984375 17.933594 L 17.042969 17.933594 L 17.107422 17.927734 L 17.166016 17.927734 L 17.222656 17.927734 L 17.289062 17.927734 L 17.347656 17.919922 L 17.412109 17.919922 L 17.470703 17.919922 L 36.841797 17.919922 L 29.554688 30.546875 L 16.308594 30.546875 L 22.931641 19.056641 L 17.470703 19.056641 L 17.419922 19.056641 L 17.361328 19.0625 L 17.302734 19.0625 L 17.244141 19.0625 L 17.185547 19.0625 L 17.132812 19.070312 L 17.074219 19.070312 L 17.017578 19.076172 L 16.958984 19.076172 L 16.90625 19.083984 L 16.847656 19.089844 L 16.789062 19.097656 L 16.730469 19.097656 L 16.671875 19.101562 L 16.621094 19.109375 L 16.5625 19.123047 L 16.503906 19.128906 L 16.451172 19.134766 L 16.392578 19.142578 L 16.333984 19.154297 L 16.283203 19.160156 L 16.222656 19.173828 L 16.166016 19.181641 L 16.115234 19.193359 L 16.054688 19.207031 L 15.996094 19.212891 L 15.945312 19.226562 L 15.886719 19.240234 L 15.833984 19.251953 L 15.775391 19.265625 L 15.722656 19.277344 L 15.666016 19.298828 L 15.615234 19.310547 L 15.554688 19.324219 L 15.503906 19.34375 L 15.445312 19.355469 L 15.392578 19.375 L 15.333984 19.388672 L 15.283203 19.408203 L 15.230469 19.427734 L 15.171875 19.447266 L 15.121094 19.458984 L 15.068359 19.478516 L 15.009766 19.5 L 14.958984 19.517578 L 14.90625 19.544922 L 14.853516 19.5625 L 14.802734 19.583984 L 14.744141 19.601562 L 14.691406 19.628906 L 14.638672 19.648438 L 14.587891 19.673828 L 14.535156 19.701172 L 14.484375 19.71875 L 14.431641 19.746094 L 14.378906 19.771484 L 14.328125 19.798828 L 14.283203 19.824219 L 14.230469 19.849609 L 14.177734 19.875 L 14.126953 19.902344 L 14.074219 19.927734 L 14.029297 19.955078 L 13.976562 19.978516 L 13.925781 20.011719 L 13.878906 20.039062 L 13.828125 20.070312 L 13.783203 20.097656 L 13.730469 20.128906 L 13.685547 20.160156 L 13.632812 20.1875 L 13.587891 20.21875 L 13.542969 20.251953 L 13.490234 20.285156 L 13.445312 20.316406 L 13.400391 20.349609 L 13.353516 20.382812 L 13.308594 20.414062 L 13.257812 20.447266 L 13.210938 20.486328 L 13.166016 20.517578 L 13.121094 20.550781 L 13.074219 20.589844 L 13.035156 20.623047 L 12.990234 20.662109 L 12.945312 20.693359 L 12.900391 20.732422 L 12.861328 20.771484 L 12.816406 20.804688 L 12.769531 20.84375 L 12.730469 20.882812 L 12.685547 20.919922 L 12.646484 20.960938 L 12.601562 21 L 12.5625 21.039062 L 12.521484 21.076172 L 12.476562 21.117188 L 12.4375 21.162109 L 12.400391 21.201172 L 12.361328 21.240234 L 12.322266 21.285156 L 12.283203 21.324219 L 12.244141 21.363281 L 12.205078 21.408203 L 12.166016 21.455078 L 12.126953 21.492188 L 12.087891 21.539062 L 12.054688 21.583984 L 12.017578 21.623047 L 11.984375 21.667969 L 11.945312 21.714844 L 11.90625 21.759766 L 11.873047 21.804688 L 11.841797 21.849609 L 11.802734 21.894531 L 11.769531 21.941406 L 11.736328 21.986328 L 11.705078 22.03125 L 11.671875 22.078125 L 11.638672 22.123047 L 11.607422 22.175781 L 11.574219 22.220703 L 11.542969 22.265625 L 11.509766 22.318359 L 11.476562 22.363281 L 11.451172 22.416016 L 11.419922 22.460938 L 11.392578 22.513672 L 11.361328 22.558594 L 11.333984 22.609375 L 6.5546875 30.890625 L 6.5292969 30.9375 L 6.4960938 30.988281 L 6.4707031 31.041016 L 6.4453125 31.09375 L 6.4199219 31.138672 L 6.3925781 31.189453 L 6.3671875 31.242188 L 6.3417969 31.294922 L 6.3164062 31.345703 L 6.2890625 31.398438 L 6.2695312 31.449219 L 6.2441406 31.501953 L 6.21875 31.554688 L 6.1992188 31.605469 L 6.1738281 31.658203 L 6.1523438 31.710938 L 6.1269531 31.761719 L 6.1074219 31.814453 L 6.0878906 31.865234 L 6.0683594 31.923828 L 6.0488281 31.976562 L 6.0292969 32.029297 L 6.0097656 32.080078 L 5.9902344 32.138672 L 5.9707031 32.189453 L 5.9511719 32.242188 L 5.9375 32.300781 L 5.9199219 32.353516 L 5.9003906 32.412109 L 5.8867188 32.462891 L 5.875 32.521484 L 5.8535156 32.574219 L 5.8417969 32.632812 L 5.828125 32.685547 L 5.8164062 32.742188 L 5.7949219 32.794922 L 5.7832031 32.853516 L 5.7753906 32.904297 L 5.7636719 32.962891 L 5.75 33.021484 L 5.7363281 33.074219 L 5.7304688 33.132812 L 5.71875 33.191406 L 5.7050781 33.244141 L 5.6992188 33.300781 L 5.6914062 33.359375 L 5.6777344 33.412109 L 5.6738281 33.470703 L 5.6660156 33.529297 L 5.6601562 33.580078 L 5.6523438 33.638672 L 5.6464844 33.697266 L 5.6386719 33.755859 L 5.6328125 33.806641 L 5.6269531 33.865234 L 5.6269531 33.923828 L 5.6210938 33.984375 L 5.6210938 34.042969 L 5.6152344 34.09375 L 5.6152344 34.152344 L 5.6074219 34.210938 L 5.6074219 34.269531 L 5.6074219 34.328125 L 5.6074219 34.378906 L 5.6074219 34.4375 L 5.6074219 34.496094 L 5.6074219 34.554688 L 5.6074219 34.613281 L 5.6074219 34.664062 L 5.6152344 34.722656 L 5.6152344 34.78125 L 5.6210938 34.839844 L 5.6210938 34.900391 L 5.6269531 34.951172 L 5.6269531 35.009766 L 5.6328125 35.068359 L 5.6386719 35.126953 L 5.6464844 35.177734 L 5.6523438 35.236328 L 5.6601562 35.294922 L 5.6660156 35.353516 L 5.6738281 35.40625 L 5.6777344 35.464844 L 5.6914062 35.521484 L 5.6992188 35.574219 L 5.7050781 35.632812 L 5.71875 35.691406 L 5.7304688 35.744141 L 5.7363281 35.802734 L 5.75 35.861328 L 5.7636719 35.912109 L 5.7753906 35.970703 L 5.7832031 36.029297 L 5.7949219 36.080078 L 5.8164062 36.138672 L 5.828125 36.191406 L 5.8417969 36.25 L 5.8535156 36.302734 L 5.875 36.361328 L 5.8867188 36.412109 L 5.9003906 36.470703 L 5.9199219 36.523438 L 5.9375 36.576172 L 5.9511719 36.632812 L 5.9707031 36.685547 L 5.9902344 36.744141 L 6.0097656 36.794922 L 6.0292969 36.847656 L 6.0488281 36.900391 L 6.0683594 36.958984 L 6.0878906 37.009766 L 6.1074219 37.0625 L 6.1269531 37.113281 L 6.1523438 37.166016 L 6.1738281 37.224609 L 6.1992188 37.277344 L 6.21875 37.328125 L 6.2441406 37.380859 L 6.2695312 37.433594 L 6.2890625 37.484375 L 6.3164062 37.537109 L 6.3417969 37.582031 L 6.3671875 37.634766 L 6.3925781 37.685547 L 6.4199219 37.738281 L 6.4453125 37.791016 L 6.4707031 37.841797 L 6.4960938 37.886719 L 6.5292969 37.939453 L 6.5546875 37.992188 L 12.017578 47.455078 L 12.042969 47.5 L 12.074219 47.550781 L 12.101562 47.597656 L 12.132812 47.648438 L 12.166016 47.695312 L 12.191406 47.746094 L 12.222656 47.792969 L 12.257812 47.837891 L 12.289062 47.890625 L 12.322266 47.935547 L 12.353516 47.980469 L 12.386719 48.025391 L 12.419922 48.078125 L 12.451172 48.123047 L 12.484375 48.167969 L 12.521484 48.214844 L 12.554688 48.259766 L 12.59375 48.304688 L 12.626953 48.351562 L 12.666016 48.390625 L 12.699219 48.435547 L 12.736328 48.480469 L 12.775391 48.525391 L 12.808594 48.564453 L 12.847656 48.609375 L 12.886719 48.650391 L 12.925781 48.695312 L 12.964844 48.734375 L 13.003906 48.779297 L 13.042969 48.818359 L 13.080078 48.863281 L 13.121094 48.904297 L 13.160156 48.941406 L 13.205078 48.980469 L 13.244141 49.019531 L 13.283203 49.058594 L 13.328125 49.097656 L 13.367188 49.136719 L 13.412109 49.175781 L 13.451172 49.214844 L 13.496094 49.253906 L 13.542969 49.292969 L 13.580078 49.324219 L 13.626953 49.363281 L 13.671875 49.404297 L 13.71875 49.435547 L 13.763672 49.474609 L 13.802734 49.507812 L 13.847656 49.546875 L 13.892578 49.578125 L 13.9375 49.611328 L 13.990234 49.642578 L 14.035156 49.675781 L 14.080078 49.714844 L 14.126953 49.748047 L 14.171875 49.779297 L 14.222656 49.806641 L 14.269531 49.837891 L 14.316406 49.871094 L 14.367188 49.904297 L 14.412109 49.935547 L 14.464844 49.962891 L 14.509766 49.994141 L 14.5625 50.019531 L 14.607422 50.052734 L 14.660156 50.078125 L 14.710938 50.105469 L 14.757812 50.136719 L 14.808594 50.164062 L 14.861328 50.189453 L 14.912109 50.214844 L 14.964844 50.240234 L 15.009766 50.267578 L 15.0625 50.292969 L 15.115234 50.320312 L 15.166016 50.337891 L 15.21875 50.365234 L 15.269531 50.390625 L 15.320312 50.410156 L 15.373047 50.435547 L 15.431641 50.455078 L 15.484375 50.474609 L 15.535156 50.5 L 15.587891 50.521484 L 15.638672 50.539062 L 15.691406 50.558594 L 15.75 50.578125 L 15.802734 50.597656 L 15.853516 50.617188 L 15.912109 50.636719 L 15.964844 50.65625 L 16.017578 50.669922 L 16.074219 50.689453 L 16.126953 50.701172 L 16.185547 50.722656 L 16.236328 50.734375 L 16.294922 50.753906 L 16.347656 50.767578 L 16.40625 50.779297 L 16.458984 50.792969 L 16.517578 50.806641 L 16.568359 50.820312 L 16.626953 50.832031 L 16.677734 50.845703 L 16.736328 50.857422 L 16.794922 50.871094 L 16.847656 50.878906 L 16.90625 50.890625 L 16.964844 50.896484 L 17.017578 50.910156 L 17.074219 50.916016 L 17.132812 50.929688 L 17.185547 50.935547 L 17.244141 50.941406 L 17.302734 50.949219 L 17.361328 50.955078 L 17.412109 50.962891 L 17.470703 50.96875 L 17.529297 50.974609 L 17.587891 50.974609 L 17.638672 50.980469 L 17.699219 50.988281 L 17.757812 50.988281 L 17.816406 50.994141 L 17.867188 50.994141 L 17.925781 50.994141 L 17.984375 51 L 18.042969 51 L 18.101562 51 L 18.152344 51 L 27.710938 51 L 27.763672 51 L 27.820312 51 L 27.878906 51 L 27.9375 50.994141 L 27.996094 50.994141 L 28.048828 50.994141 L 28.107422 50.988281 L 28.166016 50.988281 L 28.222656 50.980469 L 28.275391 50.974609 L 28.333984 50.974609 L 28.392578 50.96875 L 28.451172 50.962891 L 28.503906 50.955078 L 28.5625 50.949219 L 28.619141 50.941406 L 28.677734 50.935547 L 28.730469 50.929688 L 28.789062 50.916016 L 28.847656 50.910156 L 28.900391 50.896484 L 28.958984 50.890625 L 29.017578 50.878906 L 29.068359 50.871094 L 29.126953 50.857422 L 29.185547 50.845703 L 29.236328 50.832031 L 29.294922 50.820312 L 29.347656 50.806641 L 29.40625 50.792969 L 29.458984 50.779297 L 29.515625 50.767578 L 29.568359 50.753906 L 29.626953 50.734375 L 29.677734 50.722656 L 29.736328 50.701172 L 29.789062 50.689453 L 29.847656 50.669922 L 29.900391 50.65625 L 29.951172 50.636719 L 30.009766 50.617188 L 30.0625 50.597656 L 30.115234 50.578125 L 30.171875 50.558594 L 30.222656 50.539062 L 30.275391 50.521484 L 30.328125 50.5 L 30.378906 50.474609 L 30.4375 50.455078 L 30.490234 50.435547 L 30.542969 50.410156 L 30.59375 50.390625 L 30.646484 50.365234 L 30.699219 50.337891 L 30.75 50.320312 L 30.802734 50.292969 L 30.853516 50.267578 L 30.900391 50.240234 L 30.951172 50.214844 L 31.003906 50.189453 L 31.054688 50.164062 L 31.107422 50.136719 L 31.152344 50.105469 L 31.205078 50.078125 L 31.257812 50.052734 L 31.302734 50.019531 L 31.353516 49.994141 L 31.400391 49.962891 L 31.451172 49.935547 L 31.496094 49.904297 L 31.548828 49.871094 L 31.59375 49.837891 L 31.638672 49.806641 L 31.691406 49.779297 L 31.736328 49.748047 L 31.783203 49.714844 L 31.828125 49.675781 L 31.873047 49.642578 L 31.925781 49.611328 L 31.970703 49.578125 L 32.015625 49.546875 L 32.0625 49.507812 L 32.107422 49.474609 L 32.146484 49.435547 L 32.191406 49.404297 L 32.236328 49.363281 L 32.283203 49.324219 L 32.320312 49.292969 L 32.367188 49.253906 L 32.412109 49.214844 L 32.451172 49.175781 L 32.496094 49.136719 L 32.535156 49.097656 L 32.580078 49.058594 L 32.619141 49.019531 L 32.660156 48.980469 L 32.705078 48.941406 L 32.744141 48.904297 L 32.783203 48.863281 L 32.820312 48.818359 L 32.861328 48.779297 L 32.900391 48.734375 L 32.9375 48.695312 L 32.976562 48.650391 L 33.015625 48.609375 L 33.054688 48.564453 L 33.09375 48.525391 L 33.126953 48.480469 L 33.164062 48.435547 L 33.199219 48.390625 L 33.236328 48.351562 L 33.269531 48.304688 L 33.308594 48.259766 L 33.341797 48.214844 L 33.378906 48.167969 L 33.412109 48.123047 L 33.445312 48.078125 L 33.476562 48.025391 L 33.509766 47.980469 L 33.542969 47.935547 L 33.574219 47.890625 L 33.607422 47.837891 L 33.638672 47.792969 L 33.671875 47.746094 L 33.705078 47.695312 L 33.730469 47.648438 L 33.763672 47.597656 L 33.789062 47.550781 L 33.820312 47.5 L 33.847656 47.455078 L 36.574219 42.732422 L 30.146484 30.898438 L 37.035156 18.945312 L 44.320312 31.574219 L 34.833984 48.019531 L 34.802734 48.072266 L 34.769531 48.130859 L 34.736328 48.181641 L 34.710938 48.234375 L 34.677734 48.287109 L 34.638672 48.337891 L 34.607422 48.390625 L 34.574219 48.441406 L 34.542969 48.494141 L 34.509766 48.546875 L 34.470703 48.591797 L 34.4375 48.642578 L 34.400391 48.695312 L 34.367188 48.748047 L 34.328125 48.792969 L 34.289062 48.845703 L 34.257812 48.890625 L 34.216797 48.941406 L 34.177734 48.988281 L 34.138672 49.039062 L 34.101562 49.083984 L 34.0625 49.136719 L 34.021484 49.181641 L 33.984375 49.226562 L 33.945312 49.273438 L 33.90625 49.324219 L 33.867188 49.371094 L 33.820312 49.416016 L 33.783203 49.462891 L 33.736328 49.507812 L 33.699219 49.552734 L 33.652344 49.597656 L 33.615234 49.636719 L 33.568359 49.681641 L 33.529297 49.726562 L 33.484375 49.773438 L 33.4375 49.8125 L 33.392578 49.857422 L 33.347656 49.896484 L 33.302734 49.941406 L 33.257812 49.980469 L 33.210938 50.025391 L 33.164062 50.066406 L 33.119141 50.105469 L 33.074219 50.142578 L 33.029297 50.189453 L 32.984375 50.226562 L 32.931641 50.267578 L 32.886719 50.306641 L 32.841797 50.345703 L 32.789062 50.382812 L 32.744141 50.416016 L 32.691406 50.455078 L 32.646484 50.494141 L 32.59375 50.533203 L 32.542969 50.566406 L 32.496094 50.605469 L 32.445312 50.636719 L 32.392578 50.677734 L 32.341797 50.708984 L 32.294922 50.740234 L 32.244141 50.779297 L 32.191406 50.8125 L 32.138672 50.845703 L 32.087891 50.878906 L 32.035156 50.910156 L 31.984375 50.941406 L 31.925781 50.974609 L 31.873047 51.007812 L 31.820312 51.033203 L 31.769531 51.066406 L 31.716797 51.097656 L 31.660156 51.125 L 31.607422 51.15625 L 31.554688 51.181641 L 31.496094 51.214844 L 31.445312 51.240234 L 31.386719 51.267578 L 31.333984 51.298828 L 31.275391 51.326172 L 31.222656 51.351562 L 31.166016 51.378906 L 31.115234 51.404297 L 31.054688 51.429688 L 30.996094 51.449219 L 30.945312 51.474609 L 30.886719 51.5 L 30.828125 51.527344 L 30.769531 51.546875 L 30.716797 51.572266 L 30.660156 51.591797 L 30.601562 51.611328 L 30.542969 51.636719 L 30.484375 51.65625 L 30.425781 51.677734 L 30.367188 51.695312 L 30.308594 51.714844 L 30.25 51.736328 L 30.191406 51.753906 L 30.132812 51.773438 L 30.074219 51.792969 L 30.015625 51.806641 L 29.958984 51.826172 L 29.900391 51.845703 L 29.841797 51.857422 L 29.775391 51.878906 L 29.716797 51.890625 L 29.660156 51.904297 L 29.601562 51.916016 L 29.542969 51.9375 L 29.476562 51.949219 L 29.417969 51.962891 L 29.361328 51.974609 L 29.294922 51.982422 L 29.236328 51.994141 L 29.177734 52.007812 L 29.119141 52.021484 L 29.054688 52.027344 L 28.996094 52.041016 L 28.931641 52.046875 L 28.873047 52.058594 L 28.816406 52.066406 L 28.75 52.072266 L 28.691406 52.080078 L 28.626953 52.085938 L 28.568359 52.091797 L 28.509766 52.097656 L 28.445312 52.105469 L 28.386719 52.111328 L 28.320312 52.117188 L 28.263672 52.117188 L 28.199219 52.125 L 28.138672 52.130859 L 28.074219 52.130859 L 28.017578 52.130859 L 27.951172 52.138672 L 27.892578 52.138672 L 27.833984 52.138672 L 27.769531 52.138672 L 27.710938 52.138672 L 18.152344 52.138672 L 18.09375 52.138672 L 18.035156 52.138672 L 17.970703 52.138672 L 17.912109 52.138672 L 17.847656 52.130859 L 17.789062 52.130859 L 17.722656 52.130859 L 17.666016 52.125 L 17.601562 52.117188 L 17.542969 52.117188 L 17.484375 52.111328 L 17.419922 52.105469 L 17.361328 52.097656 L 17.294922 52.091797 L 17.236328 52.085938 L 17.171875 52.080078 L 17.115234 52.072266 L 17.054688 52.066406 L 16.990234 52.058594 L 16.931641 52.046875 L 16.873047 52.041016 L 16.808594 52.027344 L 16.75 52.021484 L 16.691406 52.007812 L 16.626953 51.994141 L 16.568359 51.982422 L 16.509766 51.974609 L 16.451172 51.962891 L 16.386719 51.949219 L 16.328125 51.9375 L 16.269531 51.916016 L 16.210938 51.904297 L 16.146484 51.890625 L 16.087891 51.878906 L 16.029297 51.857422 L 15.970703 51.845703 L 15.912109 51.826172 L 15.853516 51.8125 L 15.794922 51.792969 L 15.736328 51.773438 L 15.677734 51.753906 L 15.621094 51.736328 L 15.5625 51.722656 L 15.503906 51.701172 L 15.445312 51.677734 L 15.386719 51.65625 L 15.328125 51.636719 L 15.269531 51.617188 L 15.210938 51.591797 L 15.152344 51.572266 L 15.101562 51.552734 L 15.042969 51.527344 L 14.984375 51.5 L 14.925781 51.482422 L 14.873047 51.455078 L 14.816406 51.429688 L 14.757812 51.404297 L 14.705078 51.378906 L 14.646484 51.351562 L 14.59375 51.326172 L 14.535156 51.298828 L 14.484375 51.273438 L 14.425781 51.248047 L 14.373047 51.214844 L 14.316406 51.189453 L 14.263672 51.15625 L 14.210938 51.130859 L 14.160156 51.097656 L 14.101562 51.072266 L 14.132812 51.117188 L 14.160156 51.169922 L 14.191406 51.214844 L 14.222656 51.267578 L 14.25 51.3125 L 14.283203 51.357422 L 14.316406 51.410156 L 14.347656 51.455078 L 14.378906 51.5 L 14.412109 51.546875 L 14.445312 51.597656 L 14.476562 51.642578 L 14.509766 51.689453 L 14.548828 51.736328 L 14.580078 51.78125 L 14.615234 51.826172 L 14.652344 51.871094 L 14.685547 51.910156 L 14.722656 51.955078 L 14.757812 52 L 14.794922 52.046875 L 14.833984 52.085938 L 14.867188 52.130859 L 14.90625 52.177734 L 14.945312 52.214844 L 14.984375 52.261719 L 15.021484 52.298828 L 15.0625 52.339844 L 15.101562 52.384766 L 15.138672 52.423828 L 15.177734 52.462891 L 15.222656 52.5 L 15.263672 52.546875 L 15.302734 52.585938 L 15.347656 52.625 L 15.386719 52.664062 L 15.425781 52.701172 L 15.470703 52.736328 L 15.509766 52.773438 L 15.554688 52.8125 L 15.601562 52.851562 L 15.638672 52.884766 L 15.685547 52.923828 L 15.730469 52.962891 L 15.775391 52.996094 L 15.820312 53.033203 L 15.867188 53.066406 L 15.90625 53.099609 L 15.951172 53.138672 L 16.003906 53.169922 L 16.048828 53.203125 L 16.09375 53.236328 L 16.138672 53.267578 L 16.185547 53.300781 L 16.230469 53.332031 L 16.283203 53.365234 L 16.328125 53.398438 L 16.373047 53.429688 L 16.425781 53.457031 L 16.470703 53.488281 L 16.521484 53.521484 L 16.568359 53.546875 L 16.621094 53.580078 L 16.666016 53.605469 L 16.71875 53.630859 L 16.769531 53.664062 L 16.816406 53.689453 L 16.867188 53.714844 L 16.919922 53.742188 L 16.964844 53.767578 L 17.017578 53.794922 L 17.068359 53.820312 L 17.119141 53.845703 L 17.171875 53.871094 L 17.222656 53.890625 L 17.275391 53.916016 L 17.328125 53.943359 L 17.378906 53.962891 L 17.431641 53.988281 L 17.484375 54.009766 L 17.535156 54.027344 L 17.587891 54.054688 L 17.638672 54.072266 L 17.699219 54.09375 L 17.75 54.113281 L 17.802734 54.130859 L 17.853516 54.152344 L 17.912109 54.169922 L 17.964844 54.189453 L 18.017578 54.203125 L 18.074219 54.222656 L 18.126953 54.242188 L 18.177734 54.255859 L 18.236328 54.273438 L 18.289062 54.287109 L 18.347656 54.300781 L 18.400391 54.320312 L 18.458984 54.332031 L 18.509766 54.345703 L 18.568359 54.359375 L 18.619141 54.371094 L 18.677734 54.384766 L 18.730469 54.398438 L 18.789062 54.404297 L 18.847656 54.416016 L 18.900391 54.429688 L 18.958984 54.4375 L 19.009766 54.449219 L 19.068359 54.457031 L 19.126953 54.46875 L 19.177734 54.474609 L 19.236328 54.482422 L 19.294922 54.488281 L 19.347656 54.501953 L 19.40625 54.509766 L 19.464844 54.509766 L 19.521484 54.515625 L 19.574219 54.521484 L 19.632812 54.527344 L 19.691406 54.533203 L 19.75 54.533203 L 19.802734 54.541016 L 19.861328 54.541016 L 19.919922 54.546875 L 19.976562 54.546875 L 20.029297 54.546875 L 20.087891 54.546875 L 20.146484 54.546875 L 20.205078 54.546875 L 39.308594 54.546875 L 39.367188 54.546875 L 39.425781 54.546875 L 39.476562 54.546875 L 39.535156 54.546875 L 39.59375 54.546875 L 39.652344 54.541016 L 39.705078 54.541016 L 39.761719 54.533203 L 39.820312 54.533203 L 39.878906 54.527344 L 39.9375 54.521484 L 39.990234 54.515625 L 40.048828 54.509766 L 40.107422 54.501953 L 40.164062 54.496094 L 40.216797 54.488281 L 40.275391 54.482422 L 40.333984 54.474609 L 40.386719 54.46875 L 40.445312 54.457031 L 40.503906 54.449219 L 40.554688 54.4375 L 40.613281 54.429688 L 40.671875 54.416016 L 40.722656 54.404297 L 40.783203 54.398438 L 40.841797 54.384766 L 40.892578 54.371094 L 40.951172 54.359375 L 41.003906 54.345703 L 41.0625 54.332031 L 41.113281 54.314453 L 41.171875 54.300781 L 41.222656 54.287109 L 41.283203 54.267578 L 41.333984 54.255859 L 41.392578 54.236328 L 41.445312 54.222656 L 41.496094 54.203125 L 41.554688 54.183594 L 41.607422 54.164062 L 41.660156 54.144531 L 41.716797 54.130859 L 41.769531 54.113281 L 41.820312 54.085938 L 41.873047 54.066406 L 41.931641 54.046875 L 41.984375 54.027344 L 42.035156 54.001953 L 42.087891 53.982422 L 42.138672 53.962891 L 42.191406 53.9375 L 42.244141 53.912109 L 42.294922 53.890625 L 42.347656 53.865234 L 42.400391 53.839844 L 42.451172 53.8125 L 42.503906 53.787109 L 42.554688 53.761719 L 42.601562 53.736328 L 42.652344 53.708984 L 42.705078 53.683594 L 42.757812 53.658203 L 42.802734 53.625 L 42.853516 53.599609 L 42.90625 53.572266 L 42.951172 53.541016 L 43.003906 53.513672 L 43.048828 53.482422 L 43.101562 53.449219 L 43.146484 53.423828 L 43.191406 53.390625 L 43.244141 53.357422 L 43.289062 53.326172 L 43.333984 53.294922 L 43.378906 53.261719 L 43.431641 53.228516 L 43.476562 53.197266 L 43.521484 53.164062 L 43.568359 53.125 L 43.613281 53.09375 L 43.660156 53.058594 L 43.705078 53.021484 L 43.75 52.988281 L 43.794922 52.949219 L 43.833984 52.916016 L 43.878906 52.878906 L 43.925781 52.839844 L 43.962891 52.798828 L 44.009766 52.767578 L 44.054688 52.728516 L 44.09375 52.689453 L 44.138672 52.650391 L 44.177734 52.611328 L 44.216797 52.572266 L 44.261719 52.533203 L 44.302734 52.488281 L 44.341797 52.449219 L 44.378906 52.410156 L 44.417969 52.371094 L 44.462891 52.326172 L 44.503906 52.287109 L 44.542969 52.242188 L 44.574219 52.201172 L 44.613281 52.15625 L 44.652344 52.117188 L 44.691406 52.072266 L 44.730469 52.027344 L 44.761719 51.988281 L 44.802734 51.941406 L 44.833984 51.896484 L 44.873047 51.851562 L 44.90625 51.806641 L 44.945312 51.761719 L 44.976562 51.714844 L 45.009766 51.669922 L 45.042969 51.625 L 45.080078 51.580078 L 45.113281 51.533203 L 45.146484 51.482422 L 45.177734 51.435547 L 45.210938 51.390625 L 45.236328 51.345703 L 45.269531 51.292969 L 45.302734 51.248047 L 45.333984 51.195312 L 45.361328 51.150391 L 45.392578 51.097656 L 45.417969 51.052734 L 45.451172 51 L 57.048828 30.890625 L 44.716797 30.890625 L 37.236328 17.919922 L 43.400391 7.2285156 L 20.205078 7.2285156 L 20.146484 7.2285156 L 20.087891 7.2285156 L 20.029297 7.2285156 z M 373.67969 17.199219 C 371.17969 17.199219 367.55177 17.73525 364.39844 20.53125 C 361.77977 22.852583 359.93555 26.48124 359.93555 31.003906 C 359.93555 35.823906 362.07702 39.035526 364.04102 40.880859 C 366.36235 43.082193 369.93185 44.630859 373.97852 44.630859 C 376.95318 44.630859 379.21263 43.736772 380.64062 43.023438 L 380.64062 35.943359 C 378.67663 37.728693 376.53635 38.203125 374.92969 38.203125 C 370.58569 38.203125 367.43164 35.108766 367.43164 30.884766 C 367.43164 27.135432 369.87141 23.625 374.69141 23.625 C 377.19141 23.625 379.09397 24.458719 380.64062 25.886719 L 380.64062 18.746094 C 378.55797 17.734094 376.35702 17.199219 373.67969 17.199219 z M 397.59961 17.199219 C 389.98361 17.199219 384.80664 23.268766 384.80664 30.884766 C 384.80664 38.440765 390.04236 44.630859 397.95703 44.630859 C 399.80103 44.630859 403.25376 44.212844 405.87109 40.464844 L 405.87109 43.796875 L 413.13086 43.796875 L 413.13086 18.03125 L 405.87109 18.03125 L 405.87109 21.365234 C 403.43109 17.557234 399.56361 17.199219 397.59961 17.199219 z M 469.59766 17.199219 C 464.83766 17.199219 462.33965 19.756615 461.20898 21.363281 L 461.20898 18.03125 L 453.94922 18.03125 L 453.94922 57.421875 L 461.20898 57.421875 L 461.20898 40.464844 C 464.06498 44.332844 467.69318 44.628906 469.47852 44.628906 C 473.28652 44.628906 476.26256 43.142208 478.22656 41.296875 C 479.71456 39.868875 482.27344 36.716765 482.27344 30.884766 C 482.27344 25.767432 480.3083 22.554391 478.4043 20.650391 C 475.4883 17.734391 471.85899 17.199219 469.59766 17.199219 z M 502.62109 17.199219 C 500.89576 17.199219 499.46856 17.616745 498.33789 18.330078 C 497.80322 18.627411 496.25567 19.699057 495.125 21.900391 L 495.125 18.03125 L 487.86523 18.03125 L 487.86523 43.796875 L 495.125 43.796875 L 495.125 31.419922 C 495.125 29.634589 495.1834 27.432365 496.55273 25.707031 C 497.98073 23.921698 500.00505 23.625 501.37305 23.625 C 502.86105 23.625 503.81167 23.923458 504.76367 24.578125 L 505.7168 17.792969 C 504.88346 17.495635 503.87176 17.199219 502.62109 17.199219 z M 522.13867 17.199219 C 517.26001 17.199219 513.9279 18.805458 511.72656 20.828125 C 509.1679 23.149458 507.38281 26.718026 507.38281 30.943359 C 507.38281 35.108693 509.1679 38.678667 511.72656 41 C 513.9279 43.022667 517.26001 44.628906 522.13867 44.628906 C 527.01867 44.628906 530.34945 43.022667 532.55078 41 C 535.10945 38.678667 536.89453 35.108693 536.89453 30.943359 C 536.89453 26.718026 535.10945 23.149458 532.55078 20.828125 C 530.34945 18.805458 527.01867 17.199219 522.13867 17.199219 z M 81.013672 19.763672 C 79.017672 19.763672 77.217995 20.051047 75.611328 20.623047 C 74.004661 21.195047 72.644583 22.009073 71.53125 23.066406 C 70.417917 24.125073 69.561464 25.404297 68.966797 26.904297 C 68.369464 28.40563 68.072266 30.083453 68.072266 31.939453 C 68.072266 33.775453 68.369464 35.426531 68.966797 36.894531 C 69.561464 38.362531 70.417917 39.609432 71.53125 40.634766 C 72.644583 41.660099 74.010859 42.44738 75.630859 42.998047 C 77.249526 43.548714 79.070464 43.824219 81.091797 43.824219 C 82.41313 43.824219 83.64187 43.737789 84.783203 43.564453 C 85.92187 43.392453 87.037 43.110656 88.125 42.722656 C 87.969 41.858656 87.606443 40.963156 87.037109 40.035156 C 86.259776 40.31649 85.428828 40.532927 84.548828 40.683594 C 83.667495 40.83426 82.683703 40.910156 81.595703 40.910156 C 80.195703 40.910156 78.933307 40.726042 77.806641 40.359375 C 76.679974 39.992708 75.714776 39.441698 74.912109 38.707031 C 74.108109 37.973698 73.486875 37.045875 73.046875 35.921875 C 72.605542 34.800542 72.384766 33.472786 72.384766 31.939453 C 72.384766 28.939453 73.170281 26.640302 74.738281 25.042969 C 76.304948 23.445635 78.500219 22.646484 81.324219 22.646484 C 81.970885 22.646484 82.547401 22.661359 83.052734 22.693359 C 83.558068 22.725359 84.016974 22.775839 84.431641 22.839844 C 84.846307 22.905174 85.235609 22.981073 85.599609 23.066406 C 85.960943 23.153076 86.337229 23.249422 86.726562 23.357422 C 86.959896 22.882755 87.158792 22.435005 87.328125 22.013672 C 87.496125 21.592339 87.606203 21.134672 87.658203 20.638672 C 86.82887 20.401339 85.883599 20.194818 84.822266 20.021484 C 83.759599 19.849484 82.489672 19.763672 81.013672 19.763672 z M 157.79883 19.763672 C 155.85616 19.763672 154.08943 20.050427 152.49609 20.621094 C 150.90276 21.194427 149.52833 22.009073 148.375 23.066406 C 147.223 24.125073 146.33618 25.404297 145.71484 26.904297 C 145.09351 28.40563 144.78125 30.083453 144.78125 31.939453 C 144.78125 33.796786 145.08536 35.457781 145.69336 36.925781 C 146.30269 38.393781 147.17703 39.640682 148.31836 40.666016 C 149.45703 41.692682 150.85634 42.475005 152.51367 43.013672 C 154.17234 43.553672 156.03739 43.824219 158.10938 43.824219 C 158.73204 43.824219 159.3918 43.802426 160.0918 43.759766 C 160.79046 43.715766 161.49079 43.658031 162.18945 43.582031 C 162.88945 43.506031 163.56294 43.399146 164.21094 43.257812 C 164.85894 43.117813 165.456 42.950526 166 42.755859 L 166 31.388672 C 165.71467 31.346002 165.40241 31.312356 165.06641 31.291016 C 164.72907 31.269686 164.39202 31.259766 164.05469 31.259766 C 163.71869 31.259766 163.38288 31.269666 163.04688 31.291016 C 162.70954 31.312346 162.38489 31.346002 162.07422 31.388672 L 162.07422 40.488281 C 161.63289 40.596281 161.1018 40.689005 160.48047 40.763672 C 159.85914 40.839672 159.13402 40.876953 158.30469 40.876953 C 156.93135 40.876953 155.68269 40.69975 154.55469 40.34375 C 153.42802 39.986417 152.45043 39.435406 151.62109 38.691406 C 150.79176 37.946073 150.1506 37.01825 149.69727 35.90625 C 149.24393 34.79425 149.01758 33.472786 149.01758 31.939453 C 149.01758 30.45012 149.2364 29.127323 149.67773 27.972656 C 150.11773 26.81799 150.73277 25.846594 151.52344 25.058594 C 152.3141 24.270594 153.27177 23.672385 154.39844 23.261719 C 155.5251 22.851052 156.7751 22.644531 158.14844 22.644531 C 159.41777 22.644531 160.47374 22.720431 161.31641 22.871094 C 162.15774 23.023094 162.94264 23.195958 163.66797 23.390625 C 163.9013 22.915958 164.1002 22.468208 164.26953 22.046875 C 164.43753 21.625542 164.54761 21.165922 164.59961 20.669922 C 163.71961 20.389922 162.73448 20.167193 161.64648 20.005859 C 160.55848 19.844526 159.27616 19.763672 157.79883 19.763672 z M 178.24023 19.763672 C 177.64423 19.763672 177.09942 19.773572 176.60742 19.794922 C 176.11542 19.816252 175.64145 19.844953 175.18945 19.876953 C 174.73479 19.908953 174.27721 19.947573 173.81055 19.990234 C 173.34388 20.034234 172.82519 20.076474 172.25586 20.119141 L 172.25586 43.435547 C 172.56653 43.478217 172.90164 43.505578 173.26562 43.517578 C 173.6283 43.528248 173.96534 43.533203 174.27734 43.533203 C 174.58801 43.533203 174.91691 43.52133 175.26758 43.5 C 175.61691 43.47733 175.93342 43.456877 176.21875 43.435547 L 176.21875 22.677734 C 176.68542 22.633734 177.10642 22.601418 177.48242 22.580078 C 177.85709 22.558748 178.26374 22.548828 178.70508 22.548828 C 180.57041 22.548828 182.05492 22.925641 183.15625 23.681641 C 184.25758 24.437641 184.80664 25.593151 184.80664 27.146484 C 184.80664 27.989151 184.58782 28.706115 184.14648 29.300781 C 183.70648 29.894115 183.15609 30.400932 182.49609 30.822266 C 181.83476 31.243599 181.11522 31.58313 180.33789 31.841797 C 179.56056 32.100464 178.82305 32.308318 178.12305 32.458984 L 177.8125 32.521484 L 177.8125 32.652344 L 186.75 43.435547 C 187.45 43.500877 188.14961 43.533203 188.84961 43.533203 C 189.72961 43.533203 190.51875 43.500887 191.21875 43.435547 L 183.09766 33.623047 L 183.5625 33.429688 C 184.18517 33.171022 184.82695 32.841406 185.48828 32.441406 C 186.14828 32.04274 186.73719 31.573203 187.25586 31.033203 C 187.77319 30.493203 188.19978 29.878167 188.53711 29.1875 C 188.87311 28.496833 189.04297 27.729385 189.04297 26.886719 C 189.04297 25.484052 188.72513 24.324917 188.0918 23.40625 C 187.4558 22.488917 186.63371 21.760703 185.62305 21.220703 C 184.61238 20.680703 183.45873 20.303891 182.16406 20.087891 C 180.86806 19.871891 179.56157 19.763672 178.24023 19.763672 z M 205.75195 19.763672 C 203.73062 19.763672 201.98319 20.065922 200.50586 20.669922 C 199.02986 21.273922 197.80598 22.110354 196.83398 23.179688 C 195.86332 24.249022 195.13687 25.516375 194.6582 26.984375 C 194.1782 28.452375 193.93945 30.061214 193.93945 31.810547 C 193.93945 33.558547 194.1782 35.168099 194.6582 36.634766 C 195.13687 38.104099 195.86332 39.371453 196.83398 40.439453 C 197.80598 41.508786 199.02986 42.34026 200.50586 42.933594 C 201.98319 43.52826 203.73062 43.824219 205.75195 43.824219 C 207.77195 43.824219 209.52071 43.52826 210.99805 42.933594 C 212.47405 42.34026 213.69988 41.508786 214.67188 40.439453 C 215.64255 39.371453 216.36084 38.104099 216.82617 36.634766 C 217.29284 35.168099 217.52734 33.558547 217.52734 31.810547 C 217.52734 30.061214 217.29284 28.452375 216.82617 26.984375 C 216.36084 25.516375 215.64254 24.249022 214.67188 23.179688 C 213.69988 22.110354 212.47405 21.273922 210.99805 20.669922 C 209.52071 20.065922 207.77195 19.763672 205.75195 19.763672 z M 255.2207 19.763672 C 254.6767 19.763672 254.11392 19.775545 253.53125 19.796875 C 252.94725 19.818205 252.36392 19.844953 251.78125 19.876953 C 251.19858 19.908953 250.64199 19.947573 250.11133 19.990234 C 249.57933 20.034234 249.1198 20.076474 248.73047 20.119141 L 248.73047 43.435547 C 249.04114 43.479547 249.37137 43.504955 249.7207 43.515625 C 250.07137 43.526295 250.40089 43.533203 250.71289 43.533203 C 251.41156 43.533203 252.07398 43.500887 252.69531 43.435547 L 252.69531 35.015625 C 253.13531 35.058295 253.54197 35.085033 253.91797 35.095703 C 254.29264 35.107703 254.7287 35.113281 255.2207 35.113281 C 256.54204 35.113281 257.83809 34.989568 259.10742 34.740234 C 260.37676 34.492234 261.50853 34.064938 262.50586 33.460938 C 263.50319 32.856938 264.30668 32.052828 264.91602 31.048828 C 265.52402 30.046161 265.83008 28.78801 265.83008 27.277344 C 265.83008 25.830677 265.54394 24.626016 264.97461 23.666016 C 264.40394 22.706016 263.63278 21.932276 262.66211 21.349609 C 261.69011 20.766943 260.56392 20.357807 259.28125 20.119141 C 257.99858 19.881807 256.64604 19.763672 255.2207 19.763672 z M 125.81836 19.794922 C 124.62636 19.794922 123.40806 19.833532 122.16406 19.908203 C 120.9214 19.984203 119.85985 20.06701 118.97852 20.152344 L 118.97852 43.435547 C 119.83318 43.543547 120.85683 43.634938 122.04883 43.710938 C 123.23949 43.785607 124.44478 43.824219 125.66211 43.824219 C 130.55811 43.824219 134.24408 42.842906 136.71875 40.878906 C 139.19208 38.913573 140.42969 35.901797 140.42969 31.841797 C 140.42969 27.956464 139.21759 24.976297 136.79492 22.904297 C 134.37226 20.832297 130.71436 19.794922 125.81836 19.794922 z M 103.16211 20.021484 C 102.74744 20.021484 102.34698 20.033358 101.95898 20.054688 C 101.56965 20.076017 101.20709 20.108344 100.87109 20.152344 L 91.777344 43.435547 C 92.061344 43.479547 92.379182 43.511863 92.728516 43.533203 C 93.077849 43.554533 93.434208 43.564453 93.796875 43.564453 C 94.134208 43.564453 94.47126 43.554553 94.808594 43.533203 C 95.145927 43.511873 95.481026 43.479547 95.818359 43.435547 L 97.722656 38.060547 L 108.33203 38.060547 L 110.27344 43.435547 C 110.5841 43.479547 110.91629 43.511863 111.26562 43.533203 C 111.61495 43.554533 111.95892 43.564453 112.29492 43.564453 C 112.65759 43.564453 113.03253 43.554553 113.42188 43.533203 C 113.80987 43.511873 114.16066 43.479547 114.47266 43.435547 L 105.41797 20.152344 C 105.05397 20.108344 104.67902 20.076027 104.29102 20.054688 C 103.90168 20.033358 103.52478 20.021484 103.16211 20.021484 z M 224.67773 20.054688 C 223.95107 20.054688 223.27758 20.087004 222.65625 20.152344 L 222.65625 33.947266 C 222.65625 35.501932 222.83097 36.894333 223.18164 38.125 C 223.53097 39.355667 224.09996 40.393042 224.89062 41.234375 C 225.67997 42.077042 226.71114 42.718823 227.98047 43.160156 C 229.2498 43.602823 230.79018 43.824219 232.60352 43.824219 C 234.41685 43.824219 235.95918 43.602823 237.22852 43.160156 C 238.49785 42.718823 239.52707 42.077042 240.31641 41.234375 C 241.10707 40.393042 241.67801 39.355667 242.02734 38.125 C 242.37668 36.894333 242.55078 35.501932 242.55078 33.947266 L 242.55078 20.152344 C 241.92945 20.087014 241.25525 20.054687 240.53125 20.054688 C 239.85658 20.054688 239.19683 20.087004 238.54883 20.152344 L 238.54883 33.363281 C 238.54883 34.701948 238.44495 35.846208 238.23828 36.796875 C 238.03028 37.746208 237.69518 38.517995 237.22852 39.111328 C 236.76318 39.705995 236.15301 40.143828 235.40234 40.423828 C 234.65034 40.705161 233.71685 40.845703 232.60352 40.845703 C 231.49018 40.845703 230.55111 40.705161 229.78711 40.423828 C 229.02311 40.143828 228.40807 39.705995 227.94141 39.111328 C 227.47474 38.517995 227.13635 37.746208 226.92969 36.796875 C 226.72169 35.846208 226.61914 34.701948 226.61914 33.363281 L 226.61914 20.152344 C 226.02314 20.087014 225.3764 20.054687 224.67773 20.054688 z M 255.2207 22.613281 C 256.15404 22.613281 257.02155 22.687841 257.82422 22.839844 C 258.62689 22.99051 259.3141 23.250522 259.88477 23.617188 C 260.4541 23.985187 260.90061 24.470219 261.22461 25.074219 C 261.54861 25.679552 261.71094 26.42326 261.71094 27.308594 C 261.71094 28.32326 261.52115 29.149156 261.14648 29.785156 C 260.77048 30.42249 260.27172 30.924969 259.65039 31.292969 C 259.02906 31.659635 258.32254 31.912734 257.5332 32.052734 C 256.74254 32.194068 255.94524 32.263672 255.14258 32.263672 C 254.54658 32.263672 254.09387 32.251799 253.7832 32.230469 C 253.47254 32.209139 253.10998 32.178766 252.69531 32.134766 L 252.69531 22.708984 C 253.42065 22.644984 254.26204 22.613281 255.2207 22.613281 z M 205.75195 22.677734 C 207.04662 22.677734 208.16795 22.88726 209.11328 23.308594 C 210.05861 23.729927 210.84351 24.335047 211.46484 25.123047 C 212.08751 25.911047 212.55261 26.872526 212.86328 28.005859 C 213.17528 29.139193 213.33008 30.406547 213.33008 31.810547 C 213.33008 33.234547 213.17528 34.510146 212.86328 35.632812 C 212.55261 36.755479 212.08751 37.715005 211.46484 38.513672 C 210.84351 39.312339 210.05861 39.921797 209.11328 40.341797 C 208.16795 40.76313 207.04662 40.974609 205.75195 40.974609 C 204.45595 40.974609 203.33597 40.76313 202.39062 40.341797 C 201.44396 39.921797 200.66235 39.312339 200.04102 38.513672 C 199.41835 37.715005 198.95262 36.755479 198.64062 35.632812 C 198.32996 34.510146 198.17578 33.234547 198.17578 31.810547 C 198.17578 30.406547 198.32997 29.139193 198.64062 28.005859 C 198.95263 26.872526 199.41835 25.911047 200.04102 25.123047 C 200.66235 24.335047 201.44396 23.729927 202.39062 23.308594 C 203.33596 22.88726 204.45595 22.677734 205.75195 22.677734 z M 126.08984 22.742188 C 127.59118 22.742188 128.96498 22.904516 130.20898 23.228516 C 131.45298 23.552516 132.52135 24.074828 133.41602 24.798828 C 134.30935 25.521495 135.00214 26.457564 135.49414 27.601562 C 135.98614 28.745562 136.23242 30.125474 136.23242 31.744141 C 136.23242 33.514807 135.98614 34.988682 135.49414 36.166016 C 135.00214 37.342016 134.30315 38.277464 133.39648 38.966797 C 132.48982 39.658797 131.40772 40.149406 130.15039 40.441406 C 128.89439 40.732073 127.50199 40.878906 125.97266 40.878906 C 125.37666 40.878906 124.81387 40.860125 124.2832 40.828125 C 123.7512 40.796125 123.30407 40.758845 122.94141 40.714844 L 122.94141 22.873047 C 123.38141 22.807717 123.8939 22.770432 124.47656 22.759766 C 125.05923 22.749096 125.59651 22.742187 126.08984 22.742188 z M 306.86914 23.251953 C 302.80647 23.251953 299.51367 26.546708 299.51367 30.609375 C 299.51367 34.672042 302.80647 37.966797 306.86914 37.966797 C 310.93314 37.966797 314.22656 34.672042 314.22656 30.609375 C 314.22656 26.546708 310.93314 23.251953 306.86914 23.251953 z M 323.92969 23.251953 C 319.86702 23.251953 316.57422 26.546708 316.57422 30.609375 C 316.57422 34.672042 319.86702 37.966797 323.92969 37.966797 C 327.99369 37.966797 331.28711 34.672042 331.28711 30.609375 C 331.28711 26.546708 327.99369 23.251953 323.92969 23.251953 z M 103.00781 23.292969 L 107.2832 35.177734 L 98.771484 35.177734 L 103.00781 23.292969 z M 399.44336 23.625 C 403.60869 23.625 406.58594 26.779432 406.58594 30.884766 C 406.58594 34.990099 403.60869 38.203125 399.44336 38.203125 C 395.27803 38.203125 392.30469 34.990099 392.30469 30.884766 C 392.30469 26.779432 395.27803 23.625 399.44336 23.625 z M 433.36133 23.625 C 437.52666 23.625 440.50195 26.779432 440.50195 30.884766 C 440.50195 34.990099 437.52666 38.203125 433.36133 38.203125 C 429.19599 38.203125 426.2207 34.990099 426.2207 30.884766 C 426.2207 26.779432 429.19599 23.625 433.36133 23.625 z M 467.63477 23.625 C 469.36143 23.625 471.26427 24.279417 472.57227 25.46875 C 474.00027 26.838083 474.77539 28.980766 474.77539 30.884766 C 474.77539 32.790099 474.06034 34.931375 472.51367 36.359375 C 471.56167 37.251375 470.0161 38.203125 467.63477 38.203125 C 465.37477 38.203125 463.827 37.309897 462.875 36.476562 C 461.447 35.227229 460.49414 33.264766 460.49414 30.884766 C 460.49414 28.504766 461.32693 26.719563 462.93359 25.351562 C 464.24293 24.162229 465.73077 23.625 467.63477 23.625 z M 522.13867 23.625 C 526.30401 23.625 529.39844 26.896693 529.39844 30.943359 C 529.39844 34.870026 526.36401 38.203125 522.13867 38.203125 C 517.91467 38.203125 514.87891 34.870026 514.87891 30.943359 C 514.87891 26.896693 517.97467 23.625 522.13867 23.625 z M 16.308594 31.228516 L 29.554688 31.228516 L 35.789062 42.71875 L 22.931641 42.71875 L 16.308594 31.228516 z M 314.89258 39.087891 C 310.82991 39.087891 307.53711 42.382646 307.53711 46.445312 C 307.53711 50.507979 310.82991 53.802734 314.89258 53.802734 C 318.95658 53.802734 322.25 50.50798 322.25 46.445312 C 322.25 42.382646 318.95658 39.087891 314.89258 39.087891 z M 332.56836 39.087891 C 328.50569 39.087891 325.21289 42.382646 325.21289 46.445312 C 325.21289 50.507979 328.50569 53.802734 332.56836 53.802734 C 336.63236 53.802734 339.92578 50.50798 339.92578 46.445312 C 339.92578 42.382646 336.63236 39.087891 332.56836 39.087891 z "
/>
</svg>
